<svg viewBox="0 0 72 72" xmlns="http://www.w3.org/2000/svg">
  <rect width="72" height="72" rx="14" fill="#F5F2EB"/>
  <!-- mark centred: translate(-10 -8) maps the mark's bbox (22,12)–(70,76) into (12,4)–(60,68) -->
  <g transform="translate(-10 -8)">
    <!-- ball 1 -->
    <rect x="45" y="17.6" width="13" height="2.4" rx="1.2" fill="#3B6D11"/>
    <rect x="45" y="21"   width="9"  height="2.4" rx="1.2" fill="#3B6D11"/>
    <rect x="45" y="24.5" width="5"  height="2.4" rx="1.2" fill="#3B6D11"/>
    <circle cx="32" cy="22" r="10" fill="#3B6D11"/>
    <circle cx="27.8" cy="17.8" r="2.6" fill="#F5F2EB"/>
    <!-- ball 2 -->
    <rect x="57" y="39.5" width="13" height="2.4" rx="1.2" fill="#3B6D11"/>
    <rect x="57" y="43"   width="9"  height="2.4" rx="1.2" fill="#3B6D11"/>
    <rect x="57" y="46.5" width="5"  height="2.4" rx="1.2" fill="#3B6D11"/>
    <circle cx="44" cy="44" r="10" fill="#3B6D11"/>
    <circle cx="39.8" cy="39.8" r="2.6" fill="#F5F2EB"/>
    <!-- ball 3 -->
    <rect x="45" y="61.5" width="13" height="2.4" rx="1.2" fill="#3B6D11"/>
    <rect x="45" y="65"   width="9"  height="2.4" rx="1.2" fill="#3B6D11"/>
    <rect x="45" y="68.5" width="5"  height="2.4" rx="1.2" fill="#3B6D11"/>
    <circle cx="32" cy="66" r="10" fill="#3B6D11"/>
    <circle cx="27.8" cy="61.8" r="2.6" fill="#F5F2EB"/>
  </g>
</svg>
