<?xml version="1.0" encoding="UTF-8"?>
<svg id="Layer_1" xmlns="http://www.w3.org/2000/svg" version="1.1" xmlns:xodm="http://www.corel.com/coreldraw/odm/2003" viewBox="0 0 720 180">
  <!-- Generator: Adobe Illustrator 30.3.0, SVG Export Plug-In . SVG Version: 2.1.3 Build 182)  -->
  <defs>
    <style>
      .st0 {
        fill: none;
      }

      .st1 {
        fill-rule: evenodd;
      }
    </style>
  </defs>
  <g id="Layer_x5F_1">
    <g id="_1364058961856">
      <rect class="st0" x="0" y="0" width="180" height="180"/>
      <g>
        <g>
          <path class="st1" d="M70.35,45.73c3.28,0,5.94,2.66,5.94,5.94s-2.66,5.94-5.94,5.94-5.94-2.66-5.94-5.94,2.66-5.94,5.94-5.94ZM93.83,52.86c7.74,0,12.26,4.38,13.91,11.85l-4.05,2.7-1.8-3.45v4.27c-3.32,1.67-4.23,1.79-8.05,1.87-3.83-.08-4.73-.21-8.05-1.87v-4.27l-1.8,3.45-4.05-2.7c1.64-7.47,6.16-11.85,13.91-11.85h0ZM110.51,68.84c1-4.63,2.72-9.11,8.18-8.82,2.75.14,5.82,2.14,6.22,5.69.21,1.93.21,5.05.21,8.17-1.22,1.08-6.66,5.38-7.51,3.79-.49-.91,2.16-2.21,1.62-5.29-14.27,20.15-27.25,11.89-20.81,6.79,2.9,1.83,3.77,1.54,7.2-.23l-5.96-.6c7.66-5.49,9.83-2.02,13.37-9.69,1.99-4.32-1.45-.84-2.52.19h0ZM93.83,37.71c3.56,0,6.45,2.89,6.45,6.45s-2.89,6.45-6.45,6.45-6.45-2.89-6.45-6.45,2.89-6.45,6.45-6.45ZM117.31,45.73c-3.28,0-5.94,2.66-5.94,5.94s2.66,5.94,5.94,5.94,5.94-2.66,5.94-5.94-2.66-5.94-5.94-5.94ZM77.15,68.84c-1-4.63-2.72-9.11-8.18-8.82-2.75.14-5.82,2.14-6.22,5.69-.21,1.93-.21,5.05-.21,8.17,1.22,1.08,6.66,5.38,7.51,3.79.49-.91-2.16-2.21-1.62-5.29,14.27,20.15,27.25,11.89,20.81,6.79-2.9,1.83-3.77,1.54-7.2-.23l5.96-.6c-7.66-5.49-9.83-2.02-13.37-9.69-1.99-4.32,1.45-.84,2.52.19h0Z"/>
          <path d="M23.22,101.27c0-.97.22-1.84.66-2.61.44-.77,1.04-1.37,1.79-1.79.76-.43,1.61-.64,2.55-.64,1.1,0,2.07.28,2.89.85.83.56,1.41,1.35,1.74,2.34h-2.27c-.24-.45-.56-.79-.96-1.02-.4-.23-.88-.35-1.41-.35-.57,0-1.09.13-1.53.4s-.8.64-1.04,1.13c-.25.49-.37,1.05-.37,1.69s.12,1.2.37,1.69c.25.49.6.86,1.04,1.13.45.27.96.4,1.53.4.54,0,1.01-.12,1.42-.35s.73-.58.95-1.03h2.27c-.33,1.01-.91,1.79-1.73,2.35s-1.79.84-2.9.84c-.94,0-1.79-.21-2.55-.64-.76-.43-1.36-1.02-1.79-1.79-.44-.76-.66-1.63-.66-2.6h0Z"/>
          <path id="_1" d="M39.26,106.31c-.92,0-1.77-.22-2.54-.65-.77-.43-1.38-1.03-1.84-1.8s-.68-1.64-.68-2.6.23-1.82.68-2.59c.45-.77,1.06-1.37,1.84-1.8.77-.43,1.62-.65,2.54-.65s1.78.22,2.55.65c.77.43,1.37,1.03,1.82,1.8.45.77.67,1.63.67,2.59s-.22,1.84-.67,2.6c-.45.77-1.06,1.37-1.83,1.8-.77.43-1.62.65-2.54.65ZM39.26,104.49c.59,0,1.12-.13,1.57-.4.45-.27.8-.64,1.06-1.13.25-.48.38-1.05.38-1.7s-.13-1.22-.38-1.7c-.25-.49-.61-.86-1.06-1.12-.45-.26-.97-.4-1.57-.4s-1.12.13-1.57.4c-.46.26-.81.64-1.07,1.12-.25.48-.38,1.05-.38,1.7s.13,1.22.38,1.7c.25.49.61.86,1.07,1.13.46.27.98.4,1.57.4Z"/>
          <polygon id="_2" points="56.65 96.36 56.65 106.21 54.67 106.21 54.67 99.8 52.03 106.21 50.53 106.21 47.88 99.8 47.88 106.21 45.9 106.21 45.9 96.36 48.15 96.36 51.28 103.69 54.42 96.36 56.65 96.36"/>
          <polygon id="_3" points="69.48 96.36 69.48 106.21 67.5 106.21 67.5 99.8 64.86 106.21 63.36 106.21 60.71 99.8 60.71 106.21 58.73 106.21 58.73 96.36 60.98 96.36 64.11 103.69 67.25 96.36 69.48 96.36"/>
          <path id="_4" d="M73.51,96.36v6.09c0,.67.17,1.18.52,1.53.35.35.84.53,1.47.53s1.13-.18,1.48-.53c.35-.35.52-.86.52-1.53v-6.09h1.99v6.09c0,.84-.18,1.55-.54,2.13-.36.58-.85,1.01-1.45,1.31-.61.29-1.28.44-2.03.44s-1.4-.15-2-.44c-.6-.29-1.07-.73-1.42-1.31-.35-.58-.52-1.29-.52-2.13v-6.09h1.98,0Z"/>
          <polygon id="_5" points="89.97 106.21 88 106.21 83.52 99.45 83.52 106.21 81.54 106.21 81.54 96.34 83.52 96.34 88 103.12 88 96.34 89.97 96.34 89.97 106.21"/>
          <polygon id="_6" points="94.03 96.36 94.03 106.21 92.06 106.21 92.06 96.36 94.03 96.36"/>
          <polygon id="_7" points="102.83 96.36 102.83 97.91 100.2 97.91 100.2 106.21 98.22 106.21 98.22 97.91 95.6 97.91 95.6 96.36 102.83 96.36"/>
          <polygon id="_8" points="112.24 96.36 108.91 102.78 108.91 106.21 106.93 106.21 106.93 102.78 103.59 96.36 105.82 96.36 107.92 100.85 110.01 96.36 112.24 96.36"/>
          <polygon id="_9" points="127.07 96.36 127.07 97.91 122.96 97.91 122.96 100.49 126.11 100.49 126.11 102.02 122.96 102.02 122.96 106.21 120.99 106.21 120.99 96.36 127.07 96.36"/>
          <polygon id="_10" points="130.58 96.36 130.58 106.21 128.61 106.21 128.61 96.36 130.58 96.36"/>
          <path id="_11" d="M137.75,106.21l-2.17-3.84h-.93v3.84h-1.98v-9.86h3.7c.76,0,1.41.13,1.95.4.54.27.94.63,1.21,1.09.27.46.4.97.4,1.53,0,.65-.19,1.24-.56,1.76s-.94.88-1.68,1.08l2.36,4h-2.29ZM134.65,100.9h1.65c.54,0,.94-.13,1.2-.4s.4-.63.4-1.09-.13-.82-.4-1.08-.66-.39-1.2-.39h-1.65v2.95h0Z"/>
          <path id="_12" d="M145.26,106.31c-.69,0-1.31-.12-1.86-.35-.55-.24-.99-.57-1.31-1.02-.32-.44-.48-.96-.49-1.57h2.12c.03.41.17.74.43.99.26.24.61.37,1.07.37s.82-.11,1.09-.34.4-.53.4-.9c0-.29-.09-.53-.27-.72-.18-.19-.4-.34-.67-.44-.27-.11-.64-.23-1.11-.36-.64-.19-1.16-.37-1.56-.56s-.74-.46-1.03-.83c-.29-.37-.43-.87-.43-1.49,0-.58.15-1.09.44-1.52.29-.43.7-.76,1.23-1,.53-.23,1.13-.35,1.81-.35,1.02,0,1.84.25,2.48.74.64.49.99,1.18,1.05,2.07h-2.17c-.02-.37-.16-.66-.43-.88-.27-.22-.62-.33-1.07-.33-.39,0-.69.1-.93.3-.23.2-.35.5-.35.9,0,.26.09.48.26.66s.39.32.65.42c.26.11.62.23,1.09.37.64.19,1.16.38,1.57.56.4.19.75.47,1.04.85.29.38.44.87.44,1.48,0,.53-.14,1.02-.41,1.47-.27.45-.67.81-1.2,1.08s-1.15.4-1.88.4h0Z"/>
          <polygon id="_13" points="157.3 96.36 157.3 97.91 154.67 97.91 154.67 106.21 152.7 106.21 152.7 97.91 150.07 97.91 150.07 96.36 157.3 96.36"/>
          <path d="M47.64,120.52c.38.07.69.27.96.59.26.33.39.7.39,1.12,0,.36-.09.68-.28.96-.18.29-.45.51-.8.67s-.76.25-1.22.25h-2.8v-7h2.67c.48,0,.89.08,1.23.24.34.16.6.38.78.65.17.27.26.58.26.91,0,.4-.11.74-.32,1.01-.21.27-.5.47-.87.59h0ZM45.04,120.09h1.42c.38,0,.67-.09.88-.27s.32-.43.32-.76-.11-.59-.32-.77c-.21-.18-.51-.28-.88-.28h-1.42v2.07h0ZM46.59,123.22c.39,0,.69-.1.92-.29.22-.19.33-.47.33-.82s-.12-.62-.35-.82-.55-.31-.94-.31h-1.51v2.24h1.55Z"/>
          <path id="_1_0" d="M55.37,118.57v5.55h-1.15v-.65c-.18.23-.42.41-.71.54-.29.13-.6.2-.93.2-.44,0-.83-.09-1.17-.27-.35-.18-.62-.45-.82-.81s-.3-.79-.3-1.29v-3.26h1.14v3.09c0,.5.12.88.37,1.14.25.27.59.4,1.02.4s.77-.13,1.02-.4c.25-.26.38-.65.38-1.14v-3.09h1.15Z"/>
          <path id="_2_1" d="M57.58,117.83c-.21,0-.38-.07-.52-.21s-.21-.32-.21-.52.07-.38.21-.52.32-.21.52-.21.37.07.51.21c.14.14.21.32.21.52s-.07.38-.21.52c-.14.14-.31.21-.51.21ZM58.14,118.57v5.55h-1.15v-5.55h1.15Z"/>
          <polygon id="_3_2" points="60.91 116.66 60.91 124.12 59.76 124.12 59.76 116.66 60.91 116.66"/>
          <path id="_4_3" d="M63.87,119.5v3.07c0,.21.05.36.15.45.1.09.26.14.5.14h.7v.96h-.91c-.52,0-.91-.12-1.19-.36s-.41-.63-.41-1.18v-3.07h-.65v-.94h.65v-1.38h1.16v1.38h1.35v.94h-1.35Z"/>
          <path id="_5_4" d="M74.67,119.5h-1.03v4.61h-1.16v-4.61h-.65v-.94h.65v-.39c0-.64.17-1.1.51-1.39.34-.29.87-.44,1.6-.44v.96c-.35,0-.59.07-.74.2-.14.13-.21.36-.21.68v.39h1.03v.94h0Z"/>
          <path id="_6_5" d="M78.2,124.21c-.52,0-1-.12-1.42-.36-.42-.24-.76-.57-1-1.01-.24-.43-.36-.94-.36-1.51s.12-1.06.37-1.5c.25-.44.59-.77,1.02-1.01.43-.23.91-.35,1.44-.35s1.01.12,1.44.35.77.57,1.02,1.01c.25.44.37.94.37,1.5s-.13,1.06-.38,1.5c-.25.44-.6.77-1.04,1.01s-.93.36-1.46.36h0ZM78.2,123.24c.3,0,.57-.07.83-.22.26-.15.47-.36.63-.65s.24-.63.24-1.03-.08-.75-.23-1.03c-.15-.29-.36-.5-.61-.64-.25-.14-.53-.22-.83-.22s-.57.07-.82.22c-.25.14-.45.36-.6.64s-.23.63-.23,1.03.07.75.22,1.04.34.51.58.65c.25.14.52.22.81.22Z"/>
          <path id="_7_6" d="M83.48,119.53c.17-.34.39-.6.67-.78.28-.19.61-.28.99-.28v1.19h-.29c-.45,0-.79.11-1.02.34s-.35.62-.35,1.19v2.92h-1.15v-5.55h1.15v.97h0Z"/>
          <path id="_8_7" d="M93.41,119.38c.19-.25.46-.47.8-.64.34-.17.71-.26,1.14-.26.48,0,.92.12,1.32.36.4.24.71.57.94,1,.23.43.34.92.34,1.48s-.11,1.06-.34,1.5c-.23.44-.54.78-.94,1.03-.4.24-.84.37-1.32.37-.42,0-.8-.09-1.13-.26-.33-.17-.6-.38-.81-.64v3.44h-1.15v-8.19h1.15s0,.82,0,.82ZM96.79,121.31c0-.38-.08-.71-.24-.99-.16-.28-.37-.49-.62-.63-.26-.14-.53-.22-.83-.22s-.56.07-.82.22c-.26.15-.47.36-.62.64-.16.28-.24.61-.24,1s.08.72.24,1c.16.29.37.5.62.65.26.15.53.22.82.22s.57-.08.83-.23c.26-.15.47-.37.62-.66.16-.29.24-.62.24-1.01h0Z"/>
          <polygon id="_9_8" points="100.35 116.66 100.35 124.12 99.2 124.12 99.2 116.66 100.35 116.66"/>
          <path id="_10_9" d="M101.59,121.31c0-.56.12-1.05.35-1.48.23-.43.55-.76.95-1s.84-.36,1.32-.36c.44,0,.82.09,1.14.26.33.17.59.38.78.64v-.81h1.16v5.55h-1.16v-.83c-.19.26-.46.48-.8.65-.34.17-.72.26-1.15.26-.48,0-.91-.12-1.31-.37-.4-.25-.71-.59-.94-1.03s-.35-.94-.35-1.5ZM106.13,121.34c0-.38-.08-.71-.24-1-.16-.28-.36-.5-.62-.64-.25-.15-.53-.22-.83-.22s-.57.07-.83.22c-.25.14-.46.36-.62.63-.16.28-.24.61-.24.99s.08.72.24,1.01c.16.29.37.51.62.66.26.15.53.23.82.23s.57-.07.83-.22c.25-.15.46-.36.62-.65s.24-.62.24-1h0Z"/>
          <polygon id="_11_10" points="109.53 118.57 111.1 122.8 112.72 118.57 113.91 118.57 110.5 126.72 109.31 126.72 110.44 124.02 108.26 118.57 109.53 118.57"/>
          <path id="_12_11" d="M119.97,121.18c0,.19-.01.38-.04.54h-4.25c.03.46.2.83.49,1.1.3.27.66.41,1.1.41.62,0,1.05-.26,1.31-.78h1.24c-.17.51-.47.93-.91,1.25-.44.33-.99.49-1.64.49-.53,0-1.01-.12-1.42-.36-.42-.24-.75-.57-.99-1.01-.24-.43-.36-.94-.36-1.51s.12-1.07.35-1.51c.23-.43.56-.77.98-1,.42-.23.9-.35,1.45-.35s.99.11,1.4.34c.41.23.73.55.96.96.23.41.34.88.34,1.41h0ZM118.77,120.9c0-.45-.16-.81-.45-1.07-.29-.26-.66-.39-1.1-.39-.4,0-.75.13-1.03.39-.29.26-.45.62-.5,1.07,0,0,3.08,0,3.08,0Z"/>
          <path id="_13_12" d="M122.35,119.53c.17-.34.39-.6.67-.78.28-.19.61-.28.99-.28v1.19h-.29c-.45,0-.79.11-1.02.34s-.35.62-.35,1.19v2.92h-1.15v-5.55h1.15v.97h0Z"/>
          <path id="_14" d="M127.18,124.21c-.43,0-.82-.08-1.16-.24-.34-.16-.61-.37-.82-.64-.2-.27-.31-.58-.32-.91h1.19c.02.25.13.47.34.63.21.17.46.25.77.25s.57-.07.75-.2c.18-.13.27-.31.27-.53,0-.2-.1-.36-.3-.46-.2-.11-.51-.21-.94-.32-.41-.11-.74-.22-1-.33-.26-.1-.48-.26-.67-.48-.19-.22-.28-.5-.28-.85,0-.3.08-.58.25-.83s.41-.45.73-.6c.32-.15.69-.22,1.12-.22.63,0,1.14.16,1.53.48s.59.75.62,1.3h-1.15c-.02-.27-.12-.48-.3-.64-.18-.16-.43-.24-.74-.24s-.53.06-.69.19c-.16.12-.24.29-.24.5,0,.15.05.27.16.37s.24.18.4.24c.16.06.39.13.68.21.4.11.73.21.99.32.25.11.47.27.65.49s.27.5.27.85c0,.32-.08.6-.25.85s-.41.45-.73.59-.7.22-1.13.22h0Z"/>
          <path id="_15" d="M131.13,124.19c-.21,0-.38-.07-.52-.21s-.21-.32-.21-.52.07-.38.21-.52.32-.21.52-.21.37.07.51.21c.14.14.21.32.21.52s-.07.38-.21.52c-.14.14-.31.21-.51.21Z"/>
          <path id="_16" d="M27.59,134.76c0,.36-.08.69-.25,1.01s-.44.57-.81.77-.84.3-1.42.3h-1.27v2.84h-1.15v-7h2.42c.54,0,.99.09,1.36.28s.65.43.84.75c.18.32.28.67.28,1.06ZM25.12,135.94c.44,0,.76-.1.98-.31.21-.21.32-.5.32-.87s-.11-.67-.32-.88c-.21-.21-.54-.31-.98-.31h-1.27v2.37h1.27Z"/>
          <path id="_17" d="M31.21,139.77c-.52,0-1-.12-1.42-.36-.42-.24-.76-.57-1-1.01-.24-.43-.36-.94-.36-1.51s.12-1.06.37-1.5c.25-.44.59-.77,1.02-1.01.43-.23.91-.35,1.44-.35s1.01.12,1.44.35.77.57,1.02,1.01c.25.44.37.94.37,1.5s-.13,1.06-.38,1.5c-.25.44-.6.77-1.04,1.01-.44.24-.93.36-1.46.36h0ZM31.21,138.8c.3,0,.57-.07.83-.22.26-.15.47-.36.63-.65s.24-.63.24-1.03-.08-.75-.23-1.03c-.15-.29-.36-.5-.61-.64-.25-.14-.53-.22-.83-.22s-.57.07-.82.22c-.25.14-.45.36-.6.64s-.23.63-.23,1.03.07.75.22,1.04.34.51.58.65c.25.14.52.22.81.22Z"/>
          <polygon id="_18" points="42.79 134.13 41.07 139.68 39.86 139.68 38.74 135.58 37.62 139.68 36.41 139.68 34.68 134.13 35.85 134.13 37.01 138.59 38.19 134.13 39.39 134.13 40.51 138.57 41.66 134.13 42.79 134.13"/>
          <path id="_19" d="M48.84,136.75c0,.19-.01.38-.04.54h-4.25c.03.46.2.83.49,1.1.3.27.66.41,1.1.41.62,0,1.05-.26,1.31-.78h1.24c-.17.51-.47.93-.91,1.25-.44.33-.99.49-1.64.49-.53,0-1.01-.12-1.42-.36-.42-.24-.75-.57-.99-1.01-.24-.43-.36-.94-.36-1.51s.12-1.07.35-1.51c.23-.43.56-.77.98-1,.42-.23.9-.35,1.45-.35s.99.11,1.4.34c.41.23.73.55.96.96.23.41.34.88.34,1.41h0ZM47.64,136.46c0-.45-.16-.81-.45-1.07-.29-.26-.66-.39-1.1-.39-.4,0-.75.13-1.03.39-.29.26-.45.62-.5,1.07h3.08Z"/>
          <path id="_20" d="M51.23,135.1c.17-.34.39-.6.67-.78.28-.19.61-.28.99-.28v1.19h-.29c-.45,0-.79.11-1.02.34-.23.23-.35.62-.35,1.19v2.92h-1.15v-5.55h1.15v.97h0Z"/>
          <path id="_21" d="M59.14,136.75c0,.19-.01.38-.04.54h-4.25c.03.46.2.83.49,1.1.3.27.66.41,1.1.41.62,0,1.05-.26,1.31-.78h1.24c-.17.51-.47.93-.91,1.25-.44.33-.99.49-1.64.49-.53,0-1.01-.12-1.42-.36-.42-.24-.75-.57-.99-1.01-.24-.43-.36-.94-.36-1.51s.12-1.07.35-1.51c.23-.43.56-.77.98-1,.42-.23.9-.35,1.45-.35s.99.11,1.4.34c.41.23.73.55.96.96.23.41.34.88.34,1.41h0ZM57.94,136.46c0-.45-.16-.81-.45-1.07-.29-.26-.66-.39-1.1-.39-.4,0-.75.13-1.03.39-.29.26-.45.62-.5,1.07h3.08Z"/>
          <path id="_22" d="M60,136.88c0-.56.12-1.05.35-1.48.23-.43.55-.76.95-1,.4-.24.84-.36,1.33-.36.36,0,.72.08,1.07.24.35.16.63.37.84.63v-2.68h1.16v7.45h-1.16v-.84c-.19.27-.45.49-.78.66-.33.17-.71.26-1.14.26-.48,0-.93-.12-1.32-.37-.4-.25-.71-.59-.95-1.03-.23-.44-.35-.94-.35-1.5h0ZM64.54,136.9c0-.38-.08-.71-.24-1-.16-.28-.36-.5-.62-.64-.25-.15-.53-.22-.83-.22s-.57.07-.83.22c-.25.14-.46.36-.62.63-.16.28-.24.61-.24.99s.08.72.24,1.01.37.51.62.66c.26.15.53.23.82.23s.57-.07.83-.22c.25-.15.46-.36.62-.65s.24-.62.24-1h0Z"/>
          <path id="_23" d="M74.42,134.95c.19-.27.46-.49.8-.66s.72-.26,1.13-.26c.49,0,.93.12,1.33.35s.71.57.94,1c.23.43.34.93.34,1.49s-.11,1.06-.34,1.5c-.23.44-.54.78-.94,1.03-.4.24-.84.37-1.32.37-.43,0-.81-.08-1.14-.25-.33-.17-.6-.38-.79-.64v.81h-1.15v-7.45h1.15s0,2.73,0,2.73ZM77.8,136.88c0-.38-.08-.71-.24-.99-.16-.28-.37-.49-.62-.63-.26-.14-.53-.22-.83-.22s-.56.07-.82.22c-.26.15-.47.36-.62.64-.16.28-.24.61-.24,1s.08.72.24,1c.16.29.37.5.62.65.26.15.53.22.82.22s.57-.08.83-.23c.26-.15.47-.37.62-.66.16-.29.24-.62.24-1.01h0Z"/>
          <polygon id="_24" points="80.84 134.13 82.4 138.36 84.02 134.13 85.21 134.13 81.8 142.29 80.61 142.29 81.74 139.59 79.56 134.13 80.84 134.13"/>
          <path id="_25" d="M91.76,136.9c0-.57.12-1.07.35-1.51.23-.43.55-.77.96-1,.41-.23.88-.35,1.41-.35.67,0,1.23.16,1.67.48s.74.77.89,1.37h-1.24c-.1-.28-.26-.49-.48-.64-.22-.15-.5-.23-.84-.23-.47,0-.84.17-1.12.5-.28.33-.42.8-.42,1.39s.14,1.06.42,1.4c.28.34.65.5,1.12.5.66,0,1.1-.29,1.32-.88h1.24c-.16.56-.46,1.01-.91,1.34-.44.33-.99.5-1.65.5-.53,0-1-.12-1.41-.36-.41-.24-.73-.57-.96-1.01-.23-.43-.35-.94-.35-1.51Z"/>
          <path id="_26" d="M100.7,139.77c-.52,0-1-.12-1.42-.36-.42-.24-.76-.57-1-1.01-.24-.43-.36-.94-.36-1.51s.12-1.06.37-1.5c.25-.44.59-.77,1.02-1.01.43-.23.91-.35,1.44-.35s1.01.12,1.44.35.77.57,1.02,1.01c.25.44.37.94.37,1.5s-.13,1.06-.38,1.5c-.25.44-.6.77-1.04,1.01s-.93.36-1.46.36h0ZM100.7,138.8c.3,0,.57-.07.83-.22.26-.15.47-.36.63-.65s.24-.63.24-1.03-.08-.75-.23-1.03c-.15-.29-.36-.5-.61-.64-.25-.14-.53-.22-.83-.22s-.57.07-.82.22c-.25.14-.45.36-.6.64s-.23.63-.23,1.03.07.75.22,1.04.34.51.58.65c.25.14.52.22.81.22Z"/>
          <path id="_27" d="M111.55,134.04c.44,0,.83.09,1.17.27.35.18.62.45.82.81s.3.79.3,1.29v3.27h-1.14v-3.1c0-.5-.12-.88-.37-1.14-.25-.27-.59-.4-1.02-.4s-.77.13-1.02.4c-.25.26-.38.65-.38,1.14v3.1h-1.14v-3.1c0-.5-.12-.88-.37-1.14-.25-.27-.59-.4-1.02-.4s-.77.13-1.02.4c-.25.26-.38.65-.38,1.14v3.1h-1.15v-5.55h1.15v.63c.19-.23.43-.41.71-.53s.6-.19.93-.19c.44,0,.84.09,1.19.28.35.19.62.46.81.82.17-.34.43-.6.79-.8.36-.2.74-.3,1.15-.3h0Z"/>
          <path id="_28" d="M122.12,134.04c.44,0,.83.09,1.17.27.35.18.62.45.82.81s.3.79.3,1.29v3.27h-1.14v-3.1c0-.5-.12-.88-.37-1.14-.25-.27-.59-.4-1.02-.4s-.77.13-1.02.4c-.25.26-.38.65-.38,1.14v3.1h-1.14v-3.1c0-.5-.12-.88-.37-1.14-.25-.27-.59-.4-1.02-.4s-.77.13-1.02.4c-.25.26-.38.65-.38,1.14v3.1h-1.15v-5.55h1.15v.63c.19-.23.43-.41.71-.53s.6-.19.93-.19c.44,0,.84.09,1.19.28.35.19.62.46.81.82.17-.34.43-.6.79-.8.36-.2.74-.3,1.15-.3h0Z"/>
          <path id="_29" d="M131,134.13v5.55h-1.15v-.65c-.18.23-.42.41-.71.54-.29.13-.6.2-.93.2-.44,0-.83-.09-1.17-.27-.35-.18-.62-.45-.82-.81s-.3-.79-.3-1.29v-3.26h1.14v3.09c0,.5.12.88.37,1.14.25.27.59.4,1.02.4s.77-.13,1.02-.4c.25-.26.38-.65.38-1.14v-3.09h1.15Z"/>
          <path id="_30" d="M135.42,134.04c.44,0,.83.09,1.17.27.35.18.62.45.81.81s.29.79.29,1.29v3.27h-1.14v-3.1c0-.5-.12-.88-.37-1.14-.25-.27-.59-.4-1.02-.4s-.77.13-1.02.4c-.25.26-.38.65-.38,1.14v3.1h-1.15v-5.55h1.15v.63c.19-.23.43-.41.72-.53s.6-.19.93-.19h0Z"/>
          <path id="_31" d="M139.85,133.39c-.21,0-.38-.07-.52-.21s-.21-.32-.21-.52.07-.38.21-.52.32-.21.52-.21.37.07.51.21c.14.14.21.32.21.52s-.07.38-.21.52c-.14.14-.31.21-.51.21ZM140.41,134.13v5.55h-1.15v-5.55h1.15Z"/>
          <path id="_32" d="M143.37,135.07v3.07c0,.21.05.36.15.45s.26.14.5.14h.7v.96h-.91c-.52,0-.91-.12-1.19-.36s-.41-.63-.41-1.18v-3.07h-.65v-.94h.65v-1.38h1.16v1.38h1.35v.94h-1.35Z"/>
          <polygon id="_33" points="146.51 134.13 148.08 138.36 149.7 134.13 150.89 134.13 147.48 142.29 146.29 142.29 147.42 139.59 145.24 134.13 146.51 134.13"/>
          <path id="_34" d="M152.32,139.75c-.21,0-.38-.07-.52-.21s-.21-.32-.21-.52.07-.38.21-.52.32-.21.52-.21.37.07.51.21c.14.14.21.32.21.52s-.07.38-.21.52c-.14.14-.31.21-.51.21Z"/>
        </g>
        <g>
          <path class="st1" d="M266.7,61.76c.12.27.27.53.41.79-1.05-.22-2.1-.44-2.86-.54-.57-.08-.98-.09-1.34-.09v3.76h-.69v-3.76c-.36,0-.77,0-1.34.09-.76.1-1.81.32-2.86.54.15-.26.29-.52.41-.79.12-.27.22-.56.17-.77s-.23-.36-1-.94l-3.49-2.61c.41-.29.83-.59.92-1.19s-.13-1.51-.36-2.42c.41.2.81.41,1.2.52.38.12.74.15,1.06-.09s.61-.75.89-1.27l2.32,2.83-1.02-5.83c.39.42.77.85,1.2.99.43.14.91,0,1.29-.52.38-.53.67-1.45.95-2.37.29.92.57,1.84.95,2.37.38.53.86.67,1.29.52.43-.14.82-.57,1.2-.99l-1.02,5.83,2.32-2.83c.28.51.57,1.03.89,1.27.32.24.68.21,1.06.09s.79-.32,1.2-.52c-.23.91-.46,1.82-.36,2.42s.51.89.92,1.19l-3.49,2.61c-.77.58-.96.73-1,.94-.04.22.05.5.17.77h0ZM273,78.82c4.99.55,10.75-.71,13.87,4.77.62,1.09.4,1.3-.06,1.68-3.53,2.87-3.08-.11-5.51-2.23-.92-.8-2.17-.18-1.38.91,2.06,2.83.96,1.11.26,3.63-.29,1.04-.23,2.76-.56,3.77-.4,1.19-3.41,3.19-3.09,5.34.37,2.46,5.44-1.32,6.55-1.82,1.36-.62,2.5-.62,3.3-.91.8-.3,1.25-.89,1.97-1.22s1.7-.39,2.19-.59c2.33-.92-5.74-.84-.88-3.37,3.08-1.6,4.3-.32,7.41-1.89,2.5-1.26,10.1-6.83,6.48-7.2-1.16-.12-3.38.59-4.92.36-2.93-.43-1.71-2.45-6.04-2.45-3.92,0-5.02-1.2-6.01-6.38-.64-3.34-1.22-8.56-1.8-13.78-1.31.14-2.63.28-4.28-.84-4.97-3.35-5.58-8.72-5.42-14.49-8.8-.68-8.66-1.87-11.13-2.2-1.26-.16-2.45.24-4.17-.62-1.73-.86-3.99-2.98-6.26-5.11l-17.95,16.97-.09,15.42c.67.7,1.34,1.41,2.86,1.81,1.52.41,3.88.52,5.27,1.18,1.39.66,3.41,4.62,9.35,1.68,2.12-1.05,3.85-2.95,5.72-3.41,4.27-1.05,6.07,3.6,6.41,3.81.63.4,1.95.24,2.57,1.02,1.33,1.67-.53,5.47,5.34,6.13h0Z"/>
          <path d="M214.84,109.89c-.92,0-1.77-.22-2.54-.65s-1.38-1.03-1.84-1.8-.68-1.64-.68-2.6.23-1.82.68-2.59c.45-.77,1.06-1.37,1.84-1.8s1.62-.65,2.54-.65,1.78.22,2.55.65c.77.43,1.37,1.03,1.82,1.8.45.77.67,1.63.67,2.59s-.22,1.84-.67,2.6c-.45.77-1.06,1.37-1.83,1.8-.77.43-1.62.65-2.54.65ZM214.84,108.06c.59,0,1.12-.13,1.57-.4.45-.27.8-.64,1.06-1.13.25-.48.38-1.05.38-1.7s-.13-1.22-.38-1.7c-.25-.49-.61-.86-1.06-1.12-.45-.26-.97-.4-1.57-.4s-1.12.13-1.57.4c-.46.26-.81.64-1.07,1.12-.25.48-.38,1.05-.38,1.7s.13,1.22.38,1.7c.25.49.61.86,1.07,1.13.46.27.98.4,1.57.4Z"/>
          <polygon id="_1_13" points="229.91 109.79 227.94 109.79 223.46 103.02 223.46 109.79 221.48 109.79 221.48 99.92 223.46 99.92 227.94 106.7 227.94 99.92 229.91 99.92 229.91 109.79"/>
          <polygon id="_2_14" points="238.71 99.93 238.71 101.49 236.08 101.49 236.08 109.79 234.1 109.79 234.1 101.49 231.48 101.49 231.48 99.93 238.71 99.93"/>
          <path id="_3_15" d="M246.33,107.91h-3.93l-.65,1.88h-2.08l3.54-9.87h2.3l3.54,9.87h-2.09l-.65-1.88h0ZM245.81,106.37l-1.44-4.17-1.44,4.17h2.88,0Z"/>
          <path id="_4_16" d="M255.61,109.79l-2.17-3.84h-.93v3.84h-1.98v-9.86h3.7c.76,0,1.41.13,1.95.4.54.27.94.63,1.21,1.09.27.46.4.97.4,1.53,0,.65-.19,1.24-.56,1.76s-.94.88-1.68,1.08l2.36,4h-2.29ZM252.51,104.48h1.65c.54,0,.94-.13,1.2-.4s.4-.63.4-1.09-.13-.82-.4-1.08-.66-.39-1.2-.39h-1.65v2.95h0Z"/>
          <polygon id="_5_17" points="261.7 99.93 261.7 109.79 259.72 109.79 259.72 99.93 261.7 99.93"/>
          <path id="_6_18" d="M268.36,109.89c-.92,0-1.77-.22-2.54-.65s-1.38-1.03-1.84-1.8-.68-1.64-.68-2.6.23-1.82.68-2.59c.45-.77,1.06-1.37,1.84-1.8s1.62-.65,2.54-.65,1.78.22,2.55.65c.77.43,1.37,1.03,1.82,1.8.45.77.67,1.63.67,2.59s-.22,1.84-.67,2.6c-.45.77-1.06,1.37-1.83,1.8-.77.43-1.62.65-2.54.65ZM268.36,108.06c.59,0,1.12-.13,1.57-.4.45-.27.8-.64,1.06-1.13.25-.48.38-1.05.38-1.7s-.13-1.22-.38-1.7c-.25-.49-.61-.86-1.06-1.12-.45-.26-.97-.4-1.57-.4s-1.12.13-1.57.4c-.46.26-.81.64-1.07,1.12-.25.48-.38,1.05-.38,1.7s.13,1.22.38,1.7c.25.49.61.86,1.07,1.13.46.27.98.4,1.57.4Z"/>
          <path id="_7_19" d="M289.65,102.98c0,.53-.12,1.02-.37,1.48-.25.46-.64.83-1.17,1.12-.53.28-1.2.42-2.01.42h-1.65v3.78h-1.98v-9.86h3.63c.76,0,1.41.13,1.95.4s.94.63,1.21,1.09c.27.46.4.98.4,1.57h0ZM286.01,104.45c.54,0,.94-.13,1.21-.4.27-.26.4-.62.4-1.07s-.13-.84-.4-1.09-.67-.39-1.21-.39h-1.57v2.95h1.57Z"/>
          <path id="_8_20" d="M296.27,109.79l-2.17-3.84h-.93v3.84h-1.98v-9.86h3.7c.76,0,1.41.13,1.95.4.54.27.94.63,1.21,1.09.27.46.4.97.4,1.53,0,.65-.19,1.24-.56,1.76s-.94.88-1.68,1.08l2.36,4h-2.29ZM293.16,104.48h1.65c.54,0,.94-.13,1.2-.4s.4-.63.4-1.09-.13-.82-.4-1.08-.66-.39-1.2-.39h-1.65v2.95h0Z"/>
          <path id="_9_21" d="M304.95,109.89c-.92,0-1.77-.22-2.54-.65-.77-.43-1.38-1.03-1.84-1.8s-.68-1.64-.68-2.6.23-1.82.68-2.59c.45-.77,1.06-1.37,1.84-1.8s1.62-.65,2.54-.65,1.78.22,2.55.65c.77.43,1.37,1.03,1.82,1.8.45.77.67,1.63.67,2.59s-.22,1.84-.67,2.6c-.45.77-1.06,1.37-1.83,1.8-.77.43-1.62.65-2.54.65ZM304.95,108.06c.59,0,1.12-.13,1.57-.4.45-.27.8-.64,1.06-1.13.25-.48.38-1.05.38-1.7s-.13-1.22-.38-1.7c-.25-.49-.61-.86-1.06-1.12-.45-.26-.97-.4-1.57-.4s-1.12.13-1.57.4c-.46.26-.81.64-1.07,1.12-.25.48-.38,1.05-.38,1.7s.13,1.22.38,1.7c.25.49.61.86,1.07,1.13.46.27.98.4,1.57.4Z"/>
          <path id="_10_22" d="M313.55,99.93v6.09c0,.67.17,1.18.52,1.53.35.35.84.53,1.47.53s1.13-.18,1.48-.53c.35-.35.52-.86.52-1.53v-6.09h1.99v6.09c0,.84-.18,1.55-.54,2.13-.36.58-.85,1.01-1.45,1.31s-1.28.44-2.03.44-1.4-.15-2-.44c-.6-.29-1.07-.73-1.42-1.31-.35-.58-.52-1.29-.52-2.13v-6.09h1.98,0Z"/>
          <path id="_11_23" d="M325.02,99.93c1.04,0,1.95.2,2.73.61.79.4,1.39.98,1.82,1.73.43.75.64,1.62.64,2.6s-.21,1.85-.64,2.59c-.43.74-1.04,1.31-1.82,1.72-.79.4-1.7.61-2.73.61h-3.45v-9.86h3.45ZM324.95,108.18c1.03,0,1.82-.29,2.39-.88s.85-1.39.85-2.43-.28-1.83-.85-2.41c-.56-.58-1.37-.88-2.4-.88h-1.4v6.59h1.4,0Z"/>
          <path d="M224.69,127.48l-1.61-2.8h-.88v2.8h-1.15v-7h2.42c.54,0,.99.09,1.36.28s.65.44.84.76c.18.32.28.67.28,1.06,0,.46-.13.87-.4,1.24-.26.37-.67.63-1.22.76l1.73,2.9h-1.37ZM222.2,123.78h1.27c.43,0,.75-.11.97-.32.22-.21.33-.51.33-.88s-.11-.67-.32-.88c-.21-.21-.54-.32-.98-.32h-1.27v2.4h0Z"/>
          <path id="_1_24" d="M229.93,127.57c-.52,0-1-.12-1.42-.36-.42-.24-.76-.57-1-1.01-.24-.43-.36-.94-.36-1.51s.12-1.06.37-1.5c.25-.44.59-.77,1.02-1.01.43-.23.91-.35,1.44-.35s1.01.12,1.44.35.77.57,1.02,1.01c.25.44.37.94.37,1.5s-.13,1.06-.38,1.5c-.25.44-.6.77-1.04,1.01-.44.24-.93.36-1.46.36h0ZM229.93,126.61c.3,0,.57-.07.83-.22.26-.15.47-.36.63-.65s.24-.63.24-1.03-.08-.75-.23-1.03c-.15-.29-.36-.5-.61-.64-.25-.14-.53-.22-.83-.22s-.57.07-.82.22c-.25.14-.45.36-.6.64s-.23.63-.23,1.03.07.75.22,1.04.34.51.58.65c.25.14.52.22.81.22h0Z"/>
          <path id="_2_25" d="M236.47,127.57c-.52,0-1-.12-1.42-.36-.42-.24-.76-.57-1-1.01-.24-.43-.36-.94-.36-1.51s.12-1.06.37-1.5c.25-.44.59-.77,1.02-1.01.43-.23.91-.35,1.44-.35s1.01.12,1.44.35.77.57,1.02,1.01c.25.44.37.94.37,1.5s-.13,1.06-.38,1.5c-.25.44-.6.77-1.04,1.01-.44.24-.93.36-1.46.36h0ZM236.47,126.61c.3,0,.57-.07.83-.22.26-.15.47-.36.63-.65s.24-.63.24-1.03-.08-.75-.23-1.03c-.15-.29-.36-.5-.61-.64-.25-.14-.53-.22-.83-.22s-.57.07-.82.22c-.25.14-.45.36-.6.64s-.23.63-.23,1.03.07.75.22,1.04.34.51.58.65c.25.14.52.22.81.22h0Z"/>
          <path id="_3_26" d="M241.94,122.87v3.07c0,.21.05.36.15.45s.26.14.5.14h.7v.96h-.91c-.52,0-.91-.12-1.19-.36s-.41-.63-.41-1.18v-3.07h-.65v-.94h.65v-1.38h1.16v1.38h1.35v.94h-1.35Z"/>
          <path id="_4_27" d="M249.54,124.55c0,.19-.01.38-.04.54h-4.25c.03.46.2.83.49,1.1.3.27.66.41,1.1.41.62,0,1.05-.26,1.31-.78h1.24c-.17.51-.47.93-.91,1.25-.44.33-.99.49-1.64.49-.53,0-1.01-.12-1.42-.36-.42-.24-.75-.57-.99-1.01-.24-.43-.36-.94-.36-1.51s.12-1.07.35-1.51c.23-.43.56-.77.98-1,.42-.23.9-.35,1.45-.35s.99.11,1.4.34c.41.23.73.55.96.96.23.41.34.88.34,1.41h0ZM248.34,124.27c0-.45-.16-.81-.45-1.07-.29-.26-.66-.39-1.1-.39-.4,0-.75.13-1.03.39-.29.26-.45.62-.5,1.07h3.08Z"/>
          <path id="_5_28" d="M250.39,124.68c0-.56.12-1.05.35-1.48.23-.43.55-.76.95-1,.4-.24.84-.36,1.33-.36.36,0,.72.08,1.07.24.35.16.63.37.84.63v-2.68h1.16v7.45h-1.16v-.84c-.19.27-.45.49-.78.66-.33.17-.71.26-1.14.26-.48,0-.93-.12-1.32-.37-.4-.25-.71-.59-.95-1.03s-.35-.94-.35-1.5h0ZM254.94,124.7c0-.38-.08-.71-.24-1-.16-.28-.36-.5-.62-.64-.25-.15-.53-.22-.83-.22s-.57.07-.83.22c-.25.14-.46.36-.62.63-.16.28-.24.61-.24.99s.08.72.24,1.01.37.51.62.66c.26.15.53.23.82.23s.57-.07.83-.22c.25-.15.46-.36.62-.65.16-.29.24-.62.24-1h0Z"/>
          <path id="_6_29" d="M264.26,121.2c-.21,0-.38-.07-.52-.21s-.21-.32-.21-.52.07-.38.21-.52.32-.21.52-.21.37.07.51.21c.14.14.21.32.21.52s-.07.38-.21.52c-.14.14-.31.21-.51.21ZM264.82,121.93v5.55h-1.15v-5.55h1.15Z"/>
          <path id="_7_30" d="M269.24,121.84c.44,0,.83.09,1.17.27.35.18.62.45.81.81s.29.79.29,1.29v3.27h-1.14v-3.1c0-.5-.12-.88-.37-1.14-.25-.27-.59-.4-1.02-.4s-.77.13-1.02.4c-.25.26-.38.65-.38,1.14v3.1h-1.15v-5.55h1.15v.63c.19-.23.43-.41.72-.53s.6-.19.93-.19h0Z"/>
          <path id="_8_31" d="M282.24,127.55c-.65,0-1.25-.15-1.8-.46-.55-.31-.98-.73-1.3-1.28-.32-.55-.48-1.16-.48-1.85s.16-1.3.48-1.84c.32-.54.75-.97,1.3-1.27.55-.31,1.15-.46,1.8-.46s1.26.15,1.81.46.98.73,1.29,1.27c.32.54.47,1.16.47,1.84s-.16,1.3-.47,1.85c-.32.55-.75.97-1.29,1.28-.55.31-1.15.46-1.81.46ZM282.24,126.52c.46,0,.88-.11,1.24-.32.36-.21.65-.51.85-.9s.31-.83.31-1.33-.1-.95-.31-1.33c-.21-.38-.49-.68-.85-.89-.36-.21-.78-.31-1.24-.31s-.88.1-1.24.31c-.36.21-.65.5-.85.89-.2.38-.31.83-.31,1.33s.1.95.31,1.33c.21.39.49.68.85.9s.78.32,1.24.32Z"/>
          <path id="_9_32" d="M289.85,121.84c.44,0,.83.09,1.17.27.35.18.62.45.81.81s.29.79.29,1.29v3.27h-1.14v-3.1c0-.5-.12-.88-.37-1.14-.25-.27-.59-.4-1.02-.4s-.77.13-1.02.4c-.25.26-.38.65-.38,1.14v3.1h-1.15v-5.55h1.15v.63c.19-.23.43-.41.72-.53s.6-.19.93-.19h0Z"/>
          <path id="_10_33" d="M295.03,122.87v3.07c0,.21.05.36.15.45.1.09.26.14.5.14h.7v.96h-.91c-.52,0-.91-.12-1.19-.36s-.41-.63-.41-1.18v-3.07h-.65v-.94h.65v-1.38h1.16v1.38h1.35v.94h-1.35Z"/>
          <path id="_11_34" d="M297.17,124.68c0-.56.12-1.05.35-1.48.23-.43.55-.76.95-1s.84-.36,1.32-.36c.44,0,.82.09,1.14.26.33.17.59.38.78.64v-.81h1.16v5.55h-1.16v-.83c-.19.26-.46.48-.8.65-.34.17-.72.26-1.15.26-.48,0-.91-.12-1.31-.37-.4-.25-.71-.59-.94-1.03s-.35-.94-.35-1.5ZM301.71,124.7c0-.38-.08-.71-.24-1-.16-.28-.36-.5-.62-.64-.25-.15-.53-.22-.83-.22s-.57.07-.83.22c-.25.14-.46.36-.62.63-.16.28-.24.61-.24.99s.08.72.24,1.01.37.51.62.66.53.23.82.23.57-.07.83-.22c.25-.15.46-.36.62-.65s.24-.62.24-1h0Z"/>
          <path id="_12_35" d="M305.64,122.9c.17-.34.39-.6.67-.78.28-.19.61-.28.99-.28v1.19h-.29c-.45,0-.79.11-1.02.34s-.35.62-.35,1.19v2.92h-1.15v-5.55h1.15v.97h0Z"/>
          <path id="_13_36" d="M309.05,121.2c-.21,0-.38-.07-.52-.21s-.21-.32-.21-.52.07-.38.21-.52.32-.21.52-.21.37.07.51.21c.14.14.21.32.21.52s-.07.38-.21.52c-.14.14-.31.21-.51.21ZM309.61,121.93v5.55h-1.15v-5.55h1.15Z"/>
          <path id="_14_37" d="M313.64,127.57c-.52,0-1-.12-1.42-.36-.42-.24-.76-.57-1-1.01-.24-.43-.36-.94-.36-1.51s.12-1.06.37-1.5c.25-.44.59-.77,1.02-1.01.43-.23.91-.35,1.44-.35s1.01.12,1.44.35.77.57,1.02,1.01c.25.44.37.94.37,1.5s-.13,1.06-.38,1.5c-.25.44-.6.77-1.04,1.01s-.93.36-1.46.36h0ZM313.64,126.61c.3,0,.57-.07.83-.22.26-.15.47-.36.63-.65s.24-.63.24-1.03-.08-.75-.23-1.03c-.15-.29-.36-.5-.61-.64-.25-.14-.53-.22-.83-.22s-.57.07-.82.22c-.25.14-.45.36-.6.64-.15.29-.23.63-.23,1.03s.07.75.22,1.04.34.51.58.65c.25.14.52.22.81.22h0Z"/>
          <path id="_15_38" d="M318.23,127.55c-.21,0-.38-.07-.52-.21s-.21-.32-.21-.52.07-.38.21-.52.32-.21.52-.21.37.07.51.21c.14.14.21.32.21.52s-.07.38-.21.52c-.14.14-.31.21-.51.21Z"/>
          <path id="_16_39" d="M214.56,136.05v4.44c0,.53.14.93.42,1.2.28.27.67.4,1.16.4s.89-.13,1.17-.4c.28-.27.42-.67.42-1.2v-4.44h1.15v4.44c0,.57-.12,1.05-.37,1.45s-.58.69-1,.89c-.42.19-.88.29-1.38.29s-.96-.1-1.37-.29c-.41-.19-.74-.49-.98-.89-.24-.4-.36-.88-.36-1.45v-4.44h1.15Z"/>
          <path id="_17_40" d="M223.28,137.41c.44,0,.83.09,1.17.27.35.18.62.45.81.81s.29.79.29,1.29v3.27h-1.14v-3.1c0-.5-.12-.88-.37-1.14-.25-.27-.59-.4-1.02-.4s-.77.13-1.02.4c-.25.26-.38.65-.38,1.14v3.1h-1.15v-5.55h1.15v.63c.19-.23.43-.41.72-.53s.6-.19.93-.19h0Z"/>
          <path id="_18_41" d="M227.71,136.76c-.21,0-.38-.07-.52-.21s-.21-.32-.21-.52.07-.38.21-.52.32-.21.52-.21.37.07.51.21c.14.14.21.32.21.52s-.07.38-.21.52c-.14.14-.31.21-.51.21ZM228.28,137.5v5.55h-1.15v-5.55h1.15Z"/>
          <path id="_19_42" d="M231.24,138.43v3.07c0,.21.05.36.15.45s.26.14.5.14h.7v.96h-.91c-.52,0-.91-.12-1.19-.36s-.41-.63-.41-1.18v-3.07h-.65v-.94h.65v-1.38h1.16v1.38h1.35v.94h-1.35Z"/>
          <path id="_20_43" d="M238.84,140.11c0,.19-.01.38-.04.54h-4.25c.03.46.2.83.49,1.1.3.27.66.41,1.1.41.62,0,1.05-.26,1.31-.78h1.24c-.17.51-.47.93-.91,1.25-.44.33-.99.49-1.64.49-.53,0-1.01-.12-1.42-.36-.42-.24-.75-.57-.99-1.01-.24-.43-.36-.94-.36-1.51s.12-1.07.35-1.51c.23-.43.56-.77.98-1,.42-.23.9-.35,1.45-.35s.99.11,1.4.34c.41.23.73.55.96.96.23.41.34.88.34,1.41h0ZM237.64,139.83c0-.45-.16-.81-.45-1.07-.29-.26-.66-.39-1.1-.39-.4,0-.75.13-1.03.39-.29.26-.45.62-.5,1.07h3.08Z"/>
          <path id="_21_44" d="M239.7,140.25c0-.56.12-1.05.35-1.48.23-.43.55-.76.95-1,.4-.24.84-.36,1.33-.36.36,0,.72.08,1.07.24.35.16.63.37.84.63v-2.68h1.16v7.45h-1.16v-.84c-.19.27-.45.49-.78.66-.33.17-.71.26-1.14.26-.48,0-.93-.12-1.32-.37-.4-.25-.71-.59-.95-1.03s-.35-.94-.35-1.5h0ZM244.24,140.27c0-.38-.08-.71-.24-1-.16-.28-.36-.5-.62-.64-.25-.15-.53-.22-.83-.22s-.57.07-.83.22c-.25.14-.46.36-.62.63-.16.28-.24.61-.24.99s.08.72.24,1.01.37.51.62.66c.26.15.53.23.82.23s.57-.07.83-.22c.25-.15.46-.36.62-.65.16-.29.24-.62.24-1h0Z"/>
          <path id="_22_45" d="M254.12,138.32c.19-.27.46-.49.8-.66.34-.17.72-.26,1.13-.26.49,0,.93.12,1.33.35s.71.57.94,1c.23.43.34.93.34,1.49s-.11,1.06-.34,1.5c-.23.44-.54.78-.94,1.03-.4.24-.84.37-1.32.37-.43,0-.81-.08-1.14-.25-.33-.17-.6-.38-.79-.64v.81h-1.15v-7.45h1.15v2.73h0ZM257.5,140.25c0-.38-.08-.71-.24-.99-.16-.28-.37-.49-.62-.63-.26-.14-.53-.22-.83-.22s-.56.07-.82.22c-.26.15-.47.36-.62.64-.16.28-.24.61-.24,1s.08.72.24,1c.16.29.37.5.62.65.26.15.53.22.82.22s.57-.08.83-.23.47-.37.62-.66.24-.62.24-1.01h0Z"/>
          <polygon id="_23_46" points="260.54 137.5 262.1 141.73 263.72 137.5 264.91 137.5 261.5 145.65 260.31 145.65 261.44 142.95 259.26 137.5 260.54 137.5"/>
          <path id="_24_47" d="M273.18,138.43v3.07c0,.21.05.36.15.45s.26.14.5.14h.7v.96h-.91c-.52,0-.91-.12-1.19-.36s-.41-.63-.41-1.18v-3.07h-.65v-.94h.65v-1.38h1.16v1.38h1.35v.94h-1.35Z"/>
          <path id="_25_48" d="M278.57,137.41c.42,0,.8.09,1.13.27.33.18.59.45.79.81.19.36.29.79.29,1.29v3.27h-1.14v-3.1c0-.5-.12-.88-.37-1.14-.25-.27-.59-.4-1.02-.4s-.77.13-1.02.4c-.25.26-.38.65-.38,1.14v3.1h-1.15v-7.45h1.15v2.55c.19-.23.44-.42.74-.54.3-.13.63-.19.98-.19h0Z"/>
          <path id="_26_49" d="M287.43,140.11c0,.19-.01.38-.04.54h-4.25c.03.46.2.83.49,1.1.3.27.66.41,1.1.41.62,0,1.05-.26,1.31-.78h1.24c-.17.51-.47.93-.91,1.25-.44.33-.99.49-1.64.49-.53,0-1.01-.12-1.42-.36-.42-.24-.75-.57-.99-1.01-.24-.43-.36-.94-.36-1.51s.12-1.07.35-1.51c.23-.43.56-.77.98-1,.42-.23.9-.35,1.45-.35s.99.11,1.4.34c.41.23.73.55.96.96.23.41.34.88.34,1.41h0ZM286.23,139.83c0-.45-.16-.81-.45-1.07-.29-.26-.66-.39-1.1-.39-.4,0-.75.13-1.03.39-.29.26-.45.62-.5,1.07h3.08Z"/>
          <path id="_27_50" d="M296.86,137.41c.43,0,.81.09,1.14.26.33.17.59.38.78.64v-.81h1.16v5.64c0,.51-.11.97-.32,1.36-.21.4-.53.71-.93.94-.41.23-.89.34-1.46.34-.75,0-1.38-.18-1.87-.53-.5-.35-.78-.83-.85-1.43h1.14c.09.29.27.52.56.7s.63.27,1.02.27c.46,0,.84-.14,1.12-.42s.43-.69.43-1.23v-.93c-.19.26-.46.48-.79.66-.33.18-.71.27-1.13.27-.48,0-.93-.12-1.32-.37-.4-.25-.71-.59-.95-1.03s-.35-.94-.35-1.5.12-1.05.35-1.48c.23-.43.55-.76.95-1s.84-.36,1.32-.36h0ZM298.78,140.27c0-.38-.08-.71-.24-1-.16-.28-.36-.5-.62-.64-.25-.15-.53-.22-.83-.22s-.57.07-.83.22c-.25.14-.46.36-.62.63-.16.28-.24.61-.24.99s.08.72.24,1.01.37.51.62.66.53.23.82.23.57-.07.83-.22c.25-.15.46-.36.62-.65s.24-.62.24-1h0Z"/>
          <path id="_28_51" d="M301.18,140.25c0-.56.12-1.05.35-1.48.23-.43.55-.76.95-1s.84-.36,1.32-.36c.44,0,.82.09,1.14.26.33.17.59.38.78.64v-.81h1.16v5.55h-1.16v-.83c-.19.26-.46.48-.8.65-.34.17-.72.26-1.15.26-.48,0-.91-.12-1.31-.37-.4-.25-.71-.59-.94-1.03s-.35-.94-.35-1.5ZM305.72,140.27c0-.38-.08-.71-.24-1-.16-.28-.36-.5-.62-.64-.25-.15-.53-.22-.83-.22s-.57.07-.83.22c-.25.14-.46.36-.62.63-.16.28-.24.61-.24.99s.08.72.24,1.01.37.51.62.66.53.23.82.23.57-.07.83-.22c.25-.15.46-.36.62-.65s.24-.62.24-1h0Z"/>
          <path id="_29_52" d="M315.22,137.41c.44,0,.83.09,1.17.27.35.18.62.45.82.81s.3.79.3,1.29v3.27h-1.14v-3.1c0-.5-.12-.88-.37-1.14-.25-.27-.59-.4-1.02-.4s-.77.13-1.02.4c-.25.26-.38.65-.38,1.14v3.1h-1.14v-3.1c0-.5-.12-.88-.37-1.14-.25-.27-.59-.4-1.02-.4s-.77.13-1.02.4c-.25.26-.38.65-.38,1.14v3.1h-1.15v-5.55h1.15v.63c.19-.23.43-.41.71-.53.29-.13.6-.19.93-.19.44,0,.84.09,1.19.28.35.19.62.46.81.82.17-.34.43-.6.79-.8s.74-.3,1.15-.3h0Z"/>
          <path id="_30_53" d="M324.16,140.11c0,.19-.01.38-.04.54h-4.25c.03.46.2.83.49,1.1.3.27.66.41,1.1.41.62,0,1.05-.26,1.31-.78h1.24c-.17.51-.47.93-.91,1.25-.44.33-.99.49-1.64.49-.53,0-1.01-.12-1.42-.36-.42-.24-.75-.57-.99-1.01-.24-.43-.36-.94-.36-1.51s.12-1.07.35-1.51c.23-.43.56-.77.98-1,.42-.23.9-.35,1.45-.35s.99.11,1.4.34c.41.23.73.55.96.96.23.41.34.88.34,1.41h0ZM322.96,139.83c0-.45-.16-.81-.45-1.07-.29-.26-.66-.39-1.1-.39-.4,0-.75.13-1.03.39-.29.26-.45.62-.5,1.07h3.08Z"/>
          <path id="_31_54" d="M325.86,143.12c-.21,0-.38-.07-.52-.21s-.21-.32-.21-.52.07-.38.21-.52.32-.21.52-.21.37.07.51.21c.14.14.21.32.21.52s-.07.38-.21.52c-.14.14-.31.21-.51.21Z"/>
        </g>
        <g>
          <path d="M421.35,40.1c.4-.3.65-.88,1.21-.91.44-.06.68.38.97.64,2.87,2.86,5.71,5.75,8.58,8.61,1.41,1.43,2.88,2.81,4.28,4.25,1.13-1.13,2.25-2.26,3.4-3.37.79-.81,1.52.49,2.47,1.36.51.4-.38,1.07-.63,1.34,1.39,1.33,2.88,2.56,4.26,3.91.87.83,11.82,11.3,12.16,11.77.29.53.04.92-.31,1.28-.64.65-1.28,1.28-1.95,1.89-.28-.25-.6-.49-.8-.81-.46-.73-13.45-14.4-15.16-16.24-.25-.28-.67.32-1.18.81-.29.29-.62.59-.68,1.01-.08.4.22.76.55.93.49.12.6-.48,1.44.31,1.56,1.51,3.05,3.08,4.58,4.61,2.94,3.14,5.88,6.27,8.83,9.4.71.76-.34,1.75-.83,2.25-.83.77-1.63,1.57-2.44,2.37-.4.39-.93.97-1.48.41-.91-.88-1.82-1.78-2.75-2.64-1.71,1.16-4.11,4.62-5.47,6.27-2.27,2.84-4.49,5.72-6.71,8.6-.44.58-.83.81-1.41.23-1.95-1.87-3.91-3.73-5.87-5.59-1.02-.88-.21-1.51.22-1.9.65-.58,1.31-1.14,1.98-1.7,2.59-2.21,6.5-6.11,9.09-8.61.24-.23.68-.26.92,0,1.1,1.12,2.22,2.22,3.34,3.32.11.13.27.23.45.17.34-.27.63-.59.87-.95-.75-1.03-3.92-3.79-5.06-5.02-.32-.36-.84-.17-1.13.13-2.16,2.07-4.34,4.11-6.43,6.26-.19.25-.62.34-.83.06-.6-.8-1.21-1.58-1.84-2.35-.17-.16-.12-.4-.13-.61,2.87-2.83,5.76-5.64,8.4-8.69.47-.51.9-1.07,1.42-1.53-1.27-1.09-3.19-3.15-4.38-4.5-.71-.8.55-1.68,1.05-2.19-4.36-4.39-8.63-8.89-13.01-13.26-.42-.3-.4-1,0-1.3h0ZM459.11,69.6c.35-.08.79-.14,1.05.17,2.39,2.28,4.82,4.51,7.19,6.81,1.94,1.81,3.57,3.06,5.51,4.73.95.82-.13,1.62-.41,1.91-1.7,1.71-3.4,3.41-5.1,5.12-.77.79-1.22.12-1.56-.27-3.82-4.42-7.23-8.58-11.29-12.84-.35-.39-.76-.73-1.06-1.16.53-.62,1.34-1.08,1.54-1.93.36.31.65.69,1.03.98,0-.21,2.55-3.09,3.11-3.53h0ZM462.77,80.77c.21.38,1.98,2.26,2.35,2.66.67.72,1.14.29,1.73-.28.53-.55,1.1-1.06,1.59-1.64-.27-.42-.67-.73-1.05-1.05-.9.38-1.33.59-1.83.07.27-.21.54-.41.78-.65-.19-.16-.36-.4-.64-.39-.68-.02-1.36,0-2.04,0-.63-.03-1.17.71-.9,1.3h0ZM476.44,39.47c.89-.83,1.07-.9,1.97.09.18.2.95.89.3,1.47-2.31,2.19-4.56,4.44-6.84,6.66-2.34,2.22-4.63,4.49-6.96,6.72.74.81,1.63,1.3.55,2.31-1.5,1.48-2.92,3.03-4.38,4.56,1.15,1.27,2.21,2.63,3.39,3.88,1.96,2.17,4.05,4.21,6.16,6.22.26.2.21.63,0,.85-.61.76-1.22,1.52-1.8,2.29-.15.23-.53.29-.72.09-2.11-2.32-4.39-4.47-6.6-6.7-.75-.74-.94-.39-1.65.13-.53-.7-.16-1.03-1.11-1.95-1.57-1.56-3.11-3.15-4.65-4.73-.06-.15-.09-.37.04-.49.93-.91,1.83-1.83,2.76-2.73.13.05.25.11.38.16,1.18-.97,11.29-11.24,11.36-11.34-.25-.29-.88-1.09-1.21-1.19-.31.19-.56.45-.8.71.04.1.09.19.13.29-.97,1.02-2,1.97-2.98,2.97-.74.74-4.76,4.92-5.26,5.27-.14.11-4.64,4.46-5.08,4.94-.11.13-.28.19-.44.23-.69-.62-1.36-1.27-2.02-1.91.02-.15-.04-.35.09-.46,4.09-3.9,8.24-7.71,12.32-11.62.37-.33.7-.7,1.1-1-.34-.46-1.33-1.07-.84-1.52.8-.8,1.64-1.56,2.46-2.36.27-.28.76-.27,1.01.02,1.19,1.18,2.42,2.32,3.61,3.51,1.89-1.8,3.79-3.58,5.7-5.36h0ZM438.25,61.67c.33.45,3.52,3.79,3.93,4.2.37.37,4.58,4.2,5.05,4.49-.5-.66-2.75-2.9-3.62-3.88-1.37-1.54-3.11-2.75-4.57-4.2-.23-.24-.5-.43-.78-.61h0ZM431.38,79.59c-1.72,1.27-.65,1.92.79,3.36,1.16,1.14,2.12,1.21,3.04-.23.87-1.36,2.15-2.2.81-3.12-.28-.2-.63-.09-.94-.04,0,.56.02,1.14.24,1.66-1.61,1.18-3.1-2.36-3.95-1.62h0Z"/>
          <path d="M400.25,100.44c0,.53-.12,1.02-.37,1.48-.25.46-.64.83-1.17,1.12-.53.28-1.2.42-2.01.42h-1.65v3.78h-1.98v-9.86h3.63c.76,0,1.41.13,1.95.4s.94.63,1.21,1.09c.27.46.4.98.4,1.57h0ZM396.61,101.91c.54,0,.94-.13,1.21-.4.27-.26.4-.62.4-1.07s-.13-.84-.4-1.09-.67-.39-1.21-.39h-1.57v2.95h1.57Z"/>
          <polygon id="_1_55" points="403.77 105.74 407.01 105.74 407.01 107.25 401.79 107.25 401.79 97.39 403.77 97.39 403.77 105.74"/>
          <path id="_2_56" d="M414.45,105.37h-3.93l-.65,1.88h-2.08l3.54-9.87h2.3l3.54,9.87h-2.09l-.65-1.88h0ZM413.93,103.83l-1.44-4.17-1.44,4.17h2.88,0Z"/>
          <polygon id="_3_57" points="426.49 97.39 423.16 103.82 423.16 107.25 421.18 107.25 421.18 103.82 417.83 97.39 420.07 97.39 422.17 101.88 424.26 97.39 426.49 97.39"/>
          <polygon id="_4_58" points="441.94 97.39 441.94 98.94 439.31 98.94 439.31 107.25 437.34 107.25 437.34 98.94 434.71 98.94 434.71 97.39 441.94 97.39"/>
          <path id="_5_59" d="M448.09,107.35c-.92,0-1.77-.22-2.54-.65-.77-.43-1.38-1.03-1.84-1.8s-.68-1.64-.68-2.6.23-1.82.68-2.59c.45-.77,1.06-1.37,1.84-1.8s1.62-.65,2.54-.65,1.78.22,2.55.65c.77.43,1.37,1.03,1.82,1.8.45.77.67,1.63.67,2.59s-.22,1.84-.67,2.6c-.45.77-1.06,1.37-1.83,1.8-.77.43-1.62.65-2.54.65ZM448.09,105.52c.59,0,1.12-.13,1.57-.4.45-.27.8-.64,1.06-1.13.25-.48.38-1.05.38-1.7s-.13-1.22-.38-1.7c-.25-.49-.61-.86-1.06-1.12-.45-.26-.97-.4-1.57-.4s-1.12.13-1.57.4c-.46.26-.81.64-1.07,1.12-.25.48-.38,1.05-.38,1.7s.13,1.22.38,1.7c.25.49.61.86,1.07,1.13.46.27.98.4,1.57.4Z"/>
          <path id="_6_60" d="M454.26,102.3c0-.97.22-1.84.66-2.61.44-.77,1.04-1.37,1.81-1.79.77-.43,1.62-.64,2.56-.64,1.11,0,2.08.27,2.89.81s1.38,1.3,1.69,2.28h-2.27c-.23-.41-.54-.73-.93-.95-.4-.22-.86-.32-1.38-.32-.58,0-1.1.13-1.55.4-.45.26-.8.64-1.06,1.13-.25.49-.38,1.05-.38,1.69s.13,1.23.39,1.72c.26.49.62.87,1.08,1.13.46.26,1,.4,1.61.4.75,0,1.37-.2,1.86-.61s.8-.96.94-1.68h-3.39v-1.5h5.34v1.72c-.13.69-.41,1.32-.85,1.91-.43.58-.99,1.05-1.67,1.4-.68.35-1.45.53-2.29.53-.95,0-1.81-.21-2.58-.64-.77-.43-1.37-1.02-1.81-1.79-.44-.76-.66-1.63-.66-2.6h0Z"/>
          <polygon id="_7_61" points="467.7 98.93 467.7 101.49 471.02 101.49 471.02 103.01 467.7 103.01 467.7 105.68 471.44 105.68 471.44 107.25 465.72 107.25 465.72 97.38 471.44 97.38 471.44 98.93 467.7 98.93"/>
          <polygon id="_8_62" points="480.08 97.39 480.08 98.94 477.45 98.94 477.45 107.25 475.47 107.25 475.47 98.94 472.85 98.94 472.85 97.39 480.08 97.39"/>
          <polygon id="_9_63" points="489.83 97.39 489.83 107.25 487.85 107.25 487.85 103.02 483.63 103.02 483.63 107.25 481.65 107.25 481.65 97.39 483.63 97.39 483.63 101.47 487.85 101.47 487.85 97.39 489.83 97.39"/>
          <polygon id="_10_64" points="493.89 98.93 493.89 101.49 497.21 101.49 497.21 103.01 493.89 103.01 493.89 105.68 497.63 105.68 497.63 107.25 491.91 107.25 491.91 97.38 497.63 97.38 497.63 98.93 493.89 98.93"/>
          <path id="_11_65" d="M504.65,107.25l-2.17-3.84h-.93v3.84h-1.98v-9.86h3.7c.76,0,1.41.13,1.95.4.54.27.94.63,1.21,1.09.27.46.4.97.4,1.53,0,.65-.19,1.24-.56,1.76s-.94.88-1.68,1.08l2.36,4h-2.29ZM501.54,101.94h1.65c.54,0,.94-.13,1.2-.4s.4-.63.4-1.09-.13-.82-.4-1.08-.66-.39-1.2-.39h-1.65v2.95h0Z"/>
          <path d="M403.72,120.6c0,.36-.08.69-.25,1.01s-.44.57-.81.77-.84.3-1.42.3h-1.27v2.84h-1.15v-7h2.42c.54,0,.99.09,1.36.28.37.19.65.43.84.75.18.32.28.67.28,1.06ZM401.25,121.78c.44,0,.76-.1.98-.31.21-.21.32-.5.32-.87s-.11-.67-.32-.88c-.21-.21-.54-.31-.98-.31h-1.27v2.37h1.27Z"/>
          <path id="_1_66" d="M404.55,122.71c0-.56.12-1.05.35-1.48.23-.43.55-.76.95-1s.84-.36,1.32-.36c.44,0,.82.09,1.14.26.33.17.59.38.78.64v-.81h1.16v5.55h-1.16v-.83c-.19.26-.46.48-.8.65-.34.17-.72.26-1.15.26-.48,0-.91-.12-1.31-.37-.4-.25-.71-.59-.94-1.03s-.35-.94-.35-1.5ZM409.09,122.73c0-.38-.08-.71-.24-1-.16-.28-.36-.5-.62-.64-.25-.15-.53-.22-.83-.22s-.57.07-.83.22c-.25.14-.46.36-.62.63-.16.28-.24.61-.24.99s.08.72.24,1.01.37.51.62.66.53.23.82.23.57-.07.83-.22c.25-.15.46-.36.62-.65s.24-.62.24-1h0Z"/>
          <path id="_2_67" d="M412.45,119.23c-.21,0-.38-.07-.52-.21s-.21-.32-.21-.52.07-.38.21-.52.32-.21.52-.21.37.07.51.21c.14.14.21.32.21.52s-.07.38-.21.52c-.14.14-.31.21-.51.21ZM413.02,119.96v5.55h-1.15v-5.55h1.15Z"/>
          <path id="_3_68" d="M417.44,119.87c.44,0,.83.09,1.17.27.35.18.62.45.81.81.19.36.29.79.29,1.29v3.27h-1.14v-3.1c0-.5-.12-.88-.37-1.14-.25-.27-.59-.4-1.02-.4s-.77.13-1.02.4c-.25.26-.38.65-.38,1.14v3.1h-1.15v-5.55h1.15v.63c.19-.23.43-.41.72-.53s.6-.19.93-.19h0Z"/>
          <path id="_4_69" d="M422.62,120.9v3.07c0,.21.05.36.15.45.1.09.26.14.5.14h.7v.96h-.91c-.52,0-.91-.12-1.19-.36s-.41-.63-.41-1.18v-3.07h-.65v-.94h.65v-1.38h1.16v1.38h1.35v.94h-1.35Z"/>
          <path id="_5_70" d="M426.29,120.79c.19-.27.46-.49.8-.66s.72-.26,1.13-.26c.49,0,.93.12,1.33.35s.71.57.94,1c.23.43.34.93.34,1.49s-.11,1.06-.34,1.5c-.23.44-.54.78-.94,1.03-.4.24-.84.37-1.32.37-.43,0-.81-.08-1.14-.25-.33-.17-.6-.38-.79-.64v.81h-1.15v-7.45h1.15s0,2.73,0,2.73ZM429.66,122.71c0-.38-.08-.71-.24-.99-.16-.28-.37-.49-.62-.63s-.53-.22-.83-.22-.56.07-.82.22c-.26.15-.47.36-.62.64-.16.28-.24.61-.24,1s.08.72.24,1c.16.29.37.5.62.65s.53.22.82.22.57-.08.83-.23.47-.37.62-.66.24-.62.24-1.01h0Z"/>
          <path id="_6_71" d="M431.69,122.71c0-.56.12-1.05.35-1.48.23-.43.55-.76.95-1s.84-.36,1.32-.36c.44,0,.82.09,1.14.26.33.17.59.38.78.64v-.81h1.16v5.55h-1.16v-.83c-.19.26-.46.48-.8.65-.34.17-.72.26-1.15.26-.48,0-.91-.12-1.31-.37-.4-.25-.71-.59-.94-1.03s-.35-.94-.35-1.5ZM436.24,122.73c0-.38-.08-.71-.24-1-.16-.28-.36-.5-.62-.64-.25-.15-.53-.22-.83-.22s-.57.07-.83.22c-.25.14-.46.36-.62.63-.16.28-.24.61-.24.99s.08.72.24,1.01.37.51.62.66.53.23.82.23.57-.07.83-.22c.25-.15.46-.36.62-.65s.24-.62.24-1h0Z"/>
          <polygon id="_7_72" points="440.16 118.06 440.16 125.51 439.01 125.51 439.01 118.06 440.16 118.06"/>
          <polygon id="_8_73" points="442.93 118.06 442.93 125.51 441.78 125.51 441.78 118.06 442.93 118.06"/>
          <path id="_9_74" d="M452.92,125.6c-.52,0-1-.12-1.42-.36-.42-.24-.76-.57-1-1.01-.24-.43-.36-.94-.36-1.51s.12-1.06.37-1.5c.25-.44.59-.77,1.02-1.01.43-.23.91-.35,1.44-.35s1.01.12,1.44.35.77.57,1.02,1.01c.25.44.37.94.37,1.5s-.13,1.06-.38,1.5c-.25.44-.6.77-1.04,1.01s-.93.36-1.46.36h0ZM452.92,124.64c.3,0,.57-.07.83-.22.26-.15.47-.36.63-.65s.24-.63.24-1.03-.08-.75-.23-1.03c-.15-.29-.36-.5-.61-.64-.25-.14-.53-.22-.83-.22s-.57.07-.82.22c-.25.14-.45.36-.6.64-.15.29-.23.63-.23,1.03s.07.75.22,1.04.34.51.58.65c.25.14.52.22.81.22h0Z"/>
          <path id="_10_75" d="M458.19,120.93c.17-.34.39-.6.67-.78.28-.19.61-.28.99-.28v1.19h-.29c-.45,0-.79.11-1.02.34s-.35.62-.35,1.19v2.92h-1.15v-5.55h1.15v.97h0Z"/>
          <path id="_11_76" d="M466.6,122.71c0-.56.12-1.05.35-1.48.23-.43.55-.76.95-1s.84-.36,1.32-.36c.44,0,.82.09,1.14.26.33.17.59.38.78.64v-.81h1.16v5.55h-1.16v-.83c-.19.26-.46.48-.8.65-.34.17-.72.26-1.15.26-.48,0-.91-.12-1.31-.37-.4-.25-.71-.59-.94-1.03s-.35-.94-.35-1.5ZM471.14,122.73c0-.38-.08-.71-.24-1-.16-.28-.36-.5-.62-.64-.25-.15-.53-.22-.83-.22s-.57.07-.83.22c-.25.14-.46.36-.62.63-.16.28-.24.61-.24.99s.08.72.24,1.01.37.51.62.66.53.23.82.23.57-.07.83-.22c.25-.15.46-.36.62-.65s.24-.62.24-1h0Z"/>
          <path id="_12_77" d="M474.5,119.23c-.21,0-.38-.07-.52-.21s-.21-.32-.21-.52.07-.38.21-.52.32-.21.52-.21.37.07.51.21c.14.14.21.32.21.52s-.07.38-.21.52c-.14.14-.31.21-.51.21ZM475.06,119.96v5.55h-1.15v-5.55h1.15Z"/>
          <path id="_13_78" d="M477.83,120.93c.17-.34.39-.6.67-.78.28-.19.61-.28.99-.28v1.19h-.29c-.45,0-.79.11-1.02.34s-.35.62-.35,1.19v2.92h-1.15v-5.55h1.15v.97h0Z"/>
          <path id="_14_79" d="M482.66,125.6c-.43,0-.82-.08-1.16-.24-.34-.16-.61-.37-.82-.64-.2-.27-.31-.58-.32-.91h1.19c.02.25.13.47.34.63.21.17.46.25.77.25s.57-.07.75-.2c.18-.13.27-.31.27-.53,0-.2-.1-.36-.3-.46-.2-.11-.51-.21-.94-.32-.41-.11-.74-.22-1-.33-.26-.1-.48-.26-.67-.48-.19-.22-.28-.5-.28-.85,0-.3.08-.58.25-.83s.41-.45.73-.6c.32-.15.69-.22,1.12-.22.63,0,1.14.16,1.53.48s.59.75.62,1.3h-1.15c-.02-.27-.12-.48-.3-.64-.18-.16-.43-.24-.74-.24s-.53.06-.69.19c-.16.12-.24.29-.24.5,0,.15.05.27.16.37s.24.18.4.24c.16.06.39.13.68.21.4.11.73.21.99.32.25.11.47.27.65.49s.27.5.27.85c0,.32-.08.6-.25.85s-.41.45-.73.59-.7.22-1.13.22h0Z"/>
          <path id="_15_80" d="M488.56,125.6c-.52,0-1-.12-1.42-.36-.42-.24-.76-.57-1-1.01-.24-.43-.36-.94-.36-1.51s.12-1.06.37-1.5c.25-.44.59-.77,1.02-1.01.43-.23.91-.35,1.44-.35s1.01.12,1.44.35.77.57,1.02,1.01c.25.44.37.94.37,1.5s-.13,1.06-.38,1.5c-.25.44-.6.77-1.04,1.01s-.93.36-1.46.36h0ZM488.56,124.64c.3,0,.57-.07.83-.22.26-.15.47-.36.63-.65s.24-.63.24-1.03-.08-.75-.23-1.03c-.15-.29-.36-.5-.61-.64-.25-.14-.53-.22-.83-.22s-.57.07-.82.22c-.25.14-.45.36-.6.64-.15.29-.23.63-.23,1.03s.07.75.22,1.04.34.51.58.65c.25.14.52.22.81.22h0Z"/>
          <path id="_16_81" d="M495.01,120.9h-1.03v4.61h-1.16v-4.61h-.65v-.94h.65v-.39c0-.64.17-1.1.51-1.39.34-.29.87-.44,1.6-.44v.96c-.35,0-.59.07-.74.2-.14.13-.21.36-.21.68v.39h1.03v.94h0Z"/>
          <path id="_17_82" d="M497.48,120.9v3.07c0,.21.05.36.15.45.1.09.26.14.5.14h.7v.96h-.91c-.52,0-.91-.12-1.19-.36s-.41-.63-.41-1.18v-3.07h-.65v-.94h.65v-1.38h1.16v1.38h1.35v.94h-1.35Z"/>
          <path id="_18_83" d="M500.46,125.58c-.21,0-.38-.07-.52-.21s-.21-.32-.21-.52.07-.38.21-.52.32-.21.52-.21.37.07.51.21c.14.14.21.32.21.52s-.07.38-.21.52c-.14.14-.31.21-.51.21Z"/>
          <path id="_19_84" d="M409.17,139.65h-2.93l-.5,1.43h-1.2l2.51-7.01h1.33l2.51,7.01h-1.21l-.5-1.43ZM408.86,138.75l-1.15-3.29-1.16,3.29h2.31Z"/>
          <polygon id="_20_85" points="413.23 133.62 413.23 141.08 412.08 141.08 412.08 133.62 413.23 133.62"/>
          <polygon id="_21_86" points="416 133.62 416 141.08 414.85 141.08 414.85 133.62 416 133.62"/>
          <path id="_22_87" d="M423.2,138.28c0-.56.12-1.05.35-1.48.23-.43.55-.76.95-1s.84-.36,1.32-.36c.44,0,.82.09,1.14.26.33.17.59.38.78.64v-.81h1.16v5.55h-1.16v-.83c-.19.26-.46.48-.8.65-.34.17-.72.26-1.15.26-.48,0-.91-.12-1.31-.37-.4-.25-.71-.59-.94-1.03s-.35-.94-.35-1.5ZM427.74,138.3c0-.38-.08-.71-.24-1-.16-.28-.36-.5-.62-.64-.25-.15-.53-.22-.83-.22s-.57.07-.83.22c-.25.14-.46.36-.62.63-.16.28-.24.61-.24.99s.08.72.24,1.01.37.51.62.66.53.23.82.23.57-.07.83-.22c.25-.15.46-.36.62-.65s.24-.62.24-1h0Z"/>
          <path id="_23_88" d="M431.66,136.49c.17-.34.39-.6.67-.78.28-.19.61-.28.99-.28v1.19h-.29c-.45,0-.79.11-1.02.34s-.35.62-.35,1.19v2.92h-1.15v-5.55h1.15v.97h0Z"/>
          <path id="_24_89" d="M439.58,138.15c0,.19-.01.38-.04.54h-4.25c.03.46.2.83.49,1.1.3.27.66.41,1.1.41.62,0,1.05-.26,1.31-.78h1.24c-.17.51-.47.93-.91,1.25-.44.33-.99.49-1.64.49-.53,0-1.01-.12-1.42-.36-.42-.24-.75-.57-.99-1.01-.24-.43-.36-.94-.36-1.51s.12-1.07.35-1.51c.23-.43.56-.77.98-1,.42-.23.9-.35,1.45-.35s.99.11,1.4.34c.41.23.73.55.96.96.23.41.34.88.34,1.41h0ZM438.38,137.86c0-.45-.16-.81-.45-1.07-.29-.26-.66-.39-1.1-.39-.4,0-.75.13-1.03.39-.29.26-.45.62-.5,1.07h3.08Z"/>
          <polygon id="_25_90" points="454.23 135.53 452.5 141.08 451.3 141.08 450.18 136.98 449.06 141.08 447.85 141.08 446.12 135.53 447.29 135.53 448.45 139.99 449.62 135.53 450.82 135.53 451.95 139.97 453.1 135.53 454.23 135.53"/>
          <path id="_26_91" d="M460.28,138.15c0,.19-.01.38-.04.54h-4.25c.03.46.2.83.49,1.1.3.27.66.41,1.1.41.62,0,1.05-.26,1.31-.78h1.24c-.17.51-.47.93-.91,1.25-.44.33-.99.49-1.64.49-.53,0-1.01-.12-1.42-.36-.42-.24-.75-.57-.99-1.01-.24-.43-.36-.94-.36-1.51s.12-1.07.35-1.51c.23-.43.56-.77.98-1,.42-.23.9-.35,1.45-.35s.99.11,1.4.34c.41.23.73.55.96.96.23.41.34.88.34,1.41h0ZM459.08,137.86c0-.45-.16-.81-.45-1.07-.29-.26-.66-.39-1.1-.39-.4,0-.75.13-1.03.39-.29.26-.45.62-.5,1.07h3.08Z"/>
          <polygon id="_27_92" points="462.66 133.62 462.66 141.08 461.52 141.08 461.52 133.62 462.66 133.62"/>
          <path id="_28_93" d="M463.9,138.3c0-.57.12-1.07.35-1.51.23-.43.55-.77.96-1,.41-.23.88-.35,1.41-.35.67,0,1.23.16,1.67.48s.74.77.89,1.37h-1.24c-.1-.28-.26-.49-.48-.64-.22-.15-.5-.23-.84-.23-.47,0-.84.17-1.12.5-.28.33-.42.8-.42,1.39s.14,1.06.42,1.4c.28.34.65.5,1.12.5.66,0,1.1-.29,1.32-.88h1.24c-.16.56-.46,1.01-.91,1.34-.44.33-.99.5-1.65.5-.53,0-1-.12-1.41-.36-.41-.24-.73-.57-.96-1.01-.23-.43-.35-.94-.35-1.51Z"/>
          <path id="_29_94" d="M472.84,141.17c-.52,0-1-.12-1.42-.36-.42-.24-.76-.57-1-1.01-.24-.43-.36-.94-.36-1.51s.12-1.06.37-1.5c.25-.44.59-.77,1.02-1.01.43-.23.91-.35,1.44-.35s1.01.12,1.44.35.77.57,1.02,1.01c.25.44.37.94.37,1.5s-.13,1.06-.38,1.5c-.25.44-.6.77-1.04,1.01s-.93.36-1.46.36h0ZM472.84,140.2c.3,0,.57-.07.83-.22.26-.15.47-.36.63-.65s.24-.63.24-1.03-.08-.75-.23-1.03c-.15-.29-.36-.5-.61-.64-.25-.14-.53-.22-.83-.22s-.57.07-.82.22c-.25.14-.45.36-.6.64-.15.29-.23.63-.23,1.03s.07.75.22,1.04.34.51.58.65c.25.14.52.22.81.22h0Z"/>
          <path id="_30_95" d="M483.69,135.44c.44,0,.83.09,1.17.27.35.18.62.45.82.81s.3.79.3,1.29v3.27h-1.14v-3.1c0-.5-.12-.88-.37-1.14-.25-.27-.59-.4-1.02-.4s-.77.13-1.02.4c-.25.26-.38.65-.38,1.14v3.1h-1.14v-3.1c0-.5-.12-.88-.37-1.14-.25-.27-.59-.4-1.02-.4s-.77.13-1.02.4c-.25.26-.38.65-.38,1.14v3.1h-1.15v-5.55h1.15v.63c.19-.23.43-.41.71-.53.29-.13.6-.19.93-.19.44,0,.84.09,1.19.28.35.19.62.46.81.82.17-.34.43-.6.79-.8s.74-.3,1.15-.3h0Z"/>
          <path id="_31_96" d="M492.63,138.15c0,.19-.01.38-.04.54h-4.25c.03.46.2.83.49,1.1.3.27.66.41,1.1.41.62,0,1.05-.26,1.31-.78h1.24c-.17.51-.47.93-.91,1.25-.44.33-.99.49-1.64.49-.53,0-1.01-.12-1.42-.36-.42-.24-.75-.57-.99-1.01-.24-.43-.36-.94-.36-1.51s.12-1.07.35-1.51c.23-.43.56-.77.98-1,.42-.23.9-.35,1.45-.35s.99.11,1.4.34c.41.23.73.55.96.96.23.41.34.88.34,1.41h0ZM491.43,137.86c0-.45-.16-.81-.45-1.07-.29-.26-.66-.39-1.1-.39-.4,0-.75.13-1.03.39-.29.26-.45.62-.5,1.07h3.08Z"/>
          <path id="_32_97" d="M494.33,141.15c-.21,0-.38-.07-.52-.21s-.21-.32-.21-.52.07-.38.21-.52.32-.21.52-.21.37.07.51.21c.14.14.21.32.21.52s-.07.38-.21.52c-.14.14-.31.21-.51.21Z"/>
        </g>
        <g>
          <path d="M630,41.56c5.89,0,11.23,2.39,15.09,6.25,3.86,3.86,6.25,9.2,6.25,15.09s-2.39,11.23-6.25,15.09c-3.2,3.2-7.4,5.38-12.1,6.04l-.16.22-.23-.17c-.85.1-1.72.16-2.6.16s-1.75-.05-2.6-.16l-.23.17-.16-.22c-4.7-.66-8.9-2.85-12.1-6.04-3.86-3.86-6.25-9.2-6.25-15.09s2.39-11.23,6.25-15.09c3.86-3.86,9.2-6.25,15.09-6.25h0ZM628.31,43.43c-2.42,2.7-4.25,5.4-5.56,8.09,2.12.6,4.24.94,6.35,1.01v-9.15c-.27.01-.53.03-.79.05ZM622.01,53.18c-1.19,2.94-1.76,5.88-1.78,8.82h8.86v-7.66c-2.36-.08-4.73-.46-7.09-1.15ZM620.29,63.8c.2,2.9.92,5.8,2.1,8.71,2.23-.62,4.47-.97,6.7-1.04v-7.66h-8.81ZM623.12,74.17c1.26,2.72,2.9,5.44,4.87,8.16.37.04.74.06,1.11.08v-9.15c-1.99.07-3.99.37-5.98.91h0ZM625.51,81.92c-1.64-2.4-3.02-4.81-4.12-7.22-1.67.57-3.35,1.3-5.02,2.19,2.49,2.43,5.64,4.2,9.14,5.03h0ZM620.68,73.04c-1.23-3.08-1.98-6.16-2.18-9.24h-8.01c.2,4.47,1.9,8.54,4.61,11.73,1.86-1.02,3.72-1.85,5.58-2.49h0ZM618.44,62c.02-3.13.61-6.25,1.85-9.37-1.73-.62-3.47-1.41-5.2-2.36-2.71,3.19-4.41,7.27-4.61,11.73h7.96ZM621.02,50.97c1.12-2.37,2.63-4.74,4.56-7.11-3.53.82-6.7,2.59-9.21,5.04,1.55.83,3.1,1.52,4.65,2.06ZM634.42,43.86c1.92,2.36,3.43,4.73,4.55,7.1,1.55-.55,3.1-1.23,4.66-2.06-2.51-2.45-5.68-4.22-9.21-5.04h0ZM639.7,52.62c1.25,3.12,1.84,6.25,1.86,9.38h7.96c-.2-4.47-1.9-8.54-4.61-11.74-1.73.95-3.47,1.74-5.2,2.35ZM641.5,63.8c-.2,3.09-.95,6.17-2.19,9.25,1.86.64,3.72,1.47,5.58,2.49,2.71-3.19,4.41-7.27,4.62-11.74h-8.01ZM638.61,74.7c-1.1,2.41-2.48,4.81-4.12,7.21,3.51-.83,6.65-2.59,9.14-5.03-1.68-.89-3.35-1.62-5.03-2.19h0ZM632.01,82.33c1.97-2.72,3.61-5.44,4.87-8.16-1.99-.54-3.99-.84-5.98-.92v9.15c.37-.02.74-.04,1.11-.08h0ZM637.6,72.51c1.18-2.91,1.9-5.82,2.1-8.71h-8.81v7.66c2.24.08,4.47.43,6.7,1.05h0ZM639.76,62c-.02-2.94-.59-5.88-1.78-8.82-2.36.69-4.72,1.08-7.08,1.16v7.66h8.86,0ZM637.25,51.52c-1.3-2.69-3.14-5.38-5.55-8.08-.26-.02-.53-.04-.79-.05v9.15c2.11-.08,4.23-.42,6.35-1.02Z"/>
          <path d="M573.07,104.62c-.92,0-1.77-.22-2.54-.65-.77-.43-1.38-1.03-1.84-1.8s-.68-1.64-.68-2.6.23-1.82.68-2.59c.45-.77,1.06-1.37,1.84-1.8s1.62-.65,2.54-.65,1.78.22,2.55.65c.77.43,1.37,1.03,1.82,1.8.45.77.67,1.63.67,2.59s-.22,1.84-.67,2.6c-.45.77-1.06,1.37-1.83,1.8-.77.43-1.62.65-2.54.65ZM573.07,102.8c.59,0,1.12-.13,1.57-.4.45-.27.8-.64,1.06-1.13.25-.48.38-1.05.38-1.7s-.13-1.22-.38-1.7c-.25-.49-.61-.86-1.06-1.12-.45-.26-.97-.4-1.57-.4s-1.12.13-1.57.4c-.46.26-.81.64-1.07,1.12-.25.48-.38,1.05-.38,1.7s.13,1.22.38,1.7c.25.49.61.86,1.07,1.13.46.27.98.4,1.57.4Z"/>
          <polygon id="_1_98" points="588.15 104.52 586.17 104.52 581.69 97.76 581.69 104.52 579.72 104.52 579.72 94.65 581.69 94.65 586.17 101.43 586.17 94.65 588.15 94.65 588.15 104.52"/>
          <polygon id="_2_99" points="592.21 103.01 595.46 103.01 595.46 104.52 590.23 104.52 590.23 94.66 592.21 94.66 592.21 103.01"/>
          <polygon id="_3_100" points="598.83 94.66 598.83 104.52 596.85 104.52 596.85 94.66 598.83 94.66"/>
          <polygon id="_4_101" points="609.34 104.52 607.37 104.52 602.89 97.76 602.89 104.52 600.91 104.52 600.91 94.65 602.89 94.65 607.37 101.43 607.37 94.65 609.34 94.65 609.34 104.52"/>
          <polygon id="_5_102" points="613.41 96.2 613.41 98.76 616.72 98.76 616.72 100.28 613.41 100.28 613.41 102.95 617.15 102.95 617.15 104.52 611.43 104.52 611.43 94.65 617.15 94.65 617.15 96.2 613.41 96.2"/>
          <path id="_6_103" d="M619.95,104.62c-.36,0-.65-.11-.88-.33-.23-.22-.35-.5-.35-.83s.12-.6.35-.83.52-.33.88-.33.64.11.86.33c.23.22.34.5.34.83s-.11.6-.34.83c-.23.22-.51.33-.86.33Z"/>
          <path id="_7_104" d="M636.39,102.64h-3.93l-.65,1.88h-2.08l3.54-9.87h2.3l3.54,9.87h-2.09l-.65-1.88h0ZM635.87,101.1l-1.44-4.17-1.44,4.17h2.88,0Z"/>
          <polygon id="_8_105" points="642.57 103.01 645.82 103.01 645.82 104.52 640.59 104.52 640.59 94.66 642.57 94.66 642.57 103.01"/>
          <polygon id="_9_106" points="660.39 94.66 657.63 104.52 655.3 104.52 653.45 97.5 651.52 104.52 649.2 104.53 646.55 94.66 648.67 94.66 650.4 102.32 652.41 94.66 654.61 94.66 656.5 102.27 658.25 94.66 660.39 94.66"/>
          <path id="_10_107" d="M667.85,102.64h-3.93l-.65,1.88h-2.08l3.54-9.87h2.3l3.54,9.87h-2.09l-.65-1.88h0ZM667.33,101.1l-1.44-4.17-1.44,4.17h2.88,0Z"/>
          <polygon id="_11_108" points="679.89 94.66 676.56 101.09 676.56 104.52 674.58 104.52 674.58 101.09 671.24 94.66 673.47 94.66 675.57 99.15 677.66 94.66 679.89 94.66"/>
          <path id="_12_109" d="M684.58,104.62c-.69,0-1.31-.12-1.86-.35-.55-.24-.99-.57-1.31-1.02-.32-.44-.48-.96-.49-1.57h2.12c.03.41.17.74.43.99.26.24.61.37,1.07.37s.82-.11,1.09-.34c.26-.23.4-.53.4-.9,0-.29-.09-.53-.27-.72-.18-.19-.4-.34-.67-.44-.27-.11-.64-.23-1.11-.36-.64-.19-1.16-.37-1.56-.56s-.74-.46-1.03-.83c-.29-.37-.43-.87-.43-1.49,0-.58.15-1.09.44-1.52.29-.43.7-.76,1.23-1,.53-.23,1.13-.35,1.81-.35,1.02,0,1.84.25,2.48.74.64.49.99,1.18,1.05,2.07h-2.17c-.02-.37-.16-.66-.43-.88-.27-.22-.62-.33-1.07-.33-.39,0-.69.1-.93.3-.23.2-.35.5-.35.9,0,.26.09.48.26.66s.39.32.65.42c.26.11.62.23,1.09.37.64.19,1.16.38,1.57.56.4.19.75.47,1.04.85.29.38.44.87.44,1.48,0,.53-.14,1.02-.41,1.47-.27.45-.67.81-1.2,1.08s-1.15.4-1.88.4h0Z"/>
          <path id="_13_110" d="M690.79,104.62c-.36,0-.65-.11-.88-.33-.23-.22-.35-.5-.35-.83s.12-.6.35-.83.52-.33.88-.33.64.11.86.33c.23.22.34.5.34.83s-.11.6-.34.83c-.23.22-.51.33-.86.33Z"/>
          <path d="M579.15,119.27c0-.68.16-1.3.48-1.84.32-.54.75-.97,1.3-1.27.55-.31,1.15-.46,1.8-.46.75,0,1.41.18,1.99.55s1,.88,1.26,1.56h-1.38c-.18-.35-.43-.61-.76-.79-.32-.18-.69-.27-1.12-.27-.46,0-.88.1-1.24.31-.36.21-.65.5-.85.89-.2.38-.31.83-.31,1.33s.1.95.31,1.33c.21.39.49.68.85.89s.78.31,1.24.31c.42,0,.8-.09,1.12-.27s.57-.44.76-.79h1.38c-.26.67-.68,1.19-1.26,1.55-.58.36-1.24.54-1.99.54-.66,0-1.26-.15-1.8-.46s-.98-.73-1.29-1.27c-.32-.54-.48-1.16-.48-1.84h0Z"/>
          <path id="_1_111" d="M589.84,122.88c-.52,0-1-.12-1.42-.36-.42-.24-.76-.57-1-1.01-.24-.43-.36-.94-.36-1.51s.12-1.06.37-1.5c.25-.44.59-.77,1.02-1.01.43-.23.91-.35,1.44-.35s1.01.12,1.44.35.77.57,1.02,1.01c.25.44.37.94.37,1.5s-.13,1.06-.38,1.5c-.25.44-.6.77-1.04,1.01s-.93.36-1.46.36h0ZM589.84,121.91c.3,0,.57-.07.83-.22.26-.15.47-.36.63-.65s.24-.63.24-1.03-.08-.75-.23-1.03c-.15-.29-.36-.5-.61-.64-.25-.14-.53-.22-.83-.22s-.57.07-.82.22c-.25.14-.45.36-.6.64-.15.29-.23.63-.23,1.03s.07.75.22,1.04.34.51.58.65c.25.14.52.22.81.22h0Z"/>
          <path id="_2_112" d="M596.77,117.15c.44,0,.83.09,1.17.27.35.18.62.45.81.81s.29.79.29,1.29v3.27h-1.14v-3.1c0-.5-.12-.88-.37-1.14-.25-.27-.59-.4-1.02-.4s-.77.13-1.02.4c-.25.26-.38.65-.38,1.14v3.1h-1.15v-5.55h1.15v.63c.19-.23.43-.41.72-.53s.6-.19.93-.19h0Z"/>
          <path id="_3_113" d="M603.41,117.15c.44,0,.83.09,1.17.27.35.18.62.45.81.81s.29.79.29,1.29v3.27h-1.14v-3.1c0-.5-.12-.88-.37-1.14-.25-.27-.59-.4-1.02-.4s-.77.13-1.02.4c-.25.26-.38.65-.38,1.14v3.1h-1.15v-5.55h1.15v.63c.19-.23.43-.41.72-.53s.6-.19.93-.19h0Z"/>
          <path id="_4_114" d="M612.34,119.86c0,.19-.01.38-.04.54h-4.25c.03.46.2.83.49,1.1.3.27.66.41,1.1.41.62,0,1.05-.26,1.31-.78h1.24c-.17.51-.47.93-.91,1.25-.44.33-.99.49-1.64.49-.53,0-1.01-.12-1.42-.36-.42-.24-.75-.57-.99-1.01-.24-.43-.36-.94-.36-1.51s.12-1.07.35-1.51c.23-.43.56-.77.98-1,.42-.23.9-.35,1.45-.35s.99.11,1.4.34c.41.23.73.55.96.96.23.41.34.88.34,1.41h0ZM611.14,119.57c0-.45-.16-.81-.45-1.07-.29-.26-.66-.39-1.1-.39-.4,0-.75.13-1.03.39-.29.26-.45.62-.5,1.07h3.08Z"/>
          <path id="_5_115" d="M613.2,120.01c0-.57.12-1.07.35-1.51.23-.43.55-.77.96-1,.41-.23.88-.35,1.41-.35.67,0,1.23.16,1.67.48s.74.77.89,1.37h-1.24c-.1-.28-.26-.49-.48-.64-.22-.15-.5-.23-.84-.23-.47,0-.84.17-1.12.5-.28.33-.42.8-.42,1.39s.14,1.06.42,1.4c.28.34.65.5,1.12.5.66,0,1.1-.29,1.32-.88h1.24c-.16.56-.46,1.01-.91,1.34-.44.33-.99.5-1.65.5-.53,0-1-.12-1.41-.36-.41-.24-.73-.57-.96-1.01-.23-.43-.35-.94-.35-1.51Z"/>
          <path id="_6_116" d="M621.07,118.18v3.07c0,.21.05.36.15.45.1.09.26.14.5.14h.7v.96h-.91c-.52,0-.91-.12-1.19-.36s-.41-.63-.41-1.18v-3.07h-.65v-.94h.65v-1.38h1.16v1.38h1.35v.94h-1.35Z"/>
          <path id="_7_117" d="M628.67,119.86c0,.19-.01.38-.04.54h-4.25c.03.46.2.83.49,1.1.3.27.66.41,1.1.41.62,0,1.05-.26,1.31-.78h1.24c-.17.51-.47.93-.91,1.25-.44.33-.99.49-1.64.49-.53,0-1.01-.12-1.42-.36-.42-.24-.75-.57-.99-1.01-.24-.43-.36-.94-.36-1.51s.12-1.07.35-1.51c.23-.43.56-.77.98-1,.42-.23.9-.35,1.45-.35s.99.11,1.4.34c.41.23.73.55.96.96.23.41.34.88.34,1.41h0ZM627.47,119.57c0-.45-.16-.81-.45-1.07-.29-.26-.66-.39-1.1-.39-.4,0-.75.13-1.03.39-.29.26-.45.62-.5,1.07h3.08Z"/>
          <path id="_8_118" d="M629.53,119.99c0-.56.12-1.05.35-1.48.23-.43.55-.76.95-1,.4-.24.84-.36,1.33-.36.36,0,.72.08,1.07.24.35.16.63.37.84.63v-2.68h1.16v7.45h-1.16v-.84c-.19.27-.45.49-.78.66-.33.17-.71.26-1.14.26-.48,0-.93-.12-1.32-.37-.4-.25-.71-.59-.95-1.03-.23-.44-.35-.94-.35-1.5h0ZM634.07,120.01c0-.38-.08-.71-.24-1-.16-.28-.36-.5-.62-.64-.25-.15-.53-.22-.83-.22s-.57.07-.83.22c-.25.14-.46.36-.62.63-.16.28-.24.61-.24.99s.08.72.24,1.01.37.51.62.66.53.23.82.23.57-.07.83-.22c.25-.15.46-.36.62-.65.16-.29.24-.62.24-1h0Z"/>
          <path id="_9_119" d="M645.21,122.88c-.52,0-1-.12-1.42-.36-.42-.24-.76-.57-1-1.01-.24-.43-.36-.94-.36-1.51s.12-1.06.37-1.5c.25-.44.59-.77,1.02-1.01.43-.23.91-.35,1.44-.35s1.01.12,1.44.35.77.57,1.02,1.01c.25.44.37.94.37,1.5s-.13,1.06-.38,1.5c-.25.44-.6.77-1.04,1.01s-.93.36-1.46.36h0ZM645.21,121.91c.3,0,.57-.07.83-.22.26-.15.47-.36.63-.65s.24-.63.24-1.03-.08-.75-.23-1.03c-.15-.29-.36-.5-.61-.64-.25-.14-.53-.22-.83-.22s-.57.07-.82.22c-.25.14-.45.36-.6.64-.15.29-.23.63-.23,1.03s.07.75.22,1.04.34.51.58.65c.25.14.52.22.81.22Z"/>
          <path id="_10_120" d="M652.14,117.15c.44,0,.83.09,1.17.27.35.18.62.45.81.81s.29.79.29,1.29v3.27h-1.14v-3.1c0-.5-.12-.88-.37-1.14-.25-.27-.59-.4-1.02-.4s-.77.13-1.02.4c-.25.26-.38.65-.38,1.14v3.1h-1.15v-5.55h1.15v.63c.19-.23.43-.41.72-.53s.6-.19.93-.19h0Z"/>
          <path id="_11_121" d="M661.56,119.99c0-.56.12-1.05.35-1.48.23-.43.55-.76.95-1,.4-.24.84-.36,1.32-.36.44,0,.82.09,1.14.26.33.17.59.38.78.64v-.81h1.16v5.55h-1.16v-.83c-.19.26-.46.48-.8.65-.34.17-.72.26-1.15.26-.48,0-.91-.12-1.31-.37-.4-.25-.71-.59-.94-1.03s-.35-.94-.35-1.5h0ZM666.11,120.01c0-.38-.08-.71-.24-1-.16-.28-.36-.5-.62-.64-.25-.15-.53-.22-.83-.22s-.57.07-.83.22c-.25.14-.46.36-.62.63-.16.28-.24.61-.24.99s.08.72.24,1.01.37.51.62.66.53.23.82.23.57-.07.83-.22c.25-.15.46-.36.62-.65.16-.29.24-.62.24-1h0Z"/>
          <path id="_12_122" d="M671.68,117.15c.44,0,.83.09,1.17.27.35.18.62.45.81.81s.29.79.29,1.29v3.27h-1.14v-3.1c0-.5-.12-.88-.37-1.14-.25-.27-.59-.4-1.02-.4s-.77.13-1.02.4c-.25.26-.38.65-.38,1.14v3.1h-1.15v-5.55h1.15v.63c.19-.23.43-.41.72-.53s.6-.19.93-.19h0Z"/>
          <path id="_13_123" d="M675.15,119.99c0-.56.12-1.05.35-1.48.23-.43.55-.76.95-1,.4-.24.84-.36,1.33-.36.36,0,.72.08,1.07.24.35.16.63.37.84.63v-2.68h1.16v7.45h-1.16v-.84c-.19.27-.45.49-.78.66-.33.17-.71.26-1.14.26-.48,0-.93-.12-1.32-.37-.4-.25-.71-.59-.95-1.03-.23-.44-.35-.94-.35-1.5h0ZM679.69,120.01c0-.38-.08-.71-.24-1-.16-.28-.36-.5-.62-.64-.25-.15-.53-.22-.83-.22s-.57.07-.83.22c-.25.14-.46.36-.62.63-.16.28-.24.61-.24.99s.08.72.24,1.01.37.51.62.66.53.23.82.23.57-.07.83-.22c.25-.15.46-.36.62-.65.16-.29.24-.62.24-1h0Z"/>
          <path id="_14_124" d="M599.98,138.44c-.52,0-1-.12-1.42-.36-.42-.24-.76-.57-1-1.01-.24-.43-.36-.94-.36-1.51s.12-1.06.37-1.5c.25-.44.59-.77,1.02-1.01.43-.23.91-.35,1.44-.35s1.01.12,1.44.35.77.57,1.02,1.01c.25.44.37.94.37,1.5s-.13,1.06-.38,1.5c-.25.44-.6.77-1.04,1.01s-.93.36-1.46.36h0ZM599.98,137.47c.3,0,.57-.07.83-.22.26-.15.47-.36.63-.65s.24-.63.24-1.03-.08-.75-.23-1.03c-.15-.29-.36-.5-.61-.64-.25-.14-.53-.22-.83-.22s-.57.07-.82.22c-.25.14-.45.36-.6.64-.15.29-.23.63-.23,1.03s.07.75.22,1.04.34.51.58.65c.25.14.52.22.81.22Z"/>
          <path id="_15_125" d="M606.43,133.74h-1.03v4.61h-1.16v-4.61h-.65v-.94h.65v-.39c0-.64.17-1.1.51-1.39.34-.29.87-.44,1.6-.44v.96c-.35,0-.59.07-.74.2-.14.13-.21.36-.21.68v.39h1.03v.94h0Z"/>
          <path id="_16_126" d="M609.89,133.74h-1.03v4.61h-1.16v-4.61h-.65v-.94h.65v-.39c0-.64.17-1.1.51-1.39.34-.29.87-.44,1.6-.44v.96c-.35,0-.59.07-.74.2-.14.13-.21.36-.21.68v.39h1.03v.94h0Z"/>
          <path id="_17_127" d="M618.31,133.74v3.07c0,.21.05.36.15.45.1.09.26.14.5.14h.7v.96h-.91c-.52,0-.91-.12-1.19-.36s-.41-.63-.41-1.18v-3.07h-.65v-.94h.65v-1.38h1.16v1.38h1.35v.94h-1.35Z"/>
          <path id="_18_128" d="M623.7,132.71c.42,0,.8.09,1.13.27s.59.45.79.81c.19.36.29.79.29,1.29v3.27h-1.14v-3.1c0-.5-.12-.88-.37-1.14-.25-.27-.59-.4-1.02-.4s-.77.13-1.02.4c-.25.26-.38.65-.38,1.14v3.1h-1.15v-7.45h1.15v2.55c.19-.23.44-.42.74-.54s.63-.19.98-.19h0Z"/>
          <path id="_19_129" d="M632.56,135.42c0,.19-.01.38-.04.54h-4.25c.03.46.2.83.49,1.1.3.27.66.41,1.1.41.62,0,1.05-.26,1.31-.78h1.24c-.17.51-.47.93-.91,1.25-.44.33-.99.49-1.64.49-.53,0-1.01-.12-1.42-.36-.42-.24-.75-.57-.99-1.01-.24-.43-.36-.94-.36-1.51s.12-1.07.35-1.51c.23-.43.56-.77.98-1,.42-.23.9-.35,1.45-.35s.99.11,1.4.34c.41.23.73.55.96.96.23.41.34.88.34,1.41h0ZM631.36,135.14c0-.45-.16-.81-.45-1.07-.29-.26-.66-.39-1.1-.39-.4,0-.75.13-1.03.39-.29.26-.45.62-.5,1.07h3.08Z"/>
          <path id="_20_130" d="M641.05,132.8h3.19v5.55h-1.15v-4.61h-2.04v4.61h-1.16v-4.61h-.65v-.94h.65v-.39c0-.64.17-1.1.51-1.39.34-.29.87-.44,1.6-.44v.96c-.35,0-.59.07-.74.2-.14.13-.21.36-.21.68v.39h0ZM643.67,132.07c-.2,0-.37-.07-.51-.21s-.21-.32-.21-.52.07-.38.21-.52.31-.21.51-.21.38.07.52.21.21.32.21.52-.07.38-.21.52c-.14.14-.32.21-.52.21Z"/>
          <path id="_21_131" d="M650.95,135.42c0,.19-.01.38-.04.54h-4.25c.03.46.2.83.49,1.1.3.27.66.41,1.1.41.62,0,1.05-.26,1.31-.78h1.24c-.17.51-.47.93-.91,1.25-.44.33-.99.49-1.64.49-.53,0-1.01-.12-1.42-.36-.42-.24-.75-.57-.99-1.01-.24-.43-.36-.94-.36-1.51s.12-1.07.35-1.51c.23-.43.56-.77.98-1,.42-.23.9-.35,1.45-.35s.99.11,1.4.34c.41.23.73.55.96.96.23.41.34.88.34,1.41h0ZM649.75,135.14c0-.45-.16-.81-.45-1.07-.29-.26-.66-.39-1.1-.39-.4,0-.75.13-1.03.39-.29.26-.45.62-.5,1.07h3.08Z"/>
          <polygon id="_22_132" points="653.34 130.9 653.34 138.35 652.19 138.35 652.19 130.9 653.34 130.9"/>
          <path id="_23_133" d="M654.57,135.55c0-.56.12-1.05.35-1.48.23-.43.55-.76.95-1,.4-.24.84-.36,1.33-.36.36,0,.72.08,1.07.24.35.16.63.37.84.63v-2.68h1.16v7.45h-1.16v-.84c-.19.27-.45.49-.78.66-.33.17-.71.26-1.14.26-.48,0-.93-.12-1.32-.37-.4-.25-.71-.59-.95-1.03-.23-.44-.35-.94-.35-1.5h0ZM659.12,135.57c0-.38-.08-.71-.24-1-.16-.28-.36-.5-.62-.64-.25-.15-.53-.22-.83-.22s-.57.07-.83.22c-.25.14-.46.36-.62.63-.16.28-.24.61-.24.99s.08.72.24,1.01.37.51.62.66.53.23.82.23.57-.07.83-.22c.25-.15.46-.36.62-.65.16-.29.24-.62.24-1h0Z"/>
          <path id="_24_134" d="M662.36,138.42c-.21,0-.38-.07-.52-.21s-.21-.32-.21-.52.07-.38.21-.52.32-.21.52-.21.37.07.51.21c.14.14.21.32.21.52s-.07.38-.21.52c-.14.14-.31.21-.51.21Z"/>
        </g>
      </g>
      <rect class="st0" x="180" y="0" width="180" height="180"/>
      <rect class="st0" x="360" y="0" width="180" height="180"/>
      <rect class="st0" x="540" y="0" width="180" height="180"/>
    </g>
  </g>
</svg>