<?xml version="1.0" encoding="UTF-8"?>
<svg id="Layer_1" xmlns="http://www.w3.org/2000/svg" version="1.1" xmlns:xodm="http://www.corel.com/coreldraw/odm/2003" viewBox="0 0 180 180">
  <!-- Generator: Adobe Illustrator 30.3.0, SVG Export Plug-In . SVG Version: 2.1.3 Build 182)  -->
  <defs>
    <style>
      .st0 {
        fill: none;
      }

      .st1 {
        fill-rule: evenodd;
      }
    </style>
  </defs>
  <g id="Layer_x5F_1">
    <g id="_1364058984896">
      <rect class="st0" x="0" y="0" width="180" height="180"/>
      <g>
        <path class="st1" d="M70.35,45.73c3.28,0,5.94,2.66,5.94,5.94s-2.66,5.94-5.94,5.94-5.94-2.66-5.94-5.94,2.66-5.94,5.94-5.94ZM93.83,52.86c7.74,0,12.26,4.38,13.91,11.85l-4.05,2.7-1.8-3.45v4.27c-3.32,1.67-4.23,1.79-8.05,1.87-3.83-.08-4.73-.21-8.05-1.87v-4.27l-1.8,3.45-4.05-2.7c1.64-7.47,6.16-11.85,13.91-11.85h0ZM110.51,68.84c1-4.63,2.72-9.11,8.18-8.82,2.75.14,5.82,2.14,6.22,5.69.21,1.93.21,5.05.21,8.17-1.22,1.08-6.66,5.38-7.51,3.79-.49-.91,2.16-2.21,1.62-5.29-14.27,20.15-27.25,11.89-20.81,6.79,2.9,1.83,3.77,1.54,7.2-.23l-5.96-.6c7.66-5.49,9.83-2.02,13.37-9.69,1.99-4.32-1.45-.84-2.52.19h0ZM93.83,37.71c3.56,0,6.45,2.89,6.45,6.45s-2.89,6.45-6.45,6.45-6.45-2.89-6.45-6.45,2.89-6.45,6.45-6.45ZM117.31,45.73c-3.28,0-5.94,2.66-5.94,5.94s2.66,5.94,5.94,5.94,5.94-2.66,5.94-5.94-2.66-5.94-5.94-5.94ZM77.15,68.84c-1-4.63-2.72-9.11-8.18-8.82-2.75.14-5.82,2.14-6.22,5.69-.21,1.93-.21,5.05-.21,8.17,1.22,1.08,6.66,5.38,7.51,3.79.49-.91-2.16-2.21-1.62-5.29,14.27,20.15,27.25,11.89,20.81,6.79-2.9,1.83-3.77,1.54-7.2-.23l5.96-.6c-7.66-5.49-9.83-2.02-13.37-9.69-1.99-4.32,1.45-.84,2.52.19h0Z"/>
        <path d="M23.22,101.27c0-.97.22-1.84.66-2.61.44-.77,1.04-1.37,1.79-1.79.76-.43,1.61-.64,2.55-.64,1.1,0,2.07.28,2.89.85.83.56,1.41,1.35,1.74,2.34h-2.27c-.24-.45-.56-.79-.96-1.02-.4-.23-.88-.35-1.41-.35-.57,0-1.09.13-1.53.4s-.8.64-1.04,1.13c-.25.49-.37,1.05-.37,1.69s.12,1.2.37,1.69c.25.49.6.86,1.04,1.13.45.27.96.4,1.53.4.54,0,1.01-.12,1.42-.35s.73-.58.95-1.03h2.27c-.33,1.01-.91,1.79-1.73,2.35s-1.79.84-2.9.84c-.94,0-1.79-.21-2.55-.64-.76-.43-1.36-1.02-1.79-1.79-.44-.76-.66-1.63-.66-2.6h0Z"/>
        <path id="_1" d="M39.26,106.31c-.92,0-1.77-.22-2.54-.65-.77-.43-1.38-1.03-1.84-1.8s-.68-1.64-.68-2.6.23-1.82.68-2.59c.45-.77,1.06-1.37,1.84-1.8.77-.43,1.62-.65,2.54-.65s1.78.22,2.55.65c.77.43,1.37,1.03,1.82,1.8.45.77.67,1.63.67,2.59s-.22,1.84-.67,2.6c-.45.77-1.06,1.37-1.83,1.8-.77.43-1.62.65-2.54.65ZM39.26,104.49c.59,0,1.12-.13,1.57-.4.45-.27.8-.64,1.06-1.13.25-.48.38-1.05.38-1.7s-.13-1.22-.38-1.7c-.25-.49-.61-.86-1.06-1.12-.45-.26-.97-.4-1.57-.4s-1.12.13-1.57.4c-.46.26-.81.64-1.07,1.12-.25.48-.38,1.05-.38,1.7s.13,1.22.38,1.7c.25.49.61.86,1.07,1.13.46.27.98.4,1.57.4Z"/>
        <polygon id="_2" points="56.65 96.36 56.65 106.21 54.67 106.21 54.67 99.8 52.03 106.21 50.53 106.21 47.88 99.8 47.88 106.21 45.9 106.21 45.9 96.36 48.15 96.36 51.28 103.69 54.42 96.36 56.65 96.36"/>
        <polygon id="_3" points="69.48 96.36 69.48 106.21 67.5 106.21 67.5 99.8 64.86 106.21 63.36 106.21 60.71 99.8 60.71 106.21 58.73 106.21 58.73 96.36 60.98 96.36 64.11 103.69 67.25 96.36 69.48 96.36"/>
        <path id="_4" d="M73.51,96.36v6.09c0,.67.17,1.18.52,1.53.35.35.84.53,1.47.53s1.13-.18,1.48-.53c.35-.35.52-.86.52-1.53v-6.09h1.99v6.09c0,.84-.18,1.55-.54,2.13-.36.58-.85,1.01-1.45,1.31-.61.29-1.28.44-2.03.44s-1.4-.15-2-.44c-.6-.29-1.07-.73-1.42-1.31-.35-.58-.52-1.29-.52-2.13v-6.09h1.98,0Z"/>
        <polygon id="_5" points="89.97 106.21 88 106.21 83.52 99.45 83.52 106.21 81.54 106.21 81.54 96.34 83.52 96.34 88 103.12 88 96.34 89.97 96.34 89.97 106.21"/>
        <polygon id="_6" points="94.03 96.36 94.03 106.21 92.06 106.21 92.06 96.36 94.03 96.36"/>
        <polygon id="_7" points="102.83 96.36 102.83 97.91 100.2 97.91 100.2 106.21 98.22 106.21 98.22 97.91 95.6 97.91 95.6 96.36 102.83 96.36"/>
        <polygon id="_8" points="112.24 96.36 108.91 102.78 108.91 106.21 106.93 106.21 106.93 102.78 103.59 96.36 105.82 96.36 107.92 100.85 110.01 96.36 112.24 96.36"/>
        <polygon id="_9" points="127.07 96.36 127.07 97.91 122.96 97.91 122.96 100.49 126.11 100.49 126.11 102.02 122.96 102.02 122.96 106.21 120.99 106.21 120.99 96.36 127.07 96.36"/>
        <polygon id="_10" points="130.58 96.36 130.58 106.21 128.61 106.21 128.61 96.36 130.58 96.36"/>
        <path id="_11" d="M137.75,106.21l-2.17-3.84h-.93v3.84h-1.98v-9.86h3.7c.76,0,1.41.13,1.95.4.54.27.94.63,1.21,1.09.27.46.4.97.4,1.53,0,.65-.19,1.24-.56,1.76s-.94.88-1.68,1.08l2.36,4h-2.29ZM134.65,100.9h1.65c.54,0,.94-.13,1.2-.4s.4-.63.4-1.09-.13-.82-.4-1.08-.66-.39-1.2-.39h-1.65v2.95h0Z"/>
        <path id="_12" d="M145.26,106.31c-.69,0-1.31-.12-1.86-.35-.55-.24-.99-.57-1.31-1.02-.32-.44-.48-.96-.49-1.57h2.12c.03.41.17.74.43.99.26.24.61.37,1.07.37s.82-.11,1.09-.34.4-.53.4-.9c0-.29-.09-.53-.27-.72-.18-.19-.4-.34-.67-.44-.27-.11-.64-.23-1.11-.36-.64-.19-1.16-.37-1.56-.56s-.74-.46-1.03-.83c-.29-.37-.43-.87-.43-1.49,0-.58.15-1.09.44-1.52.29-.43.7-.76,1.23-1,.53-.23,1.13-.35,1.81-.35,1.02,0,1.84.25,2.48.74.64.49.99,1.18,1.05,2.07h-2.17c-.02-.37-.16-.66-.43-.88-.27-.22-.62-.33-1.07-.33-.39,0-.69.1-.93.3-.23.2-.35.5-.35.9,0,.26.09.48.26.66s.39.32.65.42c.26.11.62.23,1.09.37.64.19,1.16.38,1.57.56.4.19.75.47,1.04.85.29.38.44.87.44,1.48,0,.53-.14,1.02-.41,1.47-.27.45-.67.81-1.2,1.08s-1.15.4-1.88.4h0Z"/>
        <polygon id="_13" points="157.3 96.36 157.3 97.91 154.67 97.91 154.67 106.21 152.7 106.21 152.7 97.91 150.07 97.91 150.07 96.36 157.3 96.36"/>
        <path d="M47.64,120.52c.38.07.69.27.96.59.26.33.39.7.39,1.12,0,.36-.09.68-.28.96-.18.29-.45.51-.8.67s-.76.25-1.22.25h-2.8v-7h2.67c.48,0,.89.08,1.23.24.34.16.6.38.78.65.17.27.26.58.26.91,0,.4-.11.74-.32,1.01-.21.27-.5.47-.87.59h0ZM45.04,120.09h1.42c.38,0,.67-.09.88-.27s.32-.43.32-.76-.11-.59-.32-.77c-.21-.18-.51-.28-.88-.28h-1.42v2.07h0ZM46.59,123.22c.39,0,.69-.1.92-.29.22-.19.33-.47.33-.82s-.12-.62-.35-.82-.55-.31-.94-.31h-1.51v2.24h1.55Z"/>
        <path id="_1_135" d="M55.37,118.57v5.55h-1.15v-.65c-.18.23-.42.41-.71.54-.29.13-.6.2-.93.2-.44,0-.83-.09-1.17-.27-.35-.18-.62-.45-.82-.81s-.3-.79-.3-1.29v-3.26h1.14v3.09c0,.5.12.88.37,1.14.25.27.59.4,1.02.4s.77-.13,1.02-.4c.25-.26.38-.65.38-1.14v-3.09h1.15Z"/>
        <path id="_2_136" d="M57.58,117.83c-.21,0-.38-.07-.52-.21s-.21-.32-.21-.52.07-.38.21-.52.32-.21.52-.21.37.07.51.21c.14.14.21.32.21.52s-.07.38-.21.52c-.14.14-.31.21-.51.21ZM58.14,118.57v5.55h-1.15v-5.55h1.15Z"/>
        <polygon id="_3_137" points="60.91 116.66 60.91 124.12 59.76 124.12 59.76 116.66 60.91 116.66"/>
        <path id="_4_138" d="M63.87,119.5v3.07c0,.21.05.36.15.45.1.09.26.14.5.14h.7v.96h-.91c-.52,0-.91-.12-1.19-.36s-.41-.63-.41-1.18v-3.07h-.65v-.94h.65v-1.38h1.16v1.38h1.35v.94h-1.35Z"/>
        <path id="_5_139" d="M74.67,119.5h-1.03v4.61h-1.16v-4.61h-.65v-.94h.65v-.39c0-.64.17-1.1.51-1.39.34-.29.87-.44,1.6-.44v.96c-.35,0-.59.07-.74.2-.14.13-.21.36-.21.68v.39h1.03v.94h0Z"/>
        <path id="_6_140" d="M78.2,124.21c-.52,0-1-.12-1.42-.36-.42-.24-.76-.57-1-1.01-.24-.43-.36-.94-.36-1.51s.12-1.06.37-1.5c.25-.44.59-.77,1.02-1.01.43-.23.91-.35,1.44-.35s1.01.12,1.44.35.77.57,1.02,1.01c.25.44.37.94.37,1.5s-.13,1.06-.38,1.5c-.25.44-.6.77-1.04,1.01s-.93.36-1.46.36h0ZM78.2,123.24c.3,0,.57-.07.83-.22.26-.15.47-.36.63-.65s.24-.63.24-1.03-.08-.75-.23-1.03c-.15-.29-.36-.5-.61-.64-.25-.14-.53-.22-.83-.22s-.57.07-.82.22c-.25.14-.45.36-.6.64s-.23.63-.23,1.03.07.75.22,1.04.34.51.58.65c.25.14.52.22.81.22Z"/>
        <path id="_7_141" d="M83.48,119.53c.17-.34.39-.6.67-.78.28-.19.61-.28.99-.28v1.19h-.29c-.45,0-.79.11-1.02.34s-.35.62-.35,1.19v2.92h-1.15v-5.55h1.15v.97h0Z"/>
        <path id="_8_142" d="M93.41,119.38c.19-.25.46-.47.8-.64.34-.17.71-.26,1.14-.26.48,0,.92.12,1.32.36.4.24.71.57.94,1,.23.43.34.92.34,1.48s-.11,1.06-.34,1.5c-.23.44-.54.78-.94,1.03-.4.24-.84.37-1.32.37-.42,0-.8-.09-1.13-.26-.33-.17-.6-.38-.81-.64v3.44h-1.15v-8.19h1.15s0,.82,0,.82ZM96.79,121.31c0-.38-.08-.71-.24-.99-.16-.28-.37-.49-.62-.63-.26-.14-.53-.22-.83-.22s-.56.07-.82.22c-.26.15-.47.36-.62.64-.16.28-.24.61-.24,1s.08.72.24,1c.16.29.37.5.62.65.26.15.53.22.82.22s.57-.08.83-.23c.26-.15.47-.37.62-.66.16-.29.24-.62.24-1.01h0Z"/>
        <polygon id="_9_143" points="100.35 116.66 100.35 124.12 99.2 124.12 99.2 116.66 100.35 116.66"/>
        <path id="_10_144" d="M101.59,121.31c0-.56.12-1.05.35-1.48.23-.43.55-.76.95-1s.84-.36,1.32-.36c.44,0,.82.09,1.14.26.33.17.59.38.78.64v-.81h1.16v5.55h-1.16v-.83c-.19.26-.46.48-.8.65-.34.17-.72.26-1.15.26-.48,0-.91-.12-1.31-.37-.4-.25-.71-.59-.94-1.03s-.35-.94-.35-1.5ZM106.13,121.34c0-.38-.08-.71-.24-1-.16-.28-.36-.5-.62-.64-.25-.15-.53-.22-.83-.22s-.57.07-.83.22c-.25.14-.46.36-.62.63-.16.28-.24.61-.24.99s.08.72.24,1.01c.16.29.37.51.62.66.26.15.53.23.82.23s.57-.07.83-.22c.25-.15.46-.36.62-.65s.24-.62.24-1h0Z"/>
        <polygon id="_11_145" points="109.53 118.57 111.1 122.8 112.72 118.57 113.91 118.57 110.5 126.72 109.31 126.72 110.44 124.02 108.26 118.57 109.53 118.57"/>
        <path id="_12_146" d="M119.97,121.18c0,.19-.01.38-.04.54h-4.25c.03.46.2.83.49,1.1.3.27.66.41,1.1.41.62,0,1.05-.26,1.31-.78h1.24c-.17.51-.47.93-.91,1.25-.44.33-.99.49-1.64.49-.53,0-1.01-.12-1.42-.36-.42-.24-.75-.57-.99-1.01-.24-.43-.36-.94-.36-1.51s.12-1.07.35-1.51c.23-.43.56-.77.98-1,.42-.23.9-.35,1.45-.35s.99.11,1.4.34c.41.23.73.55.96.96.23.41.34.88.34,1.41h0ZM118.77,120.9c0-.45-.16-.81-.45-1.07-.29-.26-.66-.39-1.1-.39-.4,0-.75.13-1.03.39-.29.26-.45.62-.5,1.07,0,0,3.08,0,3.08,0Z"/>
        <path id="_13_147" d="M122.35,119.53c.17-.34.39-.6.67-.78.28-.19.61-.28.99-.28v1.19h-.29c-.45,0-.79.11-1.02.34s-.35.62-.35,1.19v2.92h-1.15v-5.55h1.15v.97h0Z"/>
        <path id="_14" d="M127.18,124.21c-.43,0-.82-.08-1.16-.24-.34-.16-.61-.37-.82-.64-.2-.27-.31-.58-.32-.91h1.19c.02.25.13.47.34.63.21.17.46.25.77.25s.57-.07.75-.2c.18-.13.27-.31.27-.53,0-.2-.1-.36-.3-.46-.2-.11-.51-.21-.94-.32-.41-.11-.74-.22-1-.33-.26-.1-.48-.26-.67-.48-.19-.22-.28-.5-.28-.85,0-.3.08-.58.25-.83s.41-.45.73-.6c.32-.15.69-.22,1.12-.22.63,0,1.14.16,1.53.48s.59.75.62,1.3h-1.15c-.02-.27-.12-.48-.3-.64-.18-.16-.43-.24-.74-.24s-.53.06-.69.19c-.16.12-.24.29-.24.5,0,.15.05.27.16.37s.24.18.4.24c.16.06.39.13.68.21.4.11.73.21.99.32.25.11.47.27.65.49s.27.5.27.85c0,.32-.08.6-.25.85s-.41.45-.73.59-.7.22-1.13.22h0Z"/>
        <path id="_15" d="M131.13,124.19c-.21,0-.38-.07-.52-.21s-.21-.32-.21-.52.07-.38.21-.52.32-.21.52-.21.37.07.51.21c.14.14.21.32.21.52s-.07.38-.21.52c-.14.14-.31.21-.51.21Z"/>
        <path id="_16" d="M27.59,134.76c0,.36-.08.69-.25,1.01s-.44.57-.81.77-.84.3-1.42.3h-1.27v2.84h-1.15v-7h2.42c.54,0,.99.09,1.36.28s.65.43.84.75c.18.32.28.67.28,1.06ZM25.12,135.94c.44,0,.76-.1.98-.31.21-.21.32-.5.32-.87s-.11-.67-.32-.88c-.21-.21-.54-.31-.98-.31h-1.27v2.37h1.27Z"/>
        <path id="_17" d="M31.21,139.77c-.52,0-1-.12-1.42-.36-.42-.24-.76-.57-1-1.01-.24-.43-.36-.94-.36-1.51s.12-1.06.37-1.5c.25-.44.59-.77,1.02-1.01.43-.23.91-.35,1.44-.35s1.01.12,1.44.35.77.57,1.02,1.01c.25.44.37.94.37,1.5s-.13,1.06-.38,1.5c-.25.44-.6.77-1.04,1.01-.44.24-.93.36-1.46.36h0ZM31.21,138.8c.3,0,.57-.07.83-.22.26-.15.47-.36.63-.65s.24-.63.24-1.03-.08-.75-.23-1.03c-.15-.29-.36-.5-.61-.64-.25-.14-.53-.22-.83-.22s-.57.07-.82.22c-.25.14-.45.36-.6.64s-.23.63-.23,1.03.07.75.22,1.04.34.51.58.65c.25.14.52.22.81.22Z"/>
        <polygon id="_18" points="42.79 134.13 41.07 139.68 39.86 139.68 38.74 135.58 37.62 139.68 36.41 139.68 34.68 134.13 35.85 134.13 37.01 138.59 38.19 134.13 39.39 134.13 40.51 138.57 41.66 134.13 42.79 134.13"/>
        <path id="_19" d="M48.84,136.75c0,.19-.01.38-.04.54h-4.25c.03.46.2.83.49,1.1.3.27.66.41,1.1.41.62,0,1.05-.26,1.31-.78h1.24c-.17.51-.47.93-.91,1.25-.44.33-.99.49-1.64.49-.53,0-1.01-.12-1.42-.36-.42-.24-.75-.57-.99-1.01-.24-.43-.36-.94-.36-1.51s.12-1.07.35-1.51c.23-.43.56-.77.98-1,.42-.23.9-.35,1.45-.35s.99.11,1.4.34c.41.23.73.55.96.96.23.41.34.88.34,1.41h0ZM47.64,136.46c0-.45-.16-.81-.45-1.07-.29-.26-.66-.39-1.1-.39-.4,0-.75.13-1.03.39-.29.26-.45.62-.5,1.07h3.08Z"/>
        <path id="_20" d="M51.23,135.1c.17-.34.39-.6.67-.78.28-.19.61-.28.99-.28v1.19h-.29c-.45,0-.79.11-1.02.34-.23.23-.35.62-.35,1.19v2.92h-1.15v-5.55h1.15v.97h0Z"/>
        <path id="_21" d="M59.14,136.75c0,.19-.01.38-.04.54h-4.25c.03.46.2.83.49,1.1.3.27.66.41,1.1.41.62,0,1.05-.26,1.31-.78h1.24c-.17.51-.47.93-.91,1.25-.44.33-.99.49-1.64.49-.53,0-1.01-.12-1.42-.36-.42-.24-.75-.57-.99-1.01-.24-.43-.36-.94-.36-1.51s.12-1.07.35-1.51c.23-.43.56-.77.98-1,.42-.23.9-.35,1.45-.35s.99.11,1.4.34c.41.23.73.55.96.96.23.41.34.88.34,1.41h0ZM57.94,136.46c0-.45-.16-.81-.45-1.07-.29-.26-.66-.39-1.1-.39-.4,0-.75.13-1.03.39-.29.26-.45.62-.5,1.07h3.08Z"/>
        <path id="_22" d="M60,136.88c0-.56.12-1.05.35-1.48.23-.43.55-.76.95-1,.4-.24.84-.36,1.33-.36.36,0,.72.08,1.07.24.35.16.63.37.84.63v-2.68h1.16v7.45h-1.16v-.84c-.19.27-.45.49-.78.66-.33.17-.71.26-1.14.26-.48,0-.93-.12-1.32-.37-.4-.25-.71-.59-.95-1.03-.23-.44-.35-.94-.35-1.5h0ZM64.54,136.9c0-.38-.08-.71-.24-1-.16-.28-.36-.5-.62-.64-.25-.15-.53-.22-.83-.22s-.57.07-.83.22c-.25.14-.46.36-.62.63-.16.28-.24.61-.24.99s.08.72.24,1.01.37.51.62.66c.26.15.53.23.82.23s.57-.07.83-.22c.25-.15.46-.36.62-.65s.24-.62.24-1h0Z"/>
        <path id="_23" d="M74.42,134.95c.19-.27.46-.49.8-.66s.72-.26,1.13-.26c.49,0,.93.12,1.33.35s.71.57.94,1c.23.43.34.93.34,1.49s-.11,1.06-.34,1.5c-.23.44-.54.78-.94,1.03-.4.24-.84.37-1.32.37-.43,0-.81-.08-1.14-.25-.33-.17-.6-.38-.79-.64v.81h-1.15v-7.45h1.15s0,2.73,0,2.73ZM77.8,136.88c0-.38-.08-.71-.24-.99-.16-.28-.37-.49-.62-.63-.26-.14-.53-.22-.83-.22s-.56.07-.82.22c-.26.15-.47.36-.62.64-.16.28-.24.61-.24,1s.08.72.24,1c.16.29.37.5.62.65.26.15.53.22.82.22s.57-.08.83-.23c.26-.15.47-.37.62-.66.16-.29.24-.62.24-1.01h0Z"/>
        <polygon id="_24" points="80.84 134.13 82.4 138.36 84.02 134.13 85.21 134.13 81.8 142.29 80.61 142.29 81.74 139.59 79.56 134.13 80.84 134.13"/>
        <path id="_25" d="M91.76,136.9c0-.57.12-1.07.35-1.51.23-.43.55-.77.96-1,.41-.23.88-.35,1.41-.35.67,0,1.23.16,1.67.48s.74.77.89,1.37h-1.24c-.1-.28-.26-.49-.48-.64-.22-.15-.5-.23-.84-.23-.47,0-.84.17-1.12.5-.28.33-.42.8-.42,1.39s.14,1.06.42,1.4c.28.34.65.5,1.12.5.66,0,1.1-.29,1.32-.88h1.24c-.16.56-.46,1.01-.91,1.34-.44.33-.99.5-1.65.5-.53,0-1-.12-1.41-.36-.41-.24-.73-.57-.96-1.01-.23-.43-.35-.94-.35-1.51Z"/>
        <path id="_26" d="M100.7,139.77c-.52,0-1-.12-1.42-.36-.42-.24-.76-.57-1-1.01-.24-.43-.36-.94-.36-1.51s.12-1.06.37-1.5c.25-.44.59-.77,1.02-1.01.43-.23.91-.35,1.44-.35s1.01.12,1.44.35.77.57,1.02,1.01c.25.44.37.94.37,1.5s-.13,1.06-.38,1.5c-.25.44-.6.77-1.04,1.01s-.93.36-1.46.36h0ZM100.7,138.8c.3,0,.57-.07.83-.22.26-.15.47-.36.63-.65s.24-.63.24-1.03-.08-.75-.23-1.03c-.15-.29-.36-.5-.61-.64-.25-.14-.53-.22-.83-.22s-.57.07-.82.22c-.25.14-.45.36-.6.64s-.23.63-.23,1.03.07.75.22,1.04.34.51.58.65c.25.14.52.22.81.22Z"/>
        <path id="_27" d="M111.55,134.04c.44,0,.83.09,1.17.27.35.18.62.45.82.81s.3.79.3,1.29v3.27h-1.14v-3.1c0-.5-.12-.88-.37-1.14-.25-.27-.59-.4-1.02-.4s-.77.13-1.02.4c-.25.26-.38.65-.38,1.14v3.1h-1.14v-3.1c0-.5-.12-.88-.37-1.14-.25-.27-.59-.4-1.02-.4s-.77.13-1.02.4c-.25.26-.38.65-.38,1.14v3.1h-1.15v-5.55h1.15v.63c.19-.23.43-.41.71-.53s.6-.19.93-.19c.44,0,.84.09,1.19.28.35.19.62.46.81.82.17-.34.43-.6.79-.8.36-.2.74-.3,1.15-.3h0Z"/>
        <path id="_28" d="M122.12,134.04c.44,0,.83.09,1.17.27.35.18.62.45.82.81s.3.79.3,1.29v3.27h-1.14v-3.1c0-.5-.12-.88-.37-1.14-.25-.27-.59-.4-1.02-.4s-.77.13-1.02.4c-.25.26-.38.65-.38,1.14v3.1h-1.14v-3.1c0-.5-.12-.88-.37-1.14-.25-.27-.59-.4-1.02-.4s-.77.13-1.02.4c-.25.26-.38.65-.38,1.14v3.1h-1.15v-5.55h1.15v.63c.19-.23.43-.41.71-.53s.6-.19.93-.19c.44,0,.84.09,1.19.28.35.19.62.46.81.82.17-.34.43-.6.79-.8.36-.2.74-.3,1.15-.3h0Z"/>
        <path id="_29" d="M131,134.13v5.55h-1.15v-.65c-.18.23-.42.41-.71.54-.29.13-.6.2-.93.2-.44,0-.83-.09-1.17-.27-.35-.18-.62-.45-.82-.81s-.3-.79-.3-1.29v-3.26h1.14v3.09c0,.5.12.88.37,1.14.25.27.59.4,1.02.4s.77-.13,1.02-.4c.25-.26.38-.65.38-1.14v-3.09h1.15Z"/>
        <path id="_30" d="M135.42,134.04c.44,0,.83.09,1.17.27.35.18.62.45.81.81s.29.79.29,1.29v3.27h-1.14v-3.1c0-.5-.12-.88-.37-1.14-.25-.27-.59-.4-1.02-.4s-.77.13-1.02.4c-.25.26-.38.65-.38,1.14v3.1h-1.15v-5.55h1.15v.63c.19-.23.43-.41.72-.53s.6-.19.93-.19h0Z"/>
        <path id="_31" d="M139.85,133.39c-.21,0-.38-.07-.52-.21s-.21-.32-.21-.52.07-.38.21-.52.32-.21.52-.21.37.07.51.21c.14.14.21.32.21.52s-.07.38-.21.52c-.14.14-.31.21-.51.21ZM140.41,134.13v5.55h-1.15v-5.55h1.15Z"/>
        <path id="_32" d="M143.37,135.07v3.07c0,.21.05.36.15.45s.26.14.5.14h.7v.96h-.91c-.52,0-.91-.12-1.19-.36s-.41-.63-.41-1.18v-3.07h-.65v-.94h.65v-1.38h1.16v1.38h1.35v.94h-1.35Z"/>
        <polygon id="_33" points="146.51 134.13 148.08 138.36 149.7 134.13 150.89 134.13 147.48 142.29 146.29 142.29 147.42 139.59 145.24 134.13 146.51 134.13"/>
        <path id="_34" d="M152.32,139.75c-.21,0-.38-.07-.52-.21s-.21-.32-.21-.52.07-.38.21-.52.32-.21.52-.21.37.07.51.21c.14.14.21.32.21.52s-.07.38-.21.52c-.14.14-.31.21-.51.21Z"/>
      </g>
    </g>
  </g>
</svg>