<?xml version="1.0" encoding="UTF-8"?>
<svg id="Layer_1" xmlns="http://www.w3.org/2000/svg" version="1.1" xmlns:xodm="http://www.corel.com/coreldraw/odm/2003" viewBox="0 0 864 324">
  <!-- Generator: Adobe Illustrator 30.3.0, SVG Export Plug-In . SVG Version: 2.1.3 Build 182)  -->
  <defs>
    <style>
      .st0 {
        fill: none;
      }

      .st1 {
        fill-rule: evenodd;
      }
    </style>
  </defs>
  <g id="Layer_x5F_1">
    <g id="_1364053891296">
      <rect class="st0" x="-.2" y=".02" width="864" height="324"/>
      <path class="st1" d="M82.23,101.61c-1.58.18,4.02,2.95,4.84,4.51.86,1.64-.79,4.51-4.66,3.54-1.59-.4-15.64-7.82-14.51-2.26.4,1.95,5.29,3.97,8.26,5.22,7.41-2.07,15.61-1.69,23.26-.49,13.79,2.16,20.36,4.53,35.44,4.53,21.07,0,30.09-5.25,46.01-5.5,9.23-10.32,1-4.61-5.71-2.57-3.99,1.21-3.14-1.29-4.37-1.65-.82-.24-5.07.62-4.03-1.84,0-.02,5.77-7.68-2.73-1.71-2.59,1.82-5.85,2.64-6.75-.21-1.63-5.19,8.5-8.45,9.04-12.49,1.25-9.36,17.42-15.21,19.94-18.02,3.86-4.32,1.15-9.79-4.19-6.23-4.67,3.11-6.3,12.08-13.96,16.88-5.25,3.28-3.1-.08-11.45,6.19-3.04,2.28-5.09,1.39-5-.53.11-2.13,7.16-8.61,3.36-9.51-2.54-.61-5.81,6.21-8.27,8.56-4.75,4.54-8.46-2.11-8.21-5.89.18-2.75,5.04-10.59,1.83-10.13-1.94.28-4.32,5.04-4.91-2.1-.85-10.22-1.4-.03-4.51,3.54-2.31,2.65-1.94-4.88-4.76-1.46-1.94,2.35-1.36,3.75-.17,5.04,2.01,2.16-2.08,11.09-7.44,6.08-7.42-6.92-3.69-10.97-4.71-16.51-1.33-7.18-8.5-4.69-6.69,1.66,1.31,4.59,6.91,6.26,4.59,14.73-1.23,4.51-4.03-6.7-5.62-5.09-1.59,1.62.88,4.83,1.39,5.69,2.78,4.68-1.11,6.96-10.6-3.88-5.08-5.81-3.89-7.53-6.01-13.03-3.88-10.1-10.3-4.59-7.64.87,2.13,4.37,11.22,7.1,12.2,18.28.65,7.39-6.09-3.71-7.15-3.3-.45.17-1.03,1.12-.99,2.1.11,2.86,8.77,7.88,4.86,9.25-2.97,1.04-7.77-4.22-9.85-6.09-5.04-4.52-3.26,3.33-2.24,4.67,2.07,2.71,7.08,2.2,8.14,7.55.74,3.73-4.12,1.38-6,1.6h0ZM828.18,189.96c1.42,0,2.67.28,3.77.85s1.95,1.27,2.57,2.11v-2.66h3.82v18.59c0,1.68-.35,3.18-1.06,4.5-.71,1.32-1.73,2.35-3.07,3.1-1.34.75-2.94,1.13-4.8,1.13-2.48,0-4.54-.58-6.17-1.74s-2.57-2.74-2.79-4.73h3.75c.29.95.9,1.72,1.84,2.31.94.59,2.06.88,3.37.88,1.53,0,2.76-.46,3.7-1.39.94-.93,1.41-2.28,1.41-4.05v-3.05c-.64.86-1.51,1.59-2.61,2.17-1.1.59-2.34.88-3.73.88-1.59,0-3.05-.4-4.36-1.21-1.32-.81-2.36-1.94-3.12-3.39-.76-1.45-1.15-3.09-1.15-4.93s.38-3.46,1.15-4.88c.76-1.42,1.8-2.52,3.12-3.3,1.32-.79,2.77-1.18,4.36-1.18h0ZM834.52,199.39c0-1.26-.26-2.36-.78-3.29s-1.2-1.64-2.04-2.12-1.75-.73-2.72-.73-1.88.24-2.72.71c-.84.48-1.52,1.17-2.04,2.09-.52.92-.78,2.01-.78,3.27s.26,2.37.78,3.32c.52.95,1.21,1.68,2.06,2.17s1.75.75,2.71.75,1.88-.24,2.72-.73,1.52-1.2,2.04-2.14.78-2.04.78-3.3h0ZM805.31,189.96c1.42,0,2.67.28,3.77.85s1.95,1.27,2.57,2.11v-2.66h3.82v18.59c0,1.68-.35,3.18-1.06,4.5-.71,1.32-1.73,2.35-3.07,3.1-1.34.75-2.94,1.13-4.8,1.13-2.48,0-4.54-.58-6.17-1.74s-2.57-2.74-2.79-4.73h3.75c.29.95.9,1.72,1.84,2.31.94.59,2.06.88,3.37.88,1.53,0,2.76-.46,3.7-1.39.94-.93,1.41-2.28,1.41-4.05v-3.05c-.64.86-1.51,1.59-2.61,2.17-1.1.59-2.34.88-3.73.88-1.59,0-3.05-.4-4.36-1.21-1.32-.81-2.36-1.94-3.12-3.39-.76-1.45-1.15-3.09-1.15-4.93s.38-3.46,1.15-4.88c.76-1.42,1.8-2.52,3.12-3.3,1.32-.79,2.77-1.18,4.36-1.18h0ZM811.65,199.39c0-1.26-.26-2.36-.78-3.29s-1.2-1.64-2.04-2.12-1.75-.73-2.72-.73-1.88.24-2.72.71c-.84.48-1.52,1.17-2.04,2.09-.52.92-.78,2.01-.78,3.27s.26,2.37.78,3.32c.52.95,1.21,1.68,2.06,2.17s1.75.75,2.71.75,1.88-.24,2.72-.73,1.52-1.2,2.04-2.14.78-2.04.78-3.3h0ZM791.11,208.78c-.69,0-1.26-.23-1.73-.7s-.7-1.04-.7-1.73.23-1.26.7-1.73c.46-.46,1.04-.7,1.73-.7s1.23.23,1.69.7.7,1.04.7,1.73-.23,1.26-.7,1.73-1.03.7-1.69.7ZM838.33,245.92h-49.27v1.57h49.27v-1.57ZM319.87,245.92h-49.27v1.57h49.27v-1.57ZM708.54,111.89c0,17.81-.02,35.64,0,53.43.02,14.72.32,25.2-11.18,35.8-2.61,2.4-10.83,8.92-23.82,8.92-10.96,0-20.39-4.35-27.15-12.52-7.85-9.48-7.87-17.63-7.85-32.2.02-17.79,0-35.63,0-53.43h5c0,17.64.04,35.31-.01,52.93-.04,13.05-.25,21.35,6.75,29.65,10.73,12.71,31.07,14.29,43.43,3.22,10.64-9.54,9.89-20.17,9.86-33.56-.03-17.39-.01-34.83-.01-52.23h5ZM726.09,144.59v12.17c1.8-2.73,3.98-5.17,6.45-7.24,5.55-4.65,12.59-7.43,20.24-7.43,8.98,0,17.1,3.82,22.98,10,5.85,6.15,9.46,14.63,9.46,23.98s-3.62,17.83-9.46,23.98c-5.88,6.18-14,10-22.98,10-7.65,0-14.69-2.78-20.24-7.43-2.47-2.07-4.64-4.51-6.45-7.24v38.33h-5v-89.13h5ZM735.74,198.8c4.68,3.92,10.6,6.26,17.04,6.26,7.56,0,14.4-3.23,19.36-8.44,4.99-5.25,8.07-12.51,8.07-20.54s-3.09-15.3-8.07-20.54c-4.96-5.21-11.81-8.44-19.36-8.44-6.44,0-12.36,2.34-17.04,6.26-11.64,11.05-11.66,34.17,0,45.45h0ZM776.5,252.92v-3.81l-3.32-5.24h2.14l2.14,3.58,2.08-3.58h2.1l-3.32,5.25v3.79h-1.83,0ZM764.42,252.92v-7.52h-2.68v-1.53h7.18v1.53h-2.67v7.52h-1.83ZM754.79,252.92v-9.05h1.83v9.05h-1.83ZM741.7,252.92v-9.05h1.77l3.72,6.06v-6.06h1.69v9.05h-1.83l-3.67-5.95v5.95h-1.69ZM728.56,243.87h1.83v4.9c0,.78.02,1.28.07,1.51.08.37.26.67.55.89.29.23.69.34,1.2.34s.9-.11,1.16-.32c.26-.21.42-.47.47-.78.05-.31.08-.82.08-1.54v-5.01h1.83v4.76c0,1.09-.05,1.85-.15,2.3-.1.45-.28.83-.55,1.14-.26.31-.62.55-1.06.74-.44.18-1.02.28-1.74.28-.86,0-1.51-.1-1.96-.3-.44-.2-.8-.46-1.05-.78-.26-.32-.43-.65-.51-1-.12-.52-.18-1.28-.18-2.3v-4.83h0ZM713.99,252.92v-9.05h2.74l1.62,6.17,1.6-6.17h2.75v9.05h-1.69v-7.12s-1.79,7.12-1.79,7.12h-1.76l-1.77-7.12v7.12h-1.7ZM699.44,252.92v-9.05h2.74l1.62,6.17,1.6-6.17h2.75v9.05h-1.69v-7.12s-1.79,7.12-1.79,7.12h-1.76l-1.77-7.12v7.12h-1.7ZM685.24,248.45c0-.92.14-1.7.41-2.32.2-.46.49-.88.84-1.24.36-.37.75-.64,1.17-.82.56-.24,1.21-.36,1.95-.36,1.33,0,2.4.41,3.2,1.24.8.83,1.2,1.98,1.2,3.46s-.4,2.61-1.19,3.43c-.79.83-1.86,1.24-3.19,1.24s-2.42-.41-3.21-1.23c-.79-.82-1.19-1.95-1.19-3.4h0ZM687.12,248.39c0,1.03.24,1.8.71,2.33.47.53,1.08.79,1.8.79s1.33-.26,1.8-.79c.47-.53.7-1.31.7-2.36s-.23-1.81-.68-2.32c-.45-.51-1.06-.77-1.81-.77s-1.36.26-1.82.77c-.46.52-.69,1.3-.69,2.34h0ZM678.26,249.58l1.77.54c-.27,1-.72,1.73-1.36,2.22-.63.48-1.43.72-2.4.72-1.2,0-2.19-.41-2.96-1.23-.77-.82-1.16-1.94-1.16-3.37,0-1.51.39-2.68,1.17-3.51s1.8-1.25,3.07-1.25c1.11,0,2.01.33,2.7.98.41.39.72.94.93,1.67l-1.81.43c-.11-.47-.33-.84-.67-1.11-.34-.27-.75-.41-1.24-.41-.67,0-1.22.24-1.63.72-.42.48-.63,1.26-.63,2.34,0,1.14.21,1.96.62,2.44.41.49.95.73,1.61.73.49,0,.91-.15,1.25-.46.35-.31.6-.79.75-1.46h0ZM653.65,252.92v-7.52h-2.68v-1.53h7.18v1.53h-2.67v7.52h-1.83ZM639.88,252.92v-9.05h6.22v1.53h-4.38v2.15h3.79v1.53h-3.79v3.84h-1.83ZM625.65,248.45c0-.92.14-1.7.41-2.32.2-.46.49-.88.84-1.24.36-.37.75-.64,1.17-.82.56-.24,1.21-.36,1.95-.36,1.33,0,2.4.41,3.2,1.24.8.83,1.2,1.98,1.2,3.46s-.4,2.61-1.19,3.43c-.79.83-1.86,1.24-3.19,1.24s-2.42-.41-3.21-1.23c-.79-.82-1.19-1.95-1.19-3.4h0ZM627.53,248.39c0,1.03.24,1.8.71,2.33.47.53,1.08.79,1.8.79s1.33-.26,1.8-.79c.47-.53.7-1.31.7-2.36s-.23-1.81-.68-2.32c-.45-.51-1.06-.77-1.81-.77s-1.36.26-1.82.77c-.46.52-.69,1.3-.69,2.34h0ZM613.1,249.99l1.78-.18c.11.6.32,1.03.65,1.31.33.28.77.42,1.32.42.59,0,1.03-.12,1.32-.37.3-.25.45-.54.45-.87,0-.21-.06-.4-.19-.55-.12-.15-.34-.28-.65-.39-.21-.08-.7-.21-1.45-.4-.97-.24-1.66-.54-2.05-.9-.55-.5-.83-1.11-.83-1.83,0-.46.13-.89.39-1.3.26-.4.64-.71,1.13-.92.49-.21,1.08-.32,1.77-.32,1.13,0,1.98.25,2.55.75.57.5.87,1.17.9,2.01l-1.83.06c-.08-.47-.24-.8-.5-1.01s-.64-.31-1.15-.31-.94.11-1.24.33c-.19.14-.29.33-.29.56,0,.21.09.4.27.55.23.2.79.4,1.67.61.89.21,1.54.43,1.96.65.43.23.76.53,1,.92s.36.87.36,1.44c0,.52-.14,1-.43,1.46-.29.45-.69.79-1.22,1.01-.53.22-1.18.33-1.97.33-1.14,0-2.02-.26-2.63-.79-.61-.53-.98-1.29-1.1-2.3h0ZM600.43,252.92v-9.05h3.85c.97,0,1.67.08,2.11.24.44.16.79.45,1.05.87.26.42.4.89.4,1.43,0,.68-.2,1.24-.6,1.68-.4.44-.99.72-1.78.84.39.23.72.48.97.76.26.28.6.77,1.04,1.47l1.1,1.76h-2.18l-1.31-1.97c-.47-.7-.79-1.14-.97-1.33-.17-.18-.36-.31-.55-.37-.2-.07-.5-.1-.92-.1h-.37v3.78h-1.83,0ZM602.27,247.7h1.35c.88,0,1.42-.04,1.64-.11.22-.07.39-.2.51-.38.12-.18.19-.41.19-.68,0-.31-.08-.55-.24-.74-.16-.19-.39-.31-.69-.35-.15-.02-.59-.03-1.33-.03h-1.43v2.3h0ZM592.84,252.92v-9.05h1.83v9.05h-1.83ZM587.9,252.92h-1.97l-.78-2.06h-3.63l-.75,2.06h-1.94l3.51-9.05h1.93l3.62,9.05ZM584.56,249.33l-1.26-3.35-1.22,3.35h2.48ZM565.96,251.82l-1.05,1.34c-.51-.25-1.01-.6-1.48-1.04-.36.33-.75.57-1.16.73-.41.16-.9.23-1.47.23-1.12,0-1.97-.32-2.54-.95-.44-.49-.66-1.05-.66-1.69,0-.58.17-1.1.52-1.57.35-.46.86-.87,1.55-1.21-.31-.37-.54-.72-.7-1.05-.16-.33-.24-.65-.24-.94,0-.55.22-1.01.66-1.39.44-.38,1.06-.57,1.87-.57s1.39.2,1.83.6c.44.4.66.89.66,1.46,0,.37-.11.71-.32,1.04-.22.33-.65.7-1.31,1.12l1.24,1.67c.15-.26.27-.6.38-1.03l1.57.35c-.16.56-.29.96-.41,1.22-.11.26-.24.47-.37.65.19.18.44.38.75.6.31.22.53.36.68.43h0ZM561.24,246.89l.47-.36c.34-.27.51-.53.51-.8,0-.22-.08-.41-.25-.57-.16-.16-.39-.24-.67-.24s-.49.07-.64.21c-.15.14-.23.3-.23.48,0,.21.13.47.39.78l.42.49h0ZM560.56,248.78c-.4.2-.69.45-.89.73-.2.28-.29.57-.29.87,0,.37.12.68.37.92.24.24.57.36.98.36.27,0,.53-.05.78-.16.25-.11.52-.28.82-.53l-1.76-2.18h0ZM537.39,252.92v-8.97h1.83v7.44h4.54v1.53h-6.37ZM525.65,252.92v-8.97h1.83v7.44h4.54v1.53h-6.37ZM520.6,252.92h-1.97l-.78-2.06h-3.63l-.75,2.06h-1.94l3.51-9.05h1.93l3.62,9.05ZM517.25,249.33l-1.26-3.35-1.22,3.35h2.48ZM499.31,243.87h3.62c.72,0,1.25.03,1.6.09.35.06.67.19.95.37.28.19.51.44.69.75.19.31.28.67.28,1.06,0,.42-.11.81-.34,1.16-.23.35-.54.62-.93.79.55.16.97.44,1.27.82.29.39.44.84.44,1.37,0,.41-.09.81-.29,1.2-.19.39-.45.7-.79.93-.33.23-.74.37-1.23.43-.3.03-1.04.05-2.2.06h-3.08v-9.05h0ZM501.14,245.37v2.08h1.2c.71,0,1.15-.01,1.32-.03.31-.04.56-.14.74-.32.18-.18.27-.41.27-.7s-.08-.51-.23-.68c-.15-.17-.38-.28-.69-.32-.18-.02-.7-.03-1.56-.03h-1.05ZM501.14,248.96v2.43h1.69c.66,0,1.08-.02,1.25-.05.27-.05.49-.17.66-.36.17-.19.26-.45.26-.77,0-.27-.07-.5-.2-.69-.13-.19-.32-.33-.57-.41-.25-.09-.79-.13-1.62-.13h-1.48,0ZM489.6,252.92v-7.52h-2.68v-1.53h7.18v1.53h-2.67v7.52h-1.83ZM474.42,252.92v-9.05h1.77l3.72,6.06v-6.06h1.69v9.05h-1.83l-3.67-5.95v5.95h-1.69ZM466.82,252.92v-9.05h1.83v9.05h-1.83ZM461.89,252.92h-1.97l-.78-2.06h-3.63l-.75,2.06h-1.94l3.51-9.05h1.93l3.62,9.05ZM458.54,249.33l-1.26-3.35-1.22,3.35h2.48ZM442.23,252.92v-9.05h2.93c1.11,0,1.83.04,2.17.13.52.14.95.43,1.3.89.35.46.52,1.04.52,1.76,0,.56-.1,1.02-.3,1.4-.2.38-.46.68-.77.89-.31.21-.63.36-.95.43-.44.09-1.07.13-1.89.13h-1.19v3.41h-1.83ZM444.06,245.4v2.58h1c.72,0,1.2-.05,1.44-.14.24-.1.43-.24.57-.45.14-.2.21-.44.21-.71,0-.33-.1-.6-.29-.82-.19-.21-.44-.35-.73-.4-.22-.04-.65-.06-1.31-.06h-.88,0ZM420.19,249.99l1.78-.18c.11.6.32,1.03.65,1.31.33.28.77.42,1.32.42.59,0,1.03-.12,1.32-.37.3-.25.45-.54.45-.87,0-.21-.06-.4-.19-.55-.12-.15-.34-.28-.65-.39-.21-.08-.7-.21-1.45-.4-.97-.24-1.66-.54-2.05-.9-.55-.5-.83-1.11-.83-1.83,0-.46.13-.89.39-1.3.26-.4.64-.71,1.13-.92.49-.21,1.08-.32,1.77-.32,1.13,0,1.98.25,2.55.75.57.5.87,1.17.9,2.01l-1.83.06c-.08-.47-.24-.8-.5-1.01s-.64-.31-1.15-.31-.94.11-1.24.33c-.19.14-.29.33-.29.56,0,.21.09.4.27.55.23.2.79.4,1.67.61.89.21,1.54.43,1.96.65.43.23.76.53,1,.92s.36.87.36,1.44c0,.52-.14,1-.43,1.46-.29.45-.69.79-1.22,1.01-.53.22-1.18.33-1.97.33-1.14,0-2.02-.26-2.63-.79-.61-.53-.98-1.29-1.1-2.3h0ZM413.07,243.87h1.73v1.24c0,.5-.04.9-.13,1.19-.09.29-.25.55-.49.78-.24.23-.55.41-.91.54l-.34-.72c.35-.12.59-.27.74-.48.15-.2.22-.48.23-.83h-.83v-1.73h0ZM398.9,248.45c0-.92.14-1.7.41-2.32.2-.46.49-.88.84-1.24.36-.37.75-.64,1.17-.82.56-.24,1.21-.36,1.95-.36,1.33,0,2.4.41,3.2,1.24.8.83,1.2,1.98,1.2,3.46s-.4,2.61-1.19,3.43c-.79.83-1.86,1.24-3.19,1.24s-2.42-.41-3.21-1.23c-.79-.82-1.19-1.95-1.19-3.4h0ZM400.79,248.39c0,1.03.24,1.8.71,2.33.47.53,1.08.79,1.8.79s1.33-.26,1.8-.79c.47-.53.7-1.31.7-2.36s-.23-1.81-.68-2.32c-.45-.51-1.06-.77-1.81-.77s-1.36.26-1.82.77c-.46.52-.69,1.3-.69,2.34h0ZM391.69,252.92v-9.05h1.83v9.05h-1.83ZM378.61,252.92v-9.05h3.85c.97,0,1.67.08,2.11.24.44.16.79.45,1.05.87.26.42.4.89.4,1.43,0,.68-.2,1.24-.6,1.68-.4.44-.99.72-1.78.84.39.23.72.48.97.76.26.28.6.77,1.04,1.47l1.1,1.76h-2.18l-1.31-1.97c-.47-.7-.79-1.14-.97-1.33-.17-.18-.36-.31-.55-.37-.2-.07-.5-.1-.92-.1h-.37v3.78h-1.83ZM380.44,247.7h1.35c.88,0,1.42-.04,1.64-.11.22-.07.39-.2.51-.38.12-.18.19-.41.19-.68,0-.31-.08-.55-.24-.74-.16-.19-.39-.31-.69-.35-.15-.02-.59-.03-1.33-.03h-1.43v2.3h0ZM373.61,252.92h-1.97l-.78-2.06h-3.63l-.75,2.06h-1.94l3.51-9.05h1.93l3.62,9.05ZM370.26,249.33l-1.26-3.35-1.22,3.35h2.48ZM356.69,252.92v-7.52h-2.68v-1.53h7.18v1.53h-2.67v7.52h-1.83ZM341.51,252.92v-9.05h1.77l3.72,6.06v-6.06h1.69v9.05h-1.83l-3.67-5.95v5.95h-1.69ZM327.28,248.45c0-.92.14-1.7.41-2.32.2-.46.49-.88.84-1.24.36-.37.75-.64,1.17-.82.56-.24,1.21-.36,1.95-.36,1.33,0,2.4.41,3.2,1.24.8.83,1.2,1.98,1.2,3.46s-.4,2.61-1.19,3.43c-.79.83-1.86,1.24-3.19,1.24s-2.42-.41-3.21-1.23c-.79-.82-1.19-1.95-1.19-3.4h0ZM329.17,248.39c0,1.03.24,1.8.71,2.33.47.53,1.08.79,1.8.79s1.33-.26,1.8-.79c.47-.53.7-1.31.7-2.36s-.23-1.81-.68-2.32c-.45-.51-1.06-.77-1.81-.77s-1.36.26-1.82.77c-.46.52-.69,1.3-.69,2.34h0ZM270.6,209.86v-105h32.81l21.37,39.37,21.37-39.37h32.81v104.99h-28.5v-59.06l-25.69,39.75-25.69-39.75v59.06h-28.5ZM469.64,134.92h-20.81v10.05c-6.57-6.84-15.59-11.06-25.54-11.06-20.09,0-36.38,17.18-36.38,38.38s16.29,38.38,36.38,38.38c9.95,0,18.97-4.22,25.54-11.06v10.23h20.81v-74.92h0ZM444.6,172.05c0-9.79-7.47-17.72-16.69-17.72s-16.69,7.93-16.69,17.72,7.47,17.72,16.69,17.72,16.69-7.93,16.69-17.72ZM543.93,145.13c-3.81,4.47-7.63,8.94-11.44,13.41-26.59-17.26-39.92-.59-21.06,3.36,11.54,2.42,36.35,2.63,33.59,26.78-3.02,26.45-50.3,27.92-70.09,8.77,4.06-4.78,8.13-9.56,12.19-14.34,8.84,6.36,19.66,12.36,29.92,7.2,3.86-1.94,7.22-7.49-6.47-9.86-11.87-2.05-25.84-2.66-31.2-15.78-9.33-22.83,19.13-39.42,49.77-28.17,6.17,2.27,10.48,5.45,14.8,8.64h0ZM551.94,209.78h25.78v-16.87l6.75-7.72,15.24,24.5s31.87,0,31.87-.16l-30.57-43.26,27.71-31.69h-31.69l-19.31,24.7v-54.53h-25.78v105.03h0ZM134.85,289.86c44.17-26.08,81.56-53.34,94.03-103.29,8.21-32.91,5.07-83.87,4.77-122.01-43.38-9.91-57.88-13.67-98.8-31.1-40.92,17.43-55.41,21.2-98.8,31.1-.3,38.14-3.44,89.09,4.77,122.01,12.46,49.95,49.86,77.21,94.03,103.29h0ZM202.23,252.78c-18.16,18.38-40.63,32.97-67.38,48.63-48.51-28.4-89.9-57.1-103.71-112.46-8.87-35.55-5.07-90.86-5.07-132.34,50.1-11.41,62-14,108.78-34,46.75,20,58.72,22.59,108.78,34,0,41.48,3.8,96.79-5.07,132.34-6.47,25.95-18.92,46.21-36.33,63.83h0ZM69.95,183.47c2.92,5.5,5.56,9.92,8.25,13.83-1.65.92-3.26,2.56-3.77,3.69-.97,2.14,2.37-.37,6.23-.26,2.16,2.88,4.4,5.54,6.9,8.27-2.96,1.88-3.04,5.58-.34,3.23.3-.26,1.02-1.04,1.64-1.83,2.36,2.52,4.94,5.13,7.87,8.03-2.56,2.82-3.65,5.47-3.98,9.59-3.54,1.57-9.67,3.89-9.34,8.05.32,3.94,4.42,3.19,6.47-.06,1.21-1.91,2.11-4.76,3.01-7.61,1.67-.81,6.98-4.02,8-3.98.72.03,1.98.68,2.84.92l.23.23v14.63c-1.78.13-4.66,5.19-2.83,5.49.62.1,2.04-2,2.83-3.61v21.96c9.78,7.05,20.21,13.58,30.89,19.92,10.68-6.34,21.11-12.86,30.89-19.92v-21.18c6,8.03,8.94,2.45,7.02-1.75-1.84-4.05-4.04-3.96-4.6-7.82-.4-2.75-1.25-10.85,3.83-8.39,12.7,6.15,9.25,8.83,12.75,13.3,4.78,6.11,11.01.03,2.59-5.4-2.37-1.53-5.06-2.04-5.97-4.74-.41-1.21-.34-2.74-.69-3.73-.36-1.02-3-3.12-1.71-6.36,1.32-3.31,6.28-2.24,8.78-.41,1.15.84,5.13,6.35,8.15,3.5.91-.86.86-2.51-.41-3.77-2.38-2.36-7.82-2.56-10.75-11.16,2.05-2.39,3.96-4.8,5.82-7.42l9.49-.18c-1.51-1.01-4.6-3.26-6.98-3.5,2.17-3.34,4.35-7.09,6.71-11.53-7.5,7.46-17.67,14.67-27.09,19.77-4.07,2.2-4.66,1.77-4.2,1,2.27-3.7,30.79-17.05,38.41-35.91,1.87-4.64,1.87-8.3,1.87-14.22s0-14.11-.51-19.81c-.51-5.7-1.52-8.92-4.58-11.92-8.36-8.21-20.87-8.54-32.82-6.67-16.93,2.65-18.4,4.58-36,4.58s-19.07-1.93-36-4.58c-11.95-1.87-24.46-1.54-32.82,6.67-3.05,3-4.07,6.22-4.58,11.92-.51,5.7-.51,13.89-.51,19.81s0,9.58,1.87,14.22c7.62,18.85,36.14,32.2,38.41,35.91.47.77-.13,1.2-4.2-1-9.42-5.1-19.59-12.31-27.09-19.77h0ZM134.85,166.85c-18.34,0-20.96,31.76-50.64,10.37-5.15-3.71-13.03-10.61-14.74-15.91-1.28-3.98-1.38-23.99.21-28.71,5.45-16.17,37.84-6.16,52.11-3.81,5.56.91,20.57.91,26.13,0,14.26-2.35,46.66-12.36,52.11,3.81,1.59,4.72,1.49,24.73.21,28.71-1.71,5.3-9.59,12.2-14.74,15.91-29.68,21.39-32.29-10.37-50.64-10.37h0ZM134.85,132.92c-9.85,0-10.51.09-20.67-2.08-13.95-2.99-37.51-8.04-41.19,2.89-1.35,4-1.21,23.38-.19,26.53,2.1,6.5,17.07,18.04,25.3,20.39,8.25,2.36,13.7-3.37,20.15-9.16,5.47-4.92,9.03-8.12,16.61-8.12s11.13,3.2,16.61,8.12c6.44,5.79,11.9,11.52,20.15,9.16,8.23-2.35,23.2-13.89,25.3-20.39,1.02-3.16,1.16-22.53-.19-26.53-3.68-10.92-27.24-5.88-41.19-2.89-10.16,2.18-10.82,2.08-20.67,2.08ZM134.19,268.31v7.23h1.33v-7.23c.7,0,1.48.02,2.58.17,1.46.2,3.47.62,5.49,1.04-.28-.5-.56-1-.8-1.52-.23-.52-.42-1.07-.34-1.48.09-.41.45-.7,1.93-1.81l6.7-5.02c-.8-.56-1.59-1.13-1.77-2.28s.26-2.91.7-4.66c-.78.39-1.56.78-2.3,1.01s-1.42.29-2.04-.17-1.16-1.45-1.71-2.43l-4.45,5.44,1.97-11.2c-.74.81-1.48,1.63-2.31,1.9s-1.74,0-2.47-1.01c-.73-1.02-1.28-2.78-1.83-4.55-.55,1.77-1.1,3.53-1.83,4.55-.73,1.02-1.65,1.28-2.47,1.01s-1.57-1.09-2.31-1.9l1.97,11.2-4.45-5.44c-.55.98-1.09,1.97-1.71,2.43-.62.46-1.3.4-2.04.17-.73-.23-1.52-.62-2.3-1.01.44,1.75.87,3.5.7,4.66-.18,1.16-.98,1.72-1.77,2.28l6.7,5.02c1.48,1.12,1.84,1.4,1.93,1.81.09.41-.1.96-.34,1.48s-.52,1.02-.8,1.52c2.02-.42,4.03-.84,5.49-1.04,1.1-.15,1.88-.17,2.58-.17h0ZM125.52,194.17h0c.95,0,1.73.78,1.73,1.73v27.67c0,.95-.78,1.73-1.73,1.73h0c-.95,0-1.73-.78-1.73-1.73v-27.67c0-.95.78-1.73,1.73-1.73ZM144.19,194.17h0c-.95,0-1.73.78-1.73,1.73v27.67c0,.95.78,1.73,1.73,1.73h0c.95,0,1.73-.78,1.73-1.73v-27.67c0-.95-.78-1.73-1.73-1.73ZM136.87,188.26v36.38c0,1.14-.9,2.08-2.02,2.15-1.12-.07-2.02-1.01-2.02-2.15v-36.38c0-1.14.9-2.08,2.02-2.15,1.12.07,2.02,1.01,2.02,2.15ZM153.65,200.35h0c-.95,0-1.73.78-1.73,1.73v17.92c0,.95.78,1.73,1.73,1.73h0c.95,0,1.73-.78,1.73-1.73v-17.92c0-.95-.78-1.73-1.73-1.73ZM116.05,200.35h0c.95,0,1.73.78,1.73,1.73v17.92c0,.95-.78,1.73-1.73,1.73h0c-.95,0-1.73-.78-1.73-1.73v-17.92c0-.95.78-1.73,1.73-1.73ZM134.85,171.01c-9.05,0-12.49,6.69-18.78,11.89-7.86,6.5-15.94,7.04-25.91,2.22-7.8-3.77-17.93-11.67-21.69-18.24-1.31-2.3-1.82-4.19-2.07-9.47-.25-5.27-.25-13.93-.1-19.23.22-7.35,1.07-11.67,8.47-14.87,8.66-3.75,19.2-2.87,29.17-.98,12.82,2.43,18.71,4.53,30.91,4.53s18.08-2.1,30.91-4.53c9.97-1.89,20.51-2.77,29.17.98,7.4,3.2,8.25,7.52,8.47,14.87.16,5.3.16,13.95-.1,19.23s-.76,7.17-2.07,9.47c-3.76,6.58-13.89,14.47-21.69,18.24-9.97,4.82-18.04,4.28-25.91-2.22-6.29-5.2-9.73-11.89-18.78-11.89h0ZM54.36,186.23c-1.73.64-1,2.6.73,1.96,1.73-.64,1-2.6-.73-1.96ZM83.8,213.06c-2.77.42-3.43,5.82-.19,3.03.78-.68,2.11-3.32.19-3.03ZM101.14,227.87c-5.88,5.25-1.65,7.01-.45,4.2.45-1.05.45-2.63.45-4.2ZM171.68,229.11c.97,6.5,3.57,4.94,3.7,3.63.18-1.81-2.2-2.92-3.7-3.63ZM181.5,218.34c8.76,3.63.91,9.25,0,0ZM195.12,205.76c-2.2-.53-2.85,2.14-.65,2.67s2.85-2.14.65-2.67ZM201.87,189.28c-.05-2.03-2.99-1.96-2.94.07s2.99,1.96,2.94-.07ZM212.29,180.25c-1.77.24-1.5,2.17.26,1.93,1.77-.24,1.5-2.17-.26-1.93ZM48.42,125.39c-1.48.02-1.44,2.35.04,2.33,1.48-.02,1.44-2.35-.04-2.33ZM73.5,202.73c-3.28,4.38-9.19,13.6-14.43,10.43-3.51-2.13-1.12-5.88,3.91-7.74,2.81-1.04,6.66-1.86,10.51-2.69h0ZM201,198.45c2.68,1.71,8.38,5.85,11.32,4.56,3.33-1.46,2.82-5.9-2.64-6.01-2.44-.05-5.56.7-8.69,1.45h0ZM214.58,160.65c1.32-.73,2.65-1.45,3.91-1.37,3.28.19,5.16,5.39-3.91,1.37ZM211.35,140.47c6.89-8.47,11.39-2.78,7.68-.86-1.58.81-4.63.84-7.68.86ZM68.58,93.29c-.94-.99-2.02.03-1.08,1.02.94.99,2.02-.03,1.08-1.02ZM77.1,100.84c-2.49-4.07-5.24-3.01,0,0ZM57.38,120.26c-4.6-4.76-9.26.65,0,0ZM58.73,145.91c-16.66-4.39-16.27,2.6-13.12,4.69,3.2,2.12,10.11-2.76,13.12-4.69ZM58.28,104.58c-2.37-2.94-5.86-7.66-9.7-6.66-3.92,1.02-3,6.45,3.45,6.81,1.8.1,4.02-.03,6.25-.15h0ZM70.89,75.75c-2.23-3.71-5.48-9.98-10.36-8.17-4.38,1.62-1.24,6.53,1.67,8.26,3.15,1.87,5.07.96,12.73,5.95-1.3-1.83-2.6-3.65-4.04-6.04h0ZM126.12,67.03c.07-2.2-2.07-2.27-2.14-.07-.07,2.2,2.07,2.27,2.14.07ZM144.53,76.54c2.21-12.61,5.82-10.13,4.98-7.55-.58,1.75-2.77,4.65-4.98,7.55ZM212.18,120.56c1.57-1.85,3.15-3.7,4.83-4.55,3.87-1.96,6.11,1.97,2.3,3.9-1.67.85-4.4.75-7.13.65h0ZM170.85,99.18c1.84-2.4,5.43-7.88,8.45-7.03.97.28,1.55,1.4.07,2.71-1.48,1.31-5,2.81-8.53,4.31h0ZM187.2,104.81c2.18-1.95,4.35-3.9,6.54-6.17,2.19-2.28,4.39-4.88,6.7-5.91,6.78-3.04,10.39,7.13-1.13,9.21-4.39.79-7.49,1.43-12.11,2.87h0ZM155.61,58.89c1.14-1.5-.68-2.88-1.82-1.38s.68,2.88,1.82,1.38ZM134.89,63.63c-1.19-4.73-3.89-12.83-.47-16.21,2.91-2.88,5.69.77,4.51,6.02-.66,2.92-2.34,6.56-4.03,10.19h0Z"/>
    </g>
  </g>
</svg>