<?xml version="1.0" encoding="UTF-8"?>
<svg id="Layer_1" xmlns="http://www.w3.org/2000/svg" version="1.1" xmlns:xodm="http://www.corel.com/coreldraw/odm/2003" viewBox="0 0 180 180">
  <!-- Generator: Adobe Illustrator 30.3.0, SVG Export Plug-In . SVG Version: 2.1.3 Build 182)  -->
  <defs>
    <style>
      .st0 {
        fill: none;
      }
    </style>
  </defs>
  <g id="Layer_x5F_1">
    <g id="_1364055332768">
      <g>
        <path d="M90,41.56c5.89,0,11.23,2.39,15.09,6.25,3.86,3.86,6.25,9.2,6.25,15.09s-2.39,11.23-6.25,15.09c-3.2,3.2-7.4,5.38-12.1,6.04l-.16.22-.23-.17c-.85.1-1.72.16-2.6.16s-1.75-.05-2.6-.16l-.23.17-.16-.22c-4.7-.66-8.9-2.85-12.1-6.04-3.86-3.86-6.25-9.2-6.25-15.09s2.39-11.23,6.25-15.09,9.2-6.25,15.09-6.25h0ZM88.31,43.43c-2.42,2.7-4.25,5.4-5.56,8.09,2.12.6,4.24.94,6.35,1.01v-9.15c-.27.01-.53.03-.79.05ZM82.01,53.18c-1.19,2.94-1.76,5.88-1.78,8.82h8.86v-7.66c-2.36-.08-4.73-.46-7.09-1.15ZM80.29,63.8c.2,2.9.92,5.8,2.1,8.71,2.23-.62,4.47-.97,6.7-1.04v-7.66h-8.81ZM83.12,74.17c1.26,2.72,2.9,5.44,4.87,8.16.37.04.74.06,1.11.08v-9.15c-1.99.07-3.99.37-5.98.91h0ZM85.51,81.92c-1.64-2.4-3.02-4.81-4.12-7.22-1.67.57-3.35,1.3-5.02,2.19,2.49,2.43,5.64,4.2,9.14,5.03h0ZM80.68,73.04c-1.23-3.08-1.98-6.16-2.18-9.24h-8.01c.2,4.47,1.9,8.54,4.61,11.73,1.86-1.02,3.72-1.85,5.58-2.49h0ZM78.44,62c.02-3.13.61-6.25,1.85-9.37-1.73-.62-3.47-1.41-5.2-2.36-2.71,3.19-4.41,7.27-4.61,11.73h7.96ZM81.02,50.97c1.12-2.37,2.63-4.74,4.56-7.11-3.53.82-6.7,2.59-9.21,5.04,1.55.83,3.1,1.52,4.65,2.06ZM94.42,43.86c1.92,2.36,3.43,4.73,4.55,7.1,1.55-.55,3.1-1.23,4.66-2.06-2.51-2.45-5.68-4.22-9.21-5.04h0ZM99.7,52.62c1.25,3.12,1.84,6.25,1.86,9.38h7.96c-.2-4.47-1.9-8.54-4.61-11.74-1.73.95-3.47,1.74-5.2,2.35ZM101.5,63.8c-.2,3.09-.95,6.17-2.19,9.25,1.86.64,3.72,1.47,5.58,2.49,2.71-3.19,4.41-7.27,4.62-11.74h-8.01ZM98.61,74.7c-1.1,2.41-2.48,4.81-4.12,7.21,3.51-.83,6.65-2.59,9.14-5.03-1.68-.89-3.35-1.62-5.03-2.19h0ZM92.01,82.33c1.97-2.72,3.61-5.44,4.87-8.16-1.99-.54-3.99-.84-5.98-.92v9.15c.37-.02.74-.04,1.11-.08h0ZM97.6,72.51c1.18-2.91,1.9-5.82,2.1-8.71h-8.81v7.66c2.24.08,4.47.43,6.7,1.05ZM99.76,62c-.02-2.94-.59-5.88-1.78-8.82-2.36.69-4.72,1.08-7.08,1.16v7.66h8.86,0ZM97.25,51.52c-1.3-2.69-3.14-5.38-5.55-8.08-.26-.02-.53-.04-.79-.05v9.15c2.11-.08,4.23-.42,6.35-1.02Z"/>
        <path d="M33.07,104.62c-.92,0-1.77-.22-2.54-.65s-1.38-1.03-1.84-1.8-.68-1.64-.68-2.6.23-1.82.68-2.59c.45-.77,1.06-1.37,1.84-1.8s1.62-.65,2.54-.65,1.78.22,2.55.65c.77.43,1.37,1.03,1.82,1.8.45.77.67,1.63.67,2.59s-.22,1.84-.67,2.6c-.45.77-1.06,1.37-1.83,1.8-.77.43-1.62.65-2.54.65ZM33.07,102.8c.59,0,1.12-.13,1.57-.4.45-.27.8-.64,1.06-1.13.25-.48.38-1.05.38-1.7s-.13-1.22-.38-1.7c-.25-.49-.61-.86-1.06-1.12-.45-.26-.97-.4-1.57-.4s-1.12.13-1.57.4c-.46.26-.81.64-1.07,1.12-.25.48-.38,1.05-.38,1.7s.13,1.22.38,1.7c.25.49.61.86,1.07,1.13.46.27.98.4,1.57.4ZM48.15,104.52h-1.98l-4.48-6.76v6.76h-1.98v-9.87h1.98l4.48,6.78v-6.78h1.98v9.87ZM52.21,103.01h3.25v1.51h-5.22v-9.86h1.98v8.34h0ZM58.83,94.66v9.86h-1.98v-9.86h1.98ZM69.34,104.52h-1.98l-4.48-6.76v6.76h-1.98v-9.87h1.98l4.48,6.78v-6.78h1.98v9.87ZM73.41,96.2v2.56h3.32v1.52h-3.32v2.67h3.74v1.57h-5.72v-9.87h5.72v1.55h-3.74ZM79.95,104.62c-.36,0-.65-.11-.88-.33-.23-.22-.35-.5-.35-.83s.12-.6.35-.83c.23-.22.52-.33.88-.33s.64.11.86.33c.23.22.34.5.34.83s-.11.6-.34.83c-.23.22-.51.33-.86.33ZM96.39,102.64h-3.93l-.65,1.88h-2.08l3.54-9.87h2.3l3.54,9.87h-2.09l-.65-1.88h0ZM95.87,101.1l-1.44-4.17-1.44,4.17h2.88,0ZM102.57,103.01h3.25v1.51h-5.22v-9.86h1.98v8.34h0ZM120.39,94.66l-2.75,9.86h-2.33l-1.85-7.02-1.93,7.02h-2.32s-2.65-9.86-2.65-9.86h2.12l1.74,7.65,2.01-7.65h2.2l1.89,7.61,1.75-7.61h2.13ZM127.85,102.64h-3.93l-.65,1.88h-2.08l3.54-9.87h2.3l3.54,9.87h-2.09l-.65-1.88h0ZM127.33,101.1l-1.44-4.17-1.44,4.17h2.88,0ZM139.89,94.66l-3.33,6.42v3.43h-1.98v-3.43l-3.35-6.42h2.23l2.1,4.49,2.09-4.49h2.23ZM144.58,104.62c-.69,0-1.31-.12-1.86-.35-.55-.24-.99-.57-1.31-1.02-.32-.44-.48-.96-.49-1.57h2.12c.03.41.17.74.43.99.26.24.61.37,1.07.37s.82-.11,1.09-.34.4-.53.4-.9c0-.29-.09-.53-.27-.72-.18-.19-.4-.34-.67-.44-.27-.11-.64-.23-1.11-.36-.64-.19-1.16-.37-1.56-.56s-.74-.46-1.03-.83c-.29-.37-.43-.87-.43-1.49,0-.58.15-1.09.44-1.52.29-.43.7-.76,1.23-1,.53-.23,1.13-.35,1.81-.35,1.02,0,1.84.25,2.48.74.64.49.99,1.18,1.05,2.07h-2.17c-.02-.37-.16-.66-.43-.88-.27-.22-.62-.33-1.07-.33-.39,0-.69.1-.93.3-.23.2-.35.5-.35.9,0,.26.09.48.26.66s.39.32.65.42c.26.11.62.23,1.09.37.64.19,1.16.38,1.57.56s.75.47,1.04.85c.29.38.44.87.44,1.48,0,.53-.14,1.02-.41,1.47-.27.45-.67.81-1.2,1.08-.53.27-1.15.4-1.88.4h0ZM150.79,104.62c-.36,0-.65-.11-.88-.33-.23-.22-.35-.5-.35-.83s.12-.6.35-.83.52-.33.88-.33.64.11.86.33c.23.22.34.5.34.83s-.11.6-.34.83c-.23.22-.51.33-.86.33Z"/>
        <path d="M39.15,119.27c0-.68.16-1.3.48-1.84.32-.54.75-.97,1.3-1.27.55-.31,1.15-.46,1.8-.46.75,0,1.41.18,1.99.55s1,.88,1.26,1.56h-1.38c-.18-.35-.43-.61-.76-.79-.32-.18-.69-.27-1.12-.27-.46,0-.88.1-1.24.31-.36.21-.65.5-.85.89-.2.38-.31.83-.31,1.33s.1.95.31,1.33c.21.39.49.68.85.89s.78.31,1.24.31c.42,0,.8-.09,1.12-.27.32-.18.57-.44.76-.79h1.38c-.26.67-.68,1.19-1.26,1.55-.58.36-1.24.54-1.99.54-.66,0-1.26-.15-1.8-.46s-.98-.73-1.29-1.27c-.32-.54-.48-1.16-.48-1.84h0ZM49.84,122.88c-.52,0-1-.12-1.42-.36-.42-.24-.76-.57-1-1.01-.24-.43-.36-.94-.36-1.51s.12-1.06.37-1.5c.25-.44.59-.77,1.02-1.01.43-.23.91-.35,1.44-.35s1.01.12,1.44.35.77.57,1.02,1.01c.25.44.37.94.37,1.5s-.13,1.06-.38,1.5c-.25.44-.6.77-1.04,1.01s-.93.36-1.46.36h0ZM49.84,121.91c.3,0,.57-.07.83-.22.26-.15.47-.36.63-.65s.24-.63.24-1.03-.08-.75-.23-1.03c-.15-.29-.36-.5-.61-.64-.25-.14-.53-.22-.83-.22s-.57.07-.82.22c-.25.14-.45.36-.6.64-.15.29-.23.63-.23,1.03s.07.75.22,1.04.34.51.58.65c.25.14.52.22.81.22ZM56.77,117.15c.44,0,.83.09,1.17.27.35.18.62.45.81.81s.29.79.29,1.29v3.27h-1.14v-3.1c0-.5-.12-.88-.37-1.14-.25-.27-.59-.4-1.02-.4s-.77.13-1.02.4c-.25.26-.38.65-.38,1.14v3.1h-1.15v-5.55h1.15v.63c.19-.23.43-.41.72-.53s.6-.19.93-.19h0ZM63.41,117.15c.44,0,.83.09,1.17.27.35.18.62.45.81.81s.29.79.29,1.29v3.27h-1.14v-3.1c0-.5-.12-.88-.37-1.14-.25-.27-.59-.4-1.02-.4s-.77.13-1.02.4c-.25.26-.38.65-.38,1.14v3.1h-1.15v-5.55h1.15v.63c.19-.23.43-.41.72-.53s.6-.19.93-.19h0ZM72.34,119.86c0,.19-.01.38-.04.54h-4.25c.03.46.2.83.49,1.1.3.27.66.41,1.1.41.62,0,1.05-.26,1.31-.78h1.24c-.17.51-.47.93-.91,1.25-.44.33-.99.49-1.64.49-.53,0-1.01-.12-1.42-.36-.42-.24-.75-.57-.99-1.01-.24-.43-.36-.94-.36-1.51s.12-1.07.35-1.51c.23-.43.56-.77.98-1,.42-.23.9-.35,1.45-.35s.99.11,1.4.34c.41.23.73.55.96.96.23.41.34.88.34,1.41h0ZM71.14,119.57c0-.45-.16-.81-.45-1.07-.29-.26-.66-.39-1.1-.39-.4,0-.75.13-1.03.39-.29.26-.45.62-.5,1.07h3.08ZM73.2,120.01c0-.57.12-1.07.35-1.51.23-.43.55-.77.96-1,.41-.23.88-.35,1.41-.35.67,0,1.23.16,1.67.48s.74.77.89,1.37h-1.24c-.1-.28-.26-.49-.48-.64-.22-.15-.5-.23-.84-.23-.47,0-.84.17-1.12.5-.28.33-.42.8-.42,1.39s.14,1.06.42,1.4c.28.34.65.5,1.12.5.66,0,1.1-.29,1.32-.88h1.24c-.16.56-.46,1.01-.91,1.34-.44.33-.99.5-1.65.5-.53,0-1-.12-1.41-.36-.41-.24-.73-.57-.96-1.01-.23-.43-.35-.94-.35-1.51h0ZM81.07,118.18v3.07c0,.21.05.36.15.45s.26.14.5.14h.7v.96h-.91c-.52,0-.91-.12-1.19-.36s-.41-.63-.41-1.18v-3.07h-.65v-.94h.65v-1.38h1.16v1.38h1.35v.94h-1.35ZM88.67,119.86c0,.19-.01.38-.04.54h-4.25c.03.46.2.83.49,1.1.3.27.66.41,1.1.41.62,0,1.05-.26,1.31-.78h1.24c-.17.51-.47.93-.91,1.25-.44.33-.99.49-1.64.49-.53,0-1.01-.12-1.42-.36-.42-.24-.75-.57-.99-1.01-.24-.43-.36-.94-.36-1.51s.12-1.07.35-1.51c.23-.43.56-.77.98-1,.42-.23.9-.35,1.45-.35s.99.11,1.4.34c.41.23.73.55.96.96.23.41.34.88.34,1.41h0ZM87.47,119.57c0-.45-.16-.81-.45-1.07-.29-.26-.66-.39-1.1-.39-.4,0-.75.13-1.03.39-.29.26-.45.62-.5,1.07,0,0,3.08,0,3.08,0ZM89.53,119.99c0-.56.12-1.05.35-1.48.23-.43.55-.76.95-1s.84-.36,1.33-.36c.36,0,.72.08,1.07.24.35.16.63.37.84.63v-2.68h1.16v7.45h-1.16v-.84c-.19.27-.45.49-.78.66-.33.17-.71.26-1.14.26-.48,0-.93-.12-1.32-.37-.4-.25-.71-.59-.95-1.03s-.35-.94-.35-1.5h0ZM94.07,120.01c0-.38-.08-.71-.24-1-.16-.28-.36-.5-.62-.64-.25-.15-.53-.22-.83-.22s-.57.07-.83.22c-.25.14-.46.36-.62.63-.16.28-.24.61-.24.99s.08.72.24,1.01c.16.29.37.51.62.66.26.15.53.23.82.23s.57-.07.83-.22c.25-.15.46-.36.62-.65s.24-.62.24-1h0ZM105.21,122.88c-.52,0-1-.12-1.42-.36-.42-.24-.76-.57-1-1.01-.24-.43-.36-.94-.36-1.51s.12-1.06.37-1.5c.25-.44.59-.77,1.02-1.01.43-.23.91-.35,1.44-.35s1.01.12,1.44.35.77.57,1.02,1.01c.25.44.37.94.37,1.5s-.13,1.06-.38,1.5c-.25.44-.6.77-1.04,1.01s-.93.36-1.46.36h0ZM105.21,121.91c.3,0,.57-.07.83-.22.26-.15.47-.36.63-.65s.24-.63.24-1.03-.08-.75-.23-1.03c-.15-.29-.36-.5-.61-.64-.25-.14-.53-.22-.83-.22s-.57.07-.82.22c-.25.14-.45.36-.6.64s-.23.63-.23,1.03.07.75.22,1.04.34.51.58.65c.25.14.52.22.81.22ZM112.14,117.15c.44,0,.83.09,1.17.27.35.18.62.45.81.81s.29.79.29,1.29v3.27h-1.14v-3.1c0-.5-.12-.88-.37-1.14-.25-.27-.59-.4-1.02-.4s-.77.13-1.02.4c-.25.26-.38.65-.38,1.14v3.1h-1.15v-5.55h1.15v.63c.19-.23.43-.41.72-.53s.6-.19.93-.19h0ZM121.56,119.99c0-.56.12-1.05.35-1.48.23-.43.55-.76.95-1s.84-.36,1.32-.36c.44,0,.82.09,1.14.26.33.17.59.38.78.64v-.81h1.16v5.55h-1.16v-.83c-.19.26-.46.48-.8.65-.34.17-.72.26-1.15.26-.48,0-.91-.12-1.31-.37-.4-.25-.71-.59-.94-1.03s-.35-.94-.35-1.5ZM126.1,120.01c0-.38-.08-.71-.24-1-.16-.28-.36-.5-.62-.64-.25-.15-.53-.22-.83-.22s-.57.07-.83.22c-.25.14-.46.36-.62.63-.16.28-.24.61-.24.99s.08.72.24,1.01c.16.29.37.51.62.66.26.15.53.23.82.23s.57-.07.83-.22c.25-.15.46-.36.62-.65s.24-.62.24-1h0ZM131.68,117.15c.44,0,.83.09,1.17.27.35.18.62.45.81.81s.29.79.29,1.29v3.27h-1.14v-3.1c0-.5-.12-.88-.37-1.14-.25-.27-.59-.4-1.02-.4s-.77.13-1.02.4c-.25.26-.38.65-.38,1.14v3.1h-1.15v-5.55h1.15v.63c.19-.23.43-.41.72-.53s.6-.19.93-.19h0ZM135.15,119.99c0-.56.12-1.05.35-1.48.23-.43.55-.76.95-1s.84-.36,1.33-.36c.36,0,.72.08,1.07.24.35.16.63.37.84.63v-2.68h1.16v7.45h-1.16v-.84c-.19.27-.45.49-.78.66-.33.17-.71.26-1.14.26-.48,0-.93-.12-1.32-.37-.4-.25-.71-.59-.95-1.03s-.35-.94-.35-1.5h0ZM139.69,120.01c0-.38-.08-.71-.24-1-.16-.28-.36-.5-.62-.64-.25-.15-.53-.22-.83-.22s-.57.07-.83.22c-.25.14-.46.36-.62.63-.16.28-.24.61-.24.99s.08.72.24,1.01c.16.29.37.51.62.66.26.15.53.23.82.23s.57-.07.83-.22c.25-.15.46-.36.62-.65s.24-.62.24-1h0ZM59.98,138.44c-.52,0-1-.12-1.42-.36-.42-.24-.76-.57-1-1.01-.24-.43-.36-.94-.36-1.51s.12-1.06.37-1.5c.25-.44.59-.77,1.02-1.01.43-.23.91-.35,1.44-.35s1.01.12,1.44.35.77.57,1.02,1.01c.25.44.37.94.37,1.5s-.13,1.06-.38,1.5c-.25.44-.6.77-1.04,1.01s-.93.36-1.46.36h0ZM59.98,137.47c.3,0,.57-.07.83-.22.26-.15.47-.36.63-.65s.24-.63.24-1.03-.08-.75-.23-1.03c-.15-.29-.36-.5-.61-.64-.25-.14-.53-.22-.83-.22s-.57.07-.82.22c-.25.14-.45.36-.6.64-.15.29-.23.63-.23,1.03s.07.75.22,1.04.34.51.58.65c.25.14.52.22.81.22ZM66.43,133.74h-1.03v4.61h-1.16v-4.61h-.65v-.94h.65v-.39c0-.64.17-1.1.51-1.39.34-.29.87-.44,1.6-.44v.96c-.35,0-.59.07-.74.2-.14.13-.21.36-.21.68v.39h1.03v.94h0ZM69.89,133.74h-1.03v4.61h-1.16v-4.61h-.65v-.94h.65v-.39c0-.64.17-1.1.51-1.39.34-.29.87-.44,1.6-.44v.96c-.35,0-.59.07-.74.2-.14.13-.21.36-.21.68v.39h1.03v.94h0ZM78.31,133.74v3.07c0,.21.05.36.15.45s.26.14.5.14h.7v.96h-.91c-.52,0-.91-.12-1.19-.36s-.41-.63-.41-1.18v-3.07h-.65v-.94h.65v-1.38h1.16v1.38h1.35v.94h-1.35ZM83.7,132.71c.42,0,.8.09,1.13.27s.59.45.79.81c.19.36.29.79.29,1.29v3.27h-1.14v-3.1c0-.5-.12-.88-.37-1.14-.25-.27-.59-.4-1.02-.4s-.77.13-1.02.4c-.25.26-.38.65-.38,1.14v3.1h-1.15v-7.45h1.15v2.55c.19-.23.44-.42.74-.54s.63-.19.98-.19h0ZM92.56,135.42c0,.19-.01.38-.04.54h-4.25c.03.46.2.83.49,1.1.3.27.66.41,1.1.41.62,0,1.05-.26,1.31-.78h1.24c-.17.51-.47.93-.91,1.25-.44.33-.99.49-1.64.49-.53,0-1.01-.12-1.42-.36-.42-.24-.75-.57-.99-1.01-.24-.43-.36-.94-.36-1.51s.12-1.07.35-1.51c.23-.43.56-.77.98-1,.42-.23.9-.35,1.45-.35s.99.11,1.4.34c.41.23.73.55.96.96.23.41.34.88.34,1.41h0ZM91.36,135.14c0-.45-.16-.81-.45-1.07-.29-.26-.66-.39-1.1-.39-.4,0-.75.13-1.03.39-.29.26-.45.62-.5,1.07,0,0,3.08,0,3.08,0ZM101.05,132.8h3.19v5.55h-1.15v-4.61h-2.04v4.61h-1.16v-4.61h-.65v-.94h.65v-.39c0-.64.17-1.1.51-1.39.34-.29.87-.44,1.6-.44v.96c-.35,0-.59.07-.74.2-.14.13-.21.36-.21.68v.39h0ZM103.67,132.07c-.2,0-.37-.07-.51-.21s-.21-.32-.21-.52.07-.38.21-.52.31-.21.51-.21.38.07.52.21c.14.14.21.32.21.52s-.07.38-.21.52c-.14.14-.32.21-.52.21ZM110.95,135.42c0,.19-.01.38-.04.54h-4.25c.03.46.2.83.49,1.1.3.27.66.41,1.1.41.62,0,1.05-.26,1.31-.78h1.24c-.17.51-.47.93-.91,1.25-.44.33-.99.49-1.64.49-.53,0-1.01-.12-1.42-.36-.42-.24-.75-.57-.99-1.01-.24-.43-.36-.94-.36-1.51s.12-1.07.35-1.51c.23-.43.56-.77.98-1,.42-.23.9-.35,1.45-.35s.99.11,1.4.34c.41.23.73.55.96.96.23.41.34.88.34,1.41h0ZM109.75,135.14c0-.45-.16-.81-.45-1.07-.29-.26-.66-.39-1.1-.39-.4,0-.75.13-1.03.39-.29.26-.45.62-.5,1.07,0,0,3.08,0,3.08,0ZM113.34,130.9v7.45h-1.15v-7.45h1.15ZM114.57,135.55c0-.56.12-1.05.35-1.48.23-.43.55-.76.95-1s.84-.36,1.33-.36c.36,0,.72.08,1.07.24.35.16.63.37.84.63v-2.68h1.16v7.45h-1.16v-.84c-.19.27-.45.49-.78.66-.33.17-.71.26-1.14.26-.48,0-.93-.12-1.32-.37-.4-.25-.71-.59-.95-1.03s-.35-.94-.35-1.5h0ZM119.12,135.57c0-.38-.08-.71-.24-1-.16-.28-.36-.5-.62-.64-.25-.15-.53-.22-.83-.22s-.57.07-.83.22c-.25.14-.46.36-.62.63-.16.28-.24.61-.24.99s.08.72.24,1.01c.16.29.37.51.62.66.26.15.53.23.82.23s.57-.07.83-.22c.25-.15.46-.36.62-.65s.24-.62.24-1h0ZM122.36,138.42c-.21,0-.38-.07-.52-.21s-.21-.32-.21-.52.07-.38.21-.52.32-.21.52-.21.37.07.51.21c.14.14.21.32.21.52s-.07.38-.21.52c-.14.14-.31.21-.51.21Z"/>
      </g>
      <polygon class="st0" points="0 0 180 0 180 180 0 180 0 0"/>
    </g>
  </g>
</svg>