<?xml version="1.0" encoding="UTF-8"?>
<svg id="Layer_1" xmlns="http://www.w3.org/2000/svg" version="1.1" xmlns:xodm="http://www.corel.com/coreldraw/odm/2003" viewBox="0 0 180 180">
  <!-- Generator: Adobe Illustrator 30.3.0, SVG Export Plug-In . SVG Version: 2.1.3 Build 182)  -->
  <defs>
    <style>
      .st0 {
        fill: none;
      }

      .st1 {
        fill-rule: evenodd;
      }
    </style>
  </defs>
  <g id="Layer_x5F_1">
    <g id="_1364054433808">
      <g>
        <path class="st1" d="M86.7,61.76c.12.27.27.53.41.79-1.05-.22-2.1-.44-2.86-.54-.57-.08-.98-.09-1.34-.09v3.76h-.69v-3.76c-.36,0-.77,0-1.34.09-.76.1-1.81.32-2.86.54.15-.26.29-.52.41-.79.12-.27.22-.56.17-.77s-.23-.36-1-.94l-3.49-2.61c.41-.29.83-.59.92-1.19.09-.6-.13-1.51-.36-2.42.41.2.81.41,1.2.52.38.12.74.15,1.06-.09s.61-.75.89-1.27l2.32,2.83-1.02-5.83c.39.42.77.85,1.2.99.43.14.91,0,1.29-.52.38-.53.67-1.45.95-2.37.29.92.57,1.84.95,2.37.38.53.86.67,1.29.52.43-.14.82-.57,1.2-.99l-1.02,5.83,2.32-2.83c.28.51.57,1.03.89,1.27s.68.21,1.06.09c.38-.12.79-.32,1.2-.52-.23.91-.46,1.82-.36,2.42.09.6.51.89.92,1.19l-3.49,2.61c-.77.58-.96.73-1,.94-.04.22.05.5.17.77ZM93,78.82c4.99.55,10.75-.71,13.87,4.77.62,1.09.4,1.3-.06,1.68-3.53,2.87-3.08-.11-5.51-2.23-.92-.8-2.17-.18-1.38.91,2.06,2.83.96,1.11.26,3.63-.29,1.04-.23,2.76-.56,3.77-.4,1.19-3.41,3.19-3.09,5.34.37,2.46,5.44-1.32,6.55-1.82,1.36-.62,2.5-.62,3.3-.91.8-.3,1.25-.89,1.97-1.22s1.7-.39,2.19-.59c2.33-.92-5.74-.84-.88-3.37,3.08-1.6,4.3-.32,7.41-1.89,2.5-1.26,10.1-6.83,6.48-7.2-1.16-.12-3.38.59-4.92.36-2.93-.43-1.71-2.45-6.04-2.45-3.92,0-5.02-1.2-6.01-6.38-.64-3.34-1.22-8.56-1.8-13.78-1.31.14-2.63.28-4.28-.84-4.97-3.35-5.58-8.72-5.42-14.49-8.8-.68-8.66-1.87-11.13-2.2-1.26-.16-2.45.24-4.17-.62-1.73-.86-3.99-2.98-6.26-5.11l-17.95,16.97-.09,15.42c.67.7,1.34,1.41,2.86,1.81,1.52.41,3.88.52,5.27,1.18,1.39.66,3.41,4.62,9.35,1.68,2.12-1.05,3.85-2.95,5.72-3.41,4.27-1.05,6.07,3.6,6.41,3.81.63.4,1.95.24,2.57,1.02,1.33,1.67-.53,5.47,5.34,6.13Z"/>
        <path d="M34.84,109.89c-.92,0-1.77-.22-2.54-.65s-1.38-1.03-1.84-1.8-.68-1.64-.68-2.6.23-1.82.68-2.59c.45-.77,1.06-1.37,1.84-1.8s1.62-.65,2.54-.65,1.78.22,2.55.65c.77.43,1.37,1.03,1.82,1.8.45.77.67,1.63.67,2.59s-.22,1.84-.67,2.6c-.45.77-1.06,1.37-1.83,1.8-.77.43-1.62.65-2.54.65ZM34.84,108.06c.59,0,1.12-.13,1.57-.4.45-.27.8-.64,1.06-1.13.25-.48.38-1.05.38-1.7s-.13-1.22-.38-1.7c-.25-.49-.61-.86-1.06-1.12-.45-.26-.97-.4-1.57-.4s-1.12.13-1.57.4c-.46.26-.81.64-1.07,1.12-.25.48-.38,1.05-.38,1.7s.13,1.22.38,1.7c.25.49.61.86,1.07,1.13.46.27.98.4,1.57.4ZM49.91,109.79h-1.98l-4.48-6.76v6.76h-1.98v-9.87h1.98l4.48,6.78v-6.78h1.98v9.87ZM58.71,99.93v1.55h-2.63v8.3h-1.98v-8.3h-2.63v-1.55h7.23ZM66.33,107.91h-3.93l-.65,1.88h-2.08l3.54-9.87h2.3l3.54,9.87h-2.09l-.65-1.88h0ZM65.81,106.37l-1.44-4.17-1.44,4.17h2.88,0ZM75.61,109.79l-2.17-3.84h-.93v3.84h-1.98v-9.86h3.7c.76,0,1.41.13,1.95.4.54.27.94.63,1.21,1.09.27.46.4.97.4,1.53,0,.65-.19,1.24-.56,1.76s-.94.88-1.68,1.08l2.36,4h-2.29ZM72.51,104.48h1.65c.54,0,.94-.13,1.2-.4s.4-.63.4-1.09-.13-.82-.4-1.08-.66-.39-1.2-.39h-1.65v2.95h0ZM81.7,99.93v9.86h-1.98v-9.86h1.98ZM88.36,109.89c-.92,0-1.77-.22-2.54-.65-.77-.43-1.38-1.03-1.84-1.8s-.68-1.64-.68-2.6.23-1.82.68-2.59c.45-.77,1.06-1.37,1.84-1.8s1.62-.65,2.54-.65,1.78.22,2.55.65c.77.43,1.37,1.03,1.82,1.8.45.77.67,1.63.67,2.59s-.22,1.84-.67,2.6c-.45.77-1.06,1.37-1.83,1.8-.77.43-1.62.65-2.54.65ZM88.36,108.06c.59,0,1.12-.13,1.57-.4.45-.27.8-.64,1.06-1.13.25-.48.38-1.05.38-1.7s-.13-1.22-.38-1.7c-.25-.49-.61-.86-1.06-1.12-.45-.26-.97-.4-1.57-.4s-1.12.13-1.57.4c-.46.26-.81.64-1.07,1.12-.25.48-.38,1.05-.38,1.7s.13,1.22.38,1.7c.25.49.61.86,1.07,1.13.46.27.98.4,1.57.4ZM109.65,102.98c0,.53-.12,1.02-.37,1.48-.25.46-.64.83-1.17,1.12s-1.2.42-2.01.42h-1.65v3.78h-1.98v-9.86h3.63c.76,0,1.41.13,1.95.4.54.26.94.63,1.21,1.09.27.46.4.98.4,1.57h0ZM106.01,104.45c.54,0,.94-.13,1.21-.4.27-.26.4-.62.4-1.07s-.13-.84-.4-1.09-.67-.39-1.21-.39h-1.57v2.95h1.57ZM116.27,109.79l-2.17-3.84h-.93v3.84h-1.98v-9.86h3.7c.76,0,1.41.13,1.95.4.54.27.94.63,1.21,1.09.27.46.4.97.4,1.53,0,.65-.19,1.24-.56,1.76s-.94.88-1.68,1.08l2.36,4h-2.29ZM113.17,104.48h1.65c.54,0,.94-.13,1.2-.4s.4-.63.4-1.09-.13-.82-.4-1.08-.66-.39-1.2-.39h-1.65v2.95h0ZM124.95,109.88c-.92,0-1.77-.22-2.54-.65-.77-.43-1.38-1.03-1.84-1.8s-.68-1.64-.68-2.6.23-1.82.68-2.59c.45-.77,1.06-1.37,1.84-1.8s1.62-.65,2.54-.65,1.78.22,2.55.65c.77.43,1.37,1.03,1.82,1.8.45.77.67,1.63.67,2.59s-.22,1.84-.67,2.6c-.45.77-1.06,1.37-1.83,1.8-.77.43-1.62.65-2.54.65ZM124.95,108.06c.59,0,1.12-.13,1.57-.4.45-.27.8-.64,1.06-1.13.25-.48.38-1.05.38-1.7s-.13-1.22-.38-1.7c-.25-.49-.61-.86-1.06-1.12-.45-.26-.97-.4-1.57-.4s-1.12.13-1.57.4c-.46.26-.81.64-1.07,1.12-.25.48-.38,1.05-.38,1.7s.13,1.22.38,1.7c.25.49.61.86,1.07,1.13.46.27.98.4,1.57.4ZM133.55,99.93v6.09c0,.67.17,1.18.52,1.53.35.35.84.53,1.47.53s1.13-.18,1.48-.53c.35-.35.52-.86.52-1.53v-6.09h1.99v6.09c0,.84-.18,1.55-.54,2.13-.36.58-.85,1.01-1.45,1.31-.61.29-1.28.44-2.03.44s-1.4-.15-2-.44c-.6-.29-1.07-.73-1.42-1.31-.35-.58-.52-1.29-.52-2.13v-6.09h1.98,0ZM145.02,99.93c1.04,0,1.95.2,2.73.61s1.39.98,1.82,1.73c.43.75.64,1.62.64,2.6s-.21,1.85-.64,2.59c-.43.74-1.04,1.31-1.82,1.72-.79.4-1.7.61-2.73.61h-3.45v-9.86h3.45ZM144.95,108.18c1.03,0,1.82-.29,2.39-.88.57-.58.85-1.39.85-2.43s-.28-1.83-.85-2.41c-.56-.58-1.37-.88-2.4-.88h-1.4v6.59s1.4,0,1.4,0Z"/>
        <path d="M44.69,127.48l-1.61-2.8h-.88v2.8h-1.15v-7h2.42c.54,0,.99.09,1.36.28s.65.44.84.76c.18.32.28.67.28,1.06,0,.46-.13.87-.4,1.24-.26.37-.67.63-1.22.76l1.73,2.9h-1.37ZM42.2,123.78h1.27c.43,0,.75-.11.97-.32.22-.21.33-.51.33-.88s-.11-.67-.32-.88c-.21-.21-.54-.32-.98-.32h-1.27v2.4h0ZM49.93,127.57c-.52,0-1-.12-1.42-.36-.42-.24-.76-.57-1-1.01-.24-.43-.36-.94-.36-1.51s.12-1.06.37-1.5c.25-.44.59-.77,1.02-1.01.43-.23.91-.35,1.44-.35s1.01.12,1.44.35.77.57,1.02,1.01c.25.44.37.94.37,1.5s-.13,1.06-.38,1.5c-.25.44-.6.77-1.04,1.01s-.93.36-1.46.36h0ZM49.93,126.61c.3,0,.57-.07.83-.22.26-.15.47-.36.63-.65s.24-.63.24-1.03-.08-.75-.23-1.03c-.15-.29-.36-.5-.61-.64-.25-.14-.53-.22-.83-.22s-.57.07-.82.22c-.25.14-.45.36-.6.64-.15.29-.23.63-.23,1.03s.07.75.22,1.04.34.51.58.65c.25.14.52.22.81.22ZM56.47,127.57c-.52,0-1-.12-1.42-.36-.42-.24-.76-.57-1-1.01-.24-.43-.36-.94-.36-1.51s.12-1.06.37-1.5c.25-.44.59-.77,1.02-1.01.43-.23.91-.35,1.44-.35s1.01.12,1.44.35.77.57,1.02,1.01c.25.44.37.94.37,1.5s-.13,1.06-.38,1.5c-.25.44-.6.77-1.04,1.01s-.93.36-1.46.36h0ZM56.47,126.61c.3,0,.57-.07.83-.22.26-.15.47-.36.63-.65s.24-.63.24-1.03-.08-.75-.23-1.03c-.15-.29-.36-.5-.61-.64-.25-.14-.53-.22-.83-.22s-.57.07-.82.22c-.25.14-.45.36-.6.64-.15.29-.23.63-.23,1.03s.07.75.22,1.04.34.51.58.65c.25.14.52.22.81.22ZM61.94,122.87v3.07c0,.21.05.36.15.45.1.09.26.14.5.14h.7v.96h-.91c-.52,0-.91-.12-1.19-.36s-.41-.63-.41-1.18v-3.07h-.65v-.94h.65v-1.38h1.16v1.38h1.35v.94h-1.35ZM69.54,124.55c0,.19-.01.38-.04.54h-4.25c.03.46.2.83.49,1.1.3.27.66.41,1.1.41.62,0,1.05-.26,1.31-.78h1.24c-.17.51-.47.93-.91,1.25-.44.33-.99.49-1.64.49-.53,0-1.01-.12-1.42-.36-.42-.24-.75-.57-.99-1.01-.24-.43-.36-.94-.36-1.51s.12-1.07.35-1.51c.23-.43.56-.77.98-1,.42-.23.9-.35,1.45-.35s.99.11,1.4.34c.41.23.73.55.96.96.23.41.34.88.34,1.41h0ZM68.34,124.27c0-.45-.16-.81-.45-1.07-.29-.26-.66-.39-1.1-.39-.4,0-.75.13-1.03.39-.29.26-.45.62-.5,1.07h3.08ZM70.39,124.68c0-.56.12-1.05.35-1.48.23-.43.55-.76.95-1,.4-.24.84-.36,1.33-.36.36,0,.72.08,1.07.24.35.16.63.37.84.63v-2.68h1.16v7.45h-1.16v-.84c-.19.27-.45.49-.78.66-.33.17-.71.26-1.14.26-.48,0-.93-.12-1.32-.37-.4-.25-.71-.59-.95-1.03-.23-.44-.35-.94-.35-1.5h0ZM74.94,124.7c0-.38-.08-.71-.24-1-.16-.28-.36-.5-.62-.64-.25-.15-.53-.22-.83-.22s-.57.07-.83.22c-.25.14-.46.36-.62.63-.16.28-.24.61-.24.99s.08.72.24,1.01.37.51.62.66c.26.15.53.23.82.23s.57-.07.83-.22c.25-.15.46-.36.62-.65s.24-.62.24-1h0ZM84.26,121.2c-.21,0-.38-.07-.52-.21s-.21-.32-.21-.52.07-.38.21-.52.32-.21.52-.21.37.07.51.21c.14.14.21.32.21.52s-.07.38-.21.52c-.14.14-.31.21-.51.21ZM84.82,121.93v5.55h-1.15v-5.55h1.15ZM89.24,121.84c.44,0,.83.09,1.17.27.35.18.62.45.81.81s.29.79.29,1.29v3.27h-1.14v-3.1c0-.5-.12-.88-.37-1.14-.25-.27-.59-.4-1.02-.4s-.77.13-1.02.4c-.25.26-.38.65-.38,1.14v3.1h-1.15v-5.55h1.15v.63c.19-.23.43-.41.72-.53s.6-.19.93-.19h0ZM102.24,127.55c-.65,0-1.25-.15-1.8-.46-.55-.31-.98-.73-1.3-1.28-.32-.55-.48-1.16-.48-1.85s.16-1.3.48-1.84c.32-.54.75-.97,1.3-1.27.55-.31,1.15-.46,1.8-.46s1.26.15,1.81.46.98.73,1.29,1.27c.32.54.47,1.16.47,1.84s-.16,1.3-.47,1.85c-.32.55-.75.97-1.29,1.28s-1.15.46-1.81.46ZM102.24,126.52c.46,0,.88-.11,1.24-.32.36-.21.65-.51.85-.9s.31-.83.31-1.33-.1-.95-.31-1.33c-.21-.38-.49-.68-.85-.89-.36-.21-.78-.31-1.24-.31s-.88.1-1.24.31c-.36.21-.65.5-.85.89-.2.38-.31.83-.31,1.33s.1.95.31,1.33c.21.39.49.68.85.9.36.21.78.32,1.24.32ZM109.85,121.84c.44,0,.83.09,1.17.27.35.18.62.45.81.81s.29.79.29,1.29v3.27h-1.14v-3.1c0-.5-.12-.88-.37-1.14-.25-.27-.59-.4-1.02-.4s-.77.13-1.02.4c-.25.26-.38.65-.38,1.14v3.1h-1.15v-5.55h1.15v.63c.19-.23.43-.41.72-.53s.6-.19.93-.19h0ZM115.03,122.87v3.07c0,.21.05.36.15.45s.26.14.5.14h.7v.96h-.91c-.52,0-.91-.12-1.19-.36s-.41-.63-.41-1.18v-3.07h-.65v-.94h.65v-1.38h1.16v1.38h1.35v.94h-1.35ZM117.17,124.68c0-.56.12-1.05.35-1.48.23-.43.55-.76.95-1s.84-.36,1.32-.36c.44,0,.82.09,1.14.26.33.17.59.38.78.64v-.81h1.16v5.55h-1.16v-.83c-.19.26-.46.48-.8.65-.34.17-.72.26-1.15.26-.48,0-.91-.12-1.31-.37-.4-.25-.71-.59-.94-1.03s-.35-.94-.35-1.5ZM121.71,124.7c0-.38-.08-.71-.24-1-.16-.28-.36-.5-.62-.64-.25-.15-.53-.22-.83-.22s-.57.07-.83.22c-.25.14-.46.36-.62.63-.16.28-.24.61-.24.99s.08.72.24,1.01c.16.29.37.51.62.66.26.15.53.23.82.23s.57-.07.83-.22c.25-.15.46-.36.62-.65s.24-.62.24-1h0ZM125.64,122.9c.17-.34.39-.6.67-.78.28-.19.61-.28.99-.28v1.19h-.29c-.45,0-.79.11-1.02.34s-.35.62-.35,1.19v2.92h-1.15v-5.55h1.15v.97h0ZM129.05,121.2c-.21,0-.38-.07-.52-.21s-.21-.32-.21-.52.07-.38.21-.52.32-.21.52-.21.37.07.51.21c.14.14.21.32.21.52s-.07.38-.21.52c-.14.14-.31.21-.51.21ZM129.61,121.93v5.55h-1.15v-5.55h1.15ZM133.64,127.57c-.52,0-1-.12-1.42-.36-.42-.24-.76-.57-1-1.01-.24-.43-.36-.94-.36-1.51s.12-1.06.37-1.5c.25-.44.59-.77,1.02-1.01.43-.23.91-.35,1.44-.35s1.01.12,1.44.35.77.57,1.02,1.01c.25.44.37.94.37,1.5s-.13,1.06-.38,1.5c-.25.44-.6.77-1.04,1.01s-.93.36-1.46.36h0ZM133.64,126.61c.3,0,.57-.07.83-.22.26-.15.47-.36.63-.65s.24-.63.24-1.03-.08-.75-.23-1.03c-.15-.29-.36-.5-.61-.64-.25-.14-.53-.22-.83-.22s-.57.07-.82.22c-.25.14-.45.36-.6.64s-.23.63-.23,1.03.07.75.22,1.04.34.51.58.65c.25.14.52.22.81.22ZM138.23,127.55c-.21,0-.38-.07-.52-.21s-.21-.32-.21-.52.07-.38.21-.52.32-.21.52-.21.37.07.51.21c.14.14.21.32.21.52s-.07.38-.21.52c-.14.14-.31.21-.51.21ZM34.56,136.05v4.44c0,.53.14.93.42,1.2.28.27.67.4,1.16.4s.89-.13,1.17-.4c.28-.27.42-.67.42-1.2v-4.44h1.15v4.44c0,.57-.12,1.05-.37,1.45s-.58.69-1,.89c-.42.19-.88.29-1.38.29s-.96-.1-1.37-.29c-.41-.19-.74-.49-.98-.89-.24-.4-.36-.88-.36-1.45v-4.44s1.15,0,1.15,0ZM43.28,137.41c.44,0,.83.09,1.17.27.35.18.62.45.81.81s.29.79.29,1.29v3.27h-1.14v-3.1c0-.5-.12-.88-.37-1.14-.25-.27-.59-.4-1.02-.4s-.77.13-1.02.4c-.25.26-.38.65-.38,1.14v3.1h-1.15v-5.55h1.15v.63c.19-.23.43-.41.72-.53s.6-.19.93-.19h0ZM47.71,136.76c-.21,0-.38-.07-.52-.21s-.21-.32-.21-.52.07-.38.21-.52.32-.21.52-.21.37.07.51.21c.14.14.21.32.21.52s-.07.38-.21.52c-.14.14-.31.21-.51.21ZM48.28,137.5v5.55h-1.15v-5.55h1.15ZM51.24,138.43v3.07c0,.21.05.36.15.45.1.09.26.14.5.14h.7v.96h-.91c-.52,0-.91-.12-1.19-.36s-.41-.63-.41-1.18v-3.07h-.65v-.94h.65v-1.38h1.16v1.38h1.35v.94h-1.35ZM58.84,140.11c0,.19-.01.38-.04.54h-4.25c.03.46.2.83.49,1.1.3.27.66.41,1.1.41.62,0,1.05-.26,1.31-.78h1.24c-.17.51-.47.93-.91,1.25-.44.33-.99.49-1.64.49-.53,0-1.01-.12-1.42-.36-.42-.24-.75-.57-.99-1.01-.24-.43-.36-.94-.36-1.51s.12-1.07.35-1.51c.23-.43.56-.77.98-1,.42-.23.9-.35,1.45-.35s.99.11,1.4.34c.41.23.73.55.96.96.23.41.34.88.34,1.41h0ZM57.64,139.83c0-.45-.16-.81-.45-1.07-.29-.26-.66-.39-1.1-.39-.4,0-.75.13-1.03.39-.29.26-.45.62-.5,1.07h3.08ZM59.69,140.25c0-.56.12-1.05.35-1.48.23-.43.55-.76.95-1,.4-.24.84-.36,1.33-.36.36,0,.72.08,1.07.24.35.16.63.37.84.63v-2.68h1.16v7.45h-1.16v-.84c-.19.27-.45.49-.78.66-.33.17-.71.26-1.14.26-.48,0-.93-.12-1.32-.37-.4-.25-.71-.59-.95-1.03-.23-.44-.35-.94-.35-1.5h0ZM64.24,140.27c0-.38-.08-.71-.24-1-.16-.28-.36-.5-.62-.64-.25-.15-.53-.22-.83-.22s-.57.07-.83.22c-.25.14-.46.36-.62.63-.16.28-.24.61-.24.99s.08.72.24,1.01.37.51.62.66c.26.15.53.23.82.23s.57-.07.83-.22c.25-.15.46-.36.62-.65s.24-.62.24-1h0ZM74.12,138.32c.19-.27.46-.49.8-.66s.72-.26,1.13-.26c.49,0,.93.12,1.33.35s.71.57.94,1c.23.43.34.93.34,1.49s-.11,1.06-.34,1.5c-.23.44-.54.78-.94,1.03-.4.24-.84.37-1.32.37-.43,0-.81-.08-1.14-.25-.33-.17-.6-.38-.79-.64v.81h-1.15v-7.45h1.15s0,2.73,0,2.73ZM77.5,140.25c0-.38-.08-.71-.24-.99-.16-.28-.37-.49-.62-.63-.26-.14-.53-.22-.83-.22s-.56.07-.82.22c-.26.15-.47.36-.62.64-.16.28-.24.61-.24,1s.08.72.24,1c.16.29.37.5.62.65.26.15.53.22.82.22s.57-.08.83-.23c.26-.15.47-.37.62-.66.16-.29.24-.62.24-1.01h0ZM80.53,137.5l1.56,4.23,1.62-4.23h1.19l-3.4,8.16h-1.19l1.13-2.7-2.19-5.46s1.28,0,1.28,0ZM93.18,138.43v3.07c0,.21.05.36.15.45s.26.14.5.14h.7v.96h-.91c-.52,0-.91-.12-1.19-.36s-.41-.63-.41-1.18v-3.07h-.65v-.94h.65v-1.38h1.16v1.38h1.35v.94h-1.35ZM98.57,137.41c.42,0,.8.09,1.13.27s.59.45.79.81c.19.36.29.79.29,1.29v3.27h-1.14v-3.1c0-.5-.12-.88-.37-1.14-.25-.27-.59-.4-1.02-.4s-.77.13-1.02.4c-.25.26-.38.65-.38,1.14v3.1h-1.15v-7.45h1.15v2.55c.19-.23.44-.42.74-.54s.63-.19.98-.19h0ZM107.43,140.11c0,.19-.01.38-.04.54h-4.25c.03.46.2.83.49,1.1.3.27.66.41,1.1.41.62,0,1.05-.26,1.31-.78h1.24c-.17.51-.47.93-.91,1.25-.44.33-.99.49-1.64.49-.53,0-1.01-.12-1.42-.36-.42-.24-.75-.57-.99-1.01-.24-.43-.36-.94-.36-1.51s.12-1.07.35-1.51c.23-.43.56-.77.98-1,.42-.23.9-.35,1.45-.35s.99.11,1.4.34c.41.23.73.55.96.96.23.41.34.88.34,1.41h0ZM106.23,139.83c0-.45-.16-.81-.45-1.07-.29-.26-.66-.39-1.1-.39-.4,0-.75.13-1.03.39-.29.26-.45.62-.5,1.07,0,0,3.08,0,3.08,0ZM116.86,137.41c.43,0,.81.09,1.14.26.33.17.59.38.78.64v-.81h1.16v5.64c0,.51-.11.97-.32,1.36-.21.4-.53.71-.93.94-.41.23-.89.34-1.46.34-.75,0-1.38-.18-1.87-.53-.5-.35-.78-.83-.85-1.43h1.14c.09.29.27.52.56.7s.63.27,1.02.27c.46,0,.84-.14,1.12-.42s.43-.69.43-1.23v-.93c-.19.26-.46.48-.79.66-.33.18-.71.27-1.13.27-.48,0-.93-.12-1.32-.37-.4-.25-.71-.59-.95-1.03s-.35-.94-.35-1.5.12-1.05.35-1.48c.23-.43.55-.76.95-1s.84-.36,1.32-.36h0ZM118.78,140.27c0-.38-.08-.71-.24-1-.16-.28-.36-.5-.62-.64-.25-.15-.53-.22-.83-.22s-.57.07-.83.22c-.25.14-.46.36-.62.63-.16.28-.24.61-.24.99s.08.72.24,1.01c.16.29.37.51.62.66.26.15.53.23.82.23s.57-.07.83-.22c.25-.15.46-.36.62-.65s.24-.62.24-1h0ZM121.18,140.25c0-.56.12-1.05.35-1.48.23-.43.55-.76.95-1s.84-.36,1.32-.36c.44,0,.82.09,1.14.26.33.17.59.38.78.64v-.81h1.16v5.55h-1.16v-.83c-.19.26-.46.48-.8.65-.34.17-.72.26-1.15.26-.48,0-.91-.12-1.31-.37-.4-.25-.71-.59-.94-1.03s-.35-.94-.35-1.5ZM125.72,140.27c0-.38-.08-.71-.24-1-.16-.28-.36-.5-.62-.64-.25-.15-.53-.22-.83-.22s-.57.07-.83.22c-.25.14-.46.36-.62.63-.16.28-.24.61-.24.99s.08.72.24,1.01c.16.29.37.51.62.66.26.15.53.23.82.23s.57-.07.83-.22c.25-.15.46-.36.62-.65s.24-.62.24-1h0ZM135.21,137.41c.44,0,.83.09,1.17.27.35.18.62.45.82.81s.3.79.3,1.29v3.27h-1.14v-3.1c0-.5-.12-.88-.37-1.14-.25-.27-.59-.4-1.02-.4s-.77.13-1.02.4c-.25.26-.38.65-.38,1.14v3.1h-1.14v-3.1c0-.5-.12-.88-.37-1.14-.25-.27-.59-.4-1.02-.4s-.77.13-1.02.4c-.25.26-.38.65-.38,1.14v3.1h-1.15v-5.55h1.15v.63c.19-.23.43-.41.71-.53s.6-.19.93-.19c.44,0,.84.09,1.19.28.35.19.62.46.81.82.17-.34.43-.6.79-.8.36-.2.74-.3,1.15-.3h0ZM144.16,140.11c0,.19-.01.38-.04.54h-4.25c.03.46.2.83.49,1.1.3.27.66.41,1.1.41.62,0,1.05-.26,1.31-.78h1.24c-.17.51-.47.93-.91,1.25-.44.33-.99.49-1.64.49-.53,0-1.01-.12-1.42-.36-.42-.24-.75-.57-.99-1.01-.24-.43-.36-.94-.36-1.51s.12-1.07.35-1.51c.23-.43.56-.77.98-1,.42-.23.9-.35,1.45-.35s.99.11,1.4.34c.41.23.73.55.96.96.23.41.34.88.34,1.41h0ZM142.96,139.83c0-.45-.16-.81-.45-1.07-.29-.26-.66-.39-1.1-.39-.4,0-.75.13-1.03.39-.29.26-.45.62-.5,1.07,0,0,3.08,0,3.08,0ZM145.86,143.12c-.21,0-.38-.07-.52-.21s-.21-.32-.21-.52.07-.38.21-.52.32-.21.52-.21.37.07.51.21c.14.14.21.32.21.52s-.07.38-.21.52c-.14.14-.31.21-.51.21Z"/>
      </g>
      <polygon class="st0" points="0 0 180 0 180 180 0 180 0 0"/>
    </g>
  </g>
</svg>