<?xml version="1.0" encoding="UTF-8"?>
<svg id="Layer_1" xmlns="http://www.w3.org/2000/svg" version="1.1" xmlns:xodm="http://www.corel.com/coreldraw/odm/2003" viewBox="0 0 180 180">
  <!-- Generator: Adobe Illustrator 30.3.0, SVG Export Plug-In . SVG Version: 2.1.3 Build 182)  -->
  <defs>
    <style>
      .st0 {
        fill: none;
      }
    </style>
  </defs>
  <g id="Layer_x5F_1">
    <g id="_1363694314496">
      <g>
        <path d="M61.35,40.1c.4-.3.65-.88,1.21-.91.44-.06.68.38.97.64,2.87,2.86,5.71,5.75,8.58,8.61,1.41,1.43,2.88,2.81,4.28,4.25,1.13-1.13,2.25-2.26,3.4-3.37.79-.81,1.52.49,2.47,1.36.51.4-.38,1.07-.63,1.34,1.39,1.33,2.88,2.56,4.26,3.91.87.83,11.82,11.3,12.16,11.77.29.53.04.92-.31,1.28-.64.65-1.28,1.28-1.95,1.89-.28-.25-.6-.49-.8-.81-.46-.73-13.45-14.4-15.16-16.24-.25-.28-.67.32-1.18.81-.29.29-.62.59-.68,1.01-.08.4.22.76.55.93.49.12.6-.48,1.44.31,1.56,1.51,3.05,3.08,4.58,4.61,2.94,3.14,5.88,6.27,8.83,9.4.71.76-.34,1.75-.83,2.25-.83.77-1.63,1.57-2.44,2.37-.4.39-.93.97-1.48.41-.91-.88-1.82-1.78-2.75-2.64-1.71,1.16-4.11,4.62-5.47,6.27-2.27,2.84-4.49,5.72-6.71,8.6-.44.58-.83.81-1.41.23-1.95-1.87-3.91-3.73-5.87-5.59-1.02-.88-.21-1.51.22-1.9.65-.58,1.31-1.14,1.98-1.7,2.59-2.21,6.5-6.11,9.09-8.61.24-.23.68-.26.92,0,1.1,1.12,2.22,2.22,3.34,3.32.11.13.27.23.45.17.34-.27.63-.59.87-.95-.75-1.03-3.92-3.79-5.06-5.02-.32-.36-.84-.17-1.13.13-2.16,2.07-4.34,4.11-6.43,6.26-.19.25-.62.34-.83.06-.6-.8-1.21-1.58-1.84-2.35-.17-.16-.12-.4-.13-.61,2.87-2.83,5.76-5.64,8.4-8.69.47-.51.9-1.07,1.42-1.53-1.27-1.09-3.19-3.15-4.38-4.5-.71-.8.55-1.68,1.05-2.19-4.36-4.39-8.63-8.89-13.01-13.26-.42-.3-.4-1,0-1.3h0ZM99.11,69.6c.35-.08.79-.14,1.05.17,2.39,2.28,4.82,4.51,7.19,6.81,1.94,1.81,3.57,3.06,5.51,4.73.95.82-.13,1.62-.41,1.91-1.7,1.71-3.4,3.41-5.1,5.12-.77.79-1.22.12-1.56-.27-3.82-4.42-7.23-8.58-11.29-12.84-.35-.39-.76-.73-1.06-1.16.53-.62,1.34-1.08,1.54-1.93.36.31.65.69,1.03.98,0-.21,2.55-3.09,3.11-3.53h0ZM102.77,80.77c.21.38,1.98,2.26,2.35,2.66.67.72,1.14.29,1.73-.28.53-.55,1.1-1.06,1.59-1.64-.27-.42-.67-.73-1.05-1.05-.9.38-1.33.59-1.83.07.27-.21.54-.41.78-.65-.19-.16-.36-.4-.64-.39-.68-.02-1.36,0-2.04,0-.63-.03-1.17.71-.9,1.3h0ZM116.44,39.47c.89-.83,1.07-.9,1.97.09.18.2.95.89.3,1.47-2.31,2.19-4.56,4.44-6.84,6.66-2.34,2.22-4.63,4.49-6.96,6.72.74.81,1.63,1.3.55,2.31-1.5,1.48-2.92,3.03-4.38,4.56,1.15,1.27,2.21,2.63,3.39,3.88,1.96,2.17,4.05,4.21,6.16,6.22.26.2.21.63,0,.85-.61.76-1.22,1.52-1.8,2.29-.15.23-.53.29-.72.09-2.11-2.32-4.39-4.47-6.6-6.7-.75-.74-.94-.39-1.65.13-.53-.7-.16-1.03-1.11-1.95-1.57-1.56-3.11-3.15-4.65-4.73-.06-.15-.09-.37.04-.49.93-.91,1.83-1.83,2.76-2.73.13.05.25.11.38.16,1.18-.97,11.29-11.24,11.36-11.34-.25-.29-.88-1.09-1.21-1.19-.31.19-.56.45-.8.71.04.1.09.19.13.29-.97,1.02-2,1.97-2.98,2.97-.74.74-4.76,4.92-5.26,5.27-.14.11-4.64,4.46-5.08,4.94-.11.13-.28.19-.44.23-.69-.62-1.36-1.27-2.02-1.91.02-.15-.04-.35.09-.46,4.09-3.9,8.24-7.71,12.32-11.62.37-.33.7-.7,1.1-1-.34-.46-1.33-1.07-.84-1.52.8-.8,1.64-1.56,2.46-2.36.27-.28.76-.27,1.01.02,1.19,1.18,2.42,2.32,3.61,3.51,1.89-1.8,3.79-3.58,5.7-5.36h0ZM78.25,61.67c.33.45,3.52,3.79,3.93,4.2.37.37,4.58,4.2,5.05,4.49-.5-.66-2.75-2.9-3.62-3.88-1.37-1.54-3.11-2.75-4.57-4.2-.23-.24-.5-.43-.78-.61ZM71.38,79.59c-1.72,1.27-.65,1.92.79,3.36,1.16,1.14,2.12,1.21,3.04-.23.87-1.36,2.15-2.2.81-3.12-.28-.2-.63-.09-.94-.04,0,.56.02,1.14.24,1.66-1.61,1.18-3.1-2.36-3.95-1.62h0Z"/>
        <path d="M40.25,100.44c0,.53-.12,1.02-.37,1.48-.25.46-.64.83-1.17,1.12s-1.2.42-2.01.42h-1.65v3.78h-1.98v-9.86h3.63c.76,0,1.41.13,1.95.4s.94.63,1.21,1.09c.27.46.4.98.4,1.57h0ZM36.61,101.91c.54,0,.94-.13,1.21-.4.27-.26.4-.62.4-1.07s-.13-.84-.4-1.09-.67-.39-1.21-.39h-1.57v2.95h1.57,0ZM43.77,105.74h3.25v1.51h-5.22v-9.86h1.98v8.34h0ZM54.45,105.37h-3.93l-.65,1.88h-2.08l3.54-9.87h2.3l3.54,9.87h-2.09l-.65-1.88h0ZM53.93,103.83l-1.44-4.17-1.44,4.17h2.88,0ZM66.49,97.39l-3.33,6.42v3.43h-1.98v-3.43l-3.35-6.42h2.23l2.1,4.49,2.09-4.49h2.23ZM81.94,97.39v1.55h-2.63v8.3h-1.98v-8.3h-2.63v-1.55h7.23ZM88.09,107.34c-.92,0-1.77-.22-2.54-.65-.77-.43-1.38-1.03-1.84-1.8s-.68-1.64-.68-2.6.23-1.82.68-2.59c.45-.77,1.06-1.37,1.84-1.8s1.62-.65,2.54-.65,1.78.22,2.55.65c.77.43,1.37,1.03,1.82,1.8.45.77.67,1.63.67,2.59s-.22,1.84-.67,2.6c-.45.77-1.06,1.37-1.83,1.8-.77.43-1.62.65-2.54.65ZM88.09,105.52c.59,0,1.12-.13,1.57-.4.45-.27.8-.64,1.06-1.13.25-.48.38-1.05.38-1.7s-.13-1.22-.38-1.7c-.25-.49-.61-.86-1.06-1.12-.45-.26-.97-.4-1.57-.4s-1.12.13-1.57.4c-.46.26-.81.64-1.07,1.12-.25.48-.38,1.05-.38,1.7s.13,1.22.38,1.7c.25.49.61.86,1.07,1.13.46.27.98.4,1.57.4ZM94.26,102.3c0-.97.22-1.84.66-2.61.44-.77,1.04-1.37,1.81-1.79.77-.43,1.62-.64,2.56-.64,1.11,0,2.08.27,2.89.81s1.38,1.3,1.69,2.28h-2.27c-.23-.41-.54-.73-.93-.95-.4-.22-.86-.32-1.38-.32-.58,0-1.1.13-1.55.4-.45.26-.8.64-1.06,1.13-.25.49-.38,1.05-.38,1.69s.13,1.23.39,1.72.62.87,1.08,1.13c.46.26,1,.4,1.61.4.75,0,1.37-.2,1.86-.61s.8-.96.94-1.68h-3.39v-1.5h5.34v1.72c-.13.69-.41,1.32-.85,1.91-.43.58-.99,1.05-1.67,1.4s-1.45.53-2.29.53c-.95,0-1.81-.21-2.58-.64-.77-.43-1.37-1.02-1.81-1.79-.44-.76-.66-1.63-.66-2.6h0ZM107.7,98.93v2.56h3.32v1.52h-3.32v2.67h3.74v1.57h-5.72v-9.87h5.72v1.55h-3.74ZM120.08,97.39v1.55h-2.63v8.3h-1.98v-8.3h-2.63v-1.55h7.23ZM129.83,97.39v9.86h-1.98v-4.22h-4.22v4.22h-1.98v-9.86h1.98v4.08h4.22v-4.08h1.98ZM133.89,98.93v2.56h3.32v1.52h-3.32v2.67h3.74v1.57h-5.72v-9.87h5.72v1.55h-3.74ZM144.65,107.25l-2.17-3.84h-.93v3.84h-1.98v-9.86h3.7c.76,0,1.41.13,1.95.4.54.27.94.63,1.21,1.09.27.46.4.97.4,1.53,0,.65-.19,1.24-.56,1.76s-.94.88-1.68,1.08l2.36,4h-2.29ZM141.54,101.94h1.65c.54,0,.94-.13,1.2-.4s.4-.63.4-1.09-.13-.82-.4-1.08-.66-.39-1.2-.39h-1.65v2.95h0Z"/>
        <path d="M43.72,120.6c0,.36-.08.69-.25,1.01s-.44.57-.81.77-.84.3-1.42.3h-1.27v2.84h-1.15v-7h2.42c.54,0,.99.09,1.36.28s.65.43.84.75c.18.32.28.67.28,1.06ZM41.25,121.78c.44,0,.76-.1.98-.31.21-.21.32-.5.32-.87s-.11-.67-.32-.88c-.21-.21-.54-.31-.98-.31h-1.27v2.37h1.27ZM44.55,122.71c0-.56.12-1.05.35-1.48.23-.43.55-.76.95-1,.4-.24.84-.36,1.32-.36.44,0,.82.09,1.14.26.33.17.59.38.78.64v-.81h1.16v5.55h-1.16v-.83c-.19.26-.46.48-.8.65-.34.17-.72.26-1.15.26-.48,0-.91-.12-1.31-.37-.4-.25-.71-.59-.94-1.03-.23-.44-.35-.94-.35-1.5ZM49.09,122.73c0-.38-.08-.71-.24-1-.16-.28-.36-.5-.62-.64-.25-.15-.53-.22-.83-.22s-.57.07-.83.22c-.25.14-.46.36-.62.63-.16.28-.24.61-.24.99s.08.72.24,1.01.37.51.62.66c.26.15.53.23.82.23s.57-.07.83-.22c.25-.15.46-.36.62-.65s.24-.62.24-1h0ZM52.45,119.23c-.21,0-.38-.07-.52-.21s-.21-.32-.21-.52.07-.38.21-.52.32-.21.52-.21.37.07.51.21c.14.14.21.32.21.52s-.07.38-.21.52c-.14.14-.31.21-.51.21ZM53.02,119.96v5.55h-1.15v-5.55h1.15ZM57.44,119.87c.44,0,.83.09,1.17.27.35.18.62.45.81.81s.29.79.29,1.29v3.27h-1.14v-3.1c0-.5-.12-.88-.37-1.14-.25-.27-.59-.4-1.02-.4s-.77.13-1.02.4c-.25.26-.38.65-.38,1.14v3.1h-1.15v-5.55h1.15v.63c.19-.23.43-.41.72-.53s.6-.19.93-.19h0ZM62.62,120.9v3.07c0,.21.05.36.15.45.1.09.26.14.5.14h.7v.96h-.91c-.52,0-.91-.12-1.19-.36s-.41-.63-.41-1.18v-3.07h-.65v-.94h.65v-1.38h1.16v1.38h1.35v.94h-1.35ZM66.29,120.79c.19-.27.46-.49.8-.66s.72-.26,1.13-.26c.49,0,.93.12,1.33.35s.71.57.94,1c.23.43.34.93.34,1.49s-.11,1.06-.34,1.5c-.23.44-.54.78-.94,1.03-.4.24-.84.37-1.32.37-.43,0-.81-.08-1.14-.25-.33-.17-.6-.38-.79-.64v.81h-1.15v-7.45h1.15s0,2.73,0,2.73ZM69.66,122.71c0-.38-.08-.71-.24-.99-.16-.28-.37-.49-.62-.63-.26-.14-.53-.22-.83-.22s-.56.07-.82.22c-.26.15-.47.36-.62.64-.16.28-.24.61-.24,1s.08.72.24,1c.16.29.37.5.62.65.26.15.53.22.82.22s.57-.08.83-.23c.26-.15.47-.37.62-.66s.24-.62.24-1.01h0ZM71.69,122.71c0-.56.12-1.05.35-1.48.23-.43.55-.76.95-1,.4-.24.84-.36,1.32-.36.44,0,.82.09,1.14.26.33.17.59.38.78.64v-.81h1.16v5.55h-1.16v-.83c-.19.26-.46.48-.8.65-.34.17-.72.26-1.15.26-.48,0-.91-.12-1.31-.37-.4-.25-.71-.59-.94-1.03-.23-.44-.35-.94-.35-1.5ZM76.24,122.73c0-.38-.08-.71-.24-1-.16-.28-.36-.5-.62-.64-.25-.15-.53-.22-.83-.22s-.57.07-.83.22c-.25.14-.46.36-.62.63-.16.28-.24.61-.24.99s.08.72.24,1.01.37.51.62.66c.26.15.53.23.82.23s.57-.07.83-.22c.25-.15.46-.36.62-.65s.24-.62.24-1h0ZM80.16,118.06v7.45h-1.15v-7.45h1.15ZM82.93,118.06v7.45h-1.15v-7.45h1.15ZM92.92,125.61c-.52,0-1-.12-1.42-.36-.42-.24-.76-.57-1-1.01-.24-.43-.36-.94-.36-1.51s.12-1.06.37-1.5c.25-.44.59-.77,1.02-1.01.43-.23.91-.35,1.44-.35s1.01.12,1.44.35.77.57,1.02,1.01c.25.44.37.94.37,1.5s-.13,1.06-.38,1.5c-.25.44-.6.77-1.04,1.01s-.93.36-1.46.36h0ZM92.92,124.64c.3,0,.57-.07.83-.22.26-.15.47-.36.63-.65s.24-.63.24-1.03-.08-.75-.23-1.03c-.15-.29-.36-.5-.61-.64-.25-.14-.53-.22-.83-.22s-.57.07-.82.22c-.25.14-.45.36-.6.64s-.23.63-.23,1.03.07.75.22,1.04.34.51.58.65c.25.14.52.22.81.22ZM98.19,120.93c.17-.34.39-.6.67-.78.28-.19.61-.28.99-.28v1.19h-.29c-.45,0-.79.11-1.02.34s-.35.62-.35,1.19v2.92h-1.15v-5.55h1.15v.97h0ZM106.6,122.71c0-.56.12-1.05.35-1.48.23-.43.55-.76.95-1s.84-.36,1.32-.36c.44,0,.82.09,1.14.26.33.17.59.38.78.64v-.81h1.16v5.55h-1.16v-.83c-.19.26-.46.48-.8.65-.34.17-.72.26-1.15.26-.48,0-.91-.12-1.31-.37-.4-.25-.71-.59-.94-1.03s-.35-.94-.35-1.5ZM111.14,122.73c0-.38-.08-.71-.24-1-.16-.28-.36-.5-.62-.64-.25-.15-.53-.22-.83-.22s-.57.07-.83.22c-.25.14-.46.36-.62.63-.16.28-.24.61-.24.99s.08.72.24,1.01c.16.29.37.51.62.66.26.15.53.23.82.23s.57-.07.83-.22c.25-.15.46-.36.62-.65s.24-.62.24-1h0ZM114.5,119.23c-.21,0-.38-.07-.52-.21s-.21-.32-.21-.52.07-.38.21-.52.32-.21.52-.21.37.07.51.21c.14.14.21.32.21.52s-.07.38-.21.52c-.14.14-.31.21-.51.21ZM115.06,119.96v5.55h-1.15v-5.55h1.15ZM117.83,120.93c.17-.34.39-.6.67-.78.28-.19.61-.28.99-.28v1.19h-.29c-.45,0-.79.11-1.02.34s-.35.62-.35,1.19v2.92h-1.15v-5.55h1.15v.97h0ZM122.66,125.61c-.43,0-.82-.08-1.16-.24-.34-.16-.61-.37-.82-.64-.2-.27-.31-.58-.32-.91h1.19c.02.25.13.47.34.63.21.17.46.25.77.25s.57-.07.75-.2c.18-.13.27-.31.27-.53,0-.2-.1-.36-.3-.46-.2-.11-.51-.21-.94-.32-.41-.11-.74-.22-1-.33-.26-.1-.48-.26-.67-.48-.19-.22-.28-.5-.28-.85,0-.3.08-.58.25-.83s.41-.45.73-.6c.32-.15.69-.22,1.12-.22.63,0,1.14.16,1.53.48s.59.75.62,1.3h-1.15c-.02-.27-.12-.48-.3-.64-.18-.16-.43-.24-.74-.24s-.53.06-.69.19c-.16.12-.24.29-.24.5,0,.15.05.27.16.37s.24.18.4.24c.16.06.39.13.68.21.4.11.73.21.99.32.25.11.47.27.65.49s.27.5.27.85c0,.32-.08.6-.25.85s-.41.45-.73.59-.7.22-1.13.22h0ZM128.56,125.61c-.52,0-1-.12-1.42-.36-.42-.24-.76-.57-1-1.01-.24-.43-.36-.94-.36-1.51s.12-1.06.37-1.5c.25-.44.59-.77,1.02-1.01.43-.23.91-.35,1.44-.35s1.01.12,1.44.35.77.57,1.02,1.01c.25.44.37.94.37,1.5s-.13,1.06-.38,1.5c-.25.44-.6.77-1.04,1.01s-.93.36-1.46.36h0ZM128.56,124.64c.3,0,.57-.07.83-.22.26-.15.47-.36.63-.65s.24-.63.24-1.03-.08-.75-.23-1.03c-.15-.29-.36-.5-.61-.64-.25-.14-.53-.22-.83-.22s-.57.07-.82.22c-.25.14-.45.36-.6.64s-.23.63-.23,1.03.07.75.22,1.04.34.51.58.65c.25.14.52.22.81.22ZM135.01,120.9h-1.03v4.61h-1.16v-4.61h-.65v-.94h.65v-.39c0-.64.17-1.1.51-1.39.34-.29.87-.44,1.6-.44v.96c-.35,0-.59.07-.74.2-.14.13-.21.36-.21.68v.39h1.03v.94h0ZM137.48,120.9v3.07c0,.21.05.36.15.45s.26.14.5.14h.7v.96h-.91c-.52,0-.91-.12-1.19-.36s-.41-.63-.41-1.18v-3.07h-.65v-.94h.65v-1.38h1.16v1.38h1.35v.94h-1.35ZM140.46,125.59c-.21,0-.38-.07-.52-.21s-.21-.32-.21-.52.07-.38.21-.52.32-.21.52-.21.37.07.51.21c.14.14.21.32.21.52s-.07.38-.21.52c-.14.14-.31.21-.51.21ZM49.17,139.65h-2.93l-.5,1.43h-1.2l2.51-7.01h1.33l2.51,7.01h-1.21l-.5-1.43ZM48.86,138.75l-1.15-3.29-1.16,3.29h2.31ZM53.23,133.62v7.45h-1.15v-7.45h1.15ZM56,133.62v7.45h-1.15v-7.45h1.15ZM63.2,138.28c0-.56.12-1.05.35-1.48.23-.43.55-.76.95-1,.4-.24.84-.36,1.32-.36.44,0,.82.09,1.14.26.33.17.59.38.78.64v-.81h1.16v5.55h-1.16v-.83c-.19.26-.46.48-.8.65-.34.17-.72.26-1.15.26-.48,0-.91-.12-1.31-.37-.4-.25-.71-.59-.94-1.03-.23-.44-.35-.94-.35-1.5ZM67.74,138.3c0-.38-.08-.71-.24-1-.16-.28-.36-.5-.62-.64-.25-.15-.53-.22-.83-.22s-.57.07-.83.22c-.25.14-.46.36-.62.63-.16.28-.24.61-.24.99s.08.72.24,1.01.37.51.62.66c.26.15.53.23.82.23s.57-.07.83-.22c.25-.15.46-.36.62-.65s.24-.62.24-1h0ZM71.67,136.49c.17-.34.39-.6.67-.78.28-.19.61-.28.99-.28v1.19h-.29c-.45,0-.79.11-1.02.34-.23.23-.35.62-.35,1.19v2.92h-1.15v-5.55h1.15v.97h0ZM79.58,138.15c0,.19-.01.38-.04.54h-4.25c.03.46.2.83.49,1.1.3.27.66.41,1.1.41.62,0,1.05-.26,1.31-.78h1.24c-.17.51-.47.93-.91,1.25-.44.33-.99.49-1.64.49-.53,0-1.01-.12-1.42-.36-.42-.24-.75-.57-.99-1.01-.24-.43-.36-.94-.36-1.51s.12-1.07.35-1.51c.23-.43.56-.77.98-1,.42-.23.9-.35,1.45-.35s.99.11,1.4.34c.41.23.73.55.96.96.23.41.34.88.34,1.41h0ZM78.38,137.86c0-.45-.16-.81-.45-1.07-.29-.26-.66-.39-1.1-.39-.4,0-.75.13-1.03.39-.29.26-.45.62-.5,1.07,0,0,3.08,0,3.08,0ZM94.23,135.53l-1.72,5.55h-1.21l-1.12-4.1-1.12,4.1h-1.21l-1.73-5.55h1.17l1.16,4.46,1.18-4.46h1.2l1.13,4.44,1.15-4.44h1.13ZM100.28,138.15c0,.19-.01.38-.04.54h-4.25c.03.46.2.83.49,1.1.3.27.66.41,1.1.41.62,0,1.05-.26,1.31-.78h1.24c-.17.51-.47.93-.91,1.25-.44.33-.99.49-1.64.49-.53,0-1.01-.12-1.42-.36-.42-.24-.75-.57-.99-1.01-.24-.43-.36-.94-.36-1.51s.12-1.07.35-1.51c.23-.43.56-.77.98-1,.42-.23.9-.35,1.45-.35s.99.11,1.4.34c.41.23.73.55.96.96.23.41.34.88.34,1.41h0ZM99.08,137.86c0-.45-.16-.81-.45-1.07-.29-.26-.66-.39-1.1-.39-.4,0-.75.13-1.03.39-.29.26-.45.62-.5,1.07,0,0,3.08,0,3.08,0ZM102.66,133.62v7.45h-1.15v-7.45h1.15ZM103.9,138.3c0-.57.12-1.07.35-1.51.23-.43.55-.77.96-1,.41-.23.88-.35,1.41-.35.67,0,1.23.16,1.67.48s.74.77.89,1.37h-1.24c-.1-.28-.26-.49-.48-.64-.22-.15-.5-.23-.84-.23-.47,0-.84.17-1.12.5-.28.33-.42.8-.42,1.39s.14,1.06.42,1.4c.28.34.65.5,1.12.5.66,0,1.1-.29,1.32-.88h1.24c-.16.56-.46,1.01-.91,1.34-.44.33-.99.5-1.65.5-.53,0-1-.12-1.41-.36-.41-.24-.73-.57-.96-1.01-.23-.43-.35-.94-.35-1.51ZM112.84,141.17c-.52,0-1-.12-1.42-.36-.42-.24-.76-.57-1-1.01-.24-.43-.36-.94-.36-1.51s.12-1.06.37-1.5c.25-.44.59-.77,1.02-1.01.43-.23.91-.35,1.44-.35s1.01.12,1.44.35.77.57,1.02,1.01c.25.44.37.94.37,1.5s-.13,1.06-.38,1.5c-.25.44-.6.77-1.04,1.01s-.93.36-1.46.36h0ZM112.84,140.2c.3,0,.57-.07.83-.22.26-.15.47-.36.63-.65s.24-.63.24-1.03-.08-.75-.23-1.03c-.15-.29-.36-.5-.61-.64-.25-.14-.53-.22-.83-.22s-.57.07-.82.22c-.25.14-.45.36-.6.64s-.23.63-.23,1.03.07.75.22,1.04.34.51.58.65c.25.14.52.22.81.22ZM123.69,135.44c.44,0,.83.09,1.17.27.35.18.62.45.82.81s.3.79.3,1.29v3.27h-1.14v-3.1c0-.5-.12-.88-.37-1.14-.25-.27-.59-.4-1.02-.4s-.77.13-1.02.4c-.25.26-.38.65-.38,1.14v3.1h-1.14v-3.1c0-.5-.12-.88-.37-1.14-.25-.27-.59-.4-1.02-.4s-.77.13-1.02.4c-.25.26-.38.65-.38,1.14v3.1h-1.15v-5.55h1.15v.63c.19-.23.43-.41.71-.53s.6-.19.93-.19c.44,0,.84.09,1.19.28.35.19.62.46.81.82.17-.34.43-.6.79-.8.36-.2.74-.3,1.15-.3h0ZM132.63,138.15c0,.19-.01.38-.04.54h-4.25c.03.46.2.83.49,1.1.3.27.66.41,1.1.41.62,0,1.05-.26,1.31-.78h1.24c-.17.51-.47.93-.91,1.25-.44.33-.99.49-1.64.49-.53,0-1.01-.12-1.42-.36-.42-.24-.75-.57-.99-1.01-.24-.43-.36-.94-.36-1.51s.12-1.07.35-1.51c.23-.43.56-.77.98-1,.42-.23.9-.35,1.45-.35s.99.11,1.4.34c.41.23.73.55.96.96.23.41.34.88.34,1.41h0ZM131.43,137.86c0-.45-.16-.81-.45-1.07-.29-.26-.66-.39-1.1-.39-.4,0-.75.13-1.03.39-.29.26-.45.62-.5,1.07,0,0,3.08,0,3.08,0ZM134.33,141.15c-.21,0-.38-.07-.52-.21s-.21-.32-.21-.52.07-.38.21-.52.32-.21.52-.21.37.07.51.21c.14.14.21.32.21.52s-.07.38-.21.52c-.14.14-.31.21-.51.21Z"/>
      </g>
      <polygon class="st0" points="0 0 180 0 180 180 0 180 0 0"/>
    </g>
  </g>
</svg>